<?xml version="1.0" encoding="UTF-8"?>
<svg id="Layer_2" xmlns="http://www.w3.org/2000/svg" version="1.1" viewBox="0 0 64 64">
  <!-- Generator: Adobe Illustrator 30.1.0, SVG Export Plug-In . SVG Version: 2.1.1 Build 136)  -->
  <defs>
    <style>
      .st0 {
        fill: #00006b;
      }

      .st1 {
        fill: #0010a5;
      }

      .st2 {
        fill: #ff3b00;
      }

      .st3 {
        fill: #ff9400;
      }

      .st4 {
        fill: #8cc700;
      }

      .st5 {
        fill: #f60;
      }

      .st6 {
        fill: #e80000;
      }

      .st7 {
        fill: #005600;
      }

      .st8 {
        fill: #00a3c7;
      }

      .st9 {
        fill: #4c0050;
      }

      .st10 {
        fill: #00045b;
      }

      .st11 {
        fill: #006f00;
      }

      .st12 {
        fill: none;
      }

      .st13 {
        fill: #8b9a00;
      }

      .st14 {
        fill: red;
      }

      .st15 {
        fill: #c50000;
      }

      .st16 {
        fill: #fec500;
      }

      .st17 {
        fill: #ed2b00;
      }

      .st18 {
        fill: #0064b5;
      }

      .st19 {
        fill: #00408d;
      }

      .st20 {
        fill: #d60000;
      }

      .st21 {
        fill: #4c0000;
      }

      .st22 {
        fill: #002c00;
      }

      .st23 {
        fill: #c5007c;
      }

      .st24 {
        fill: #e66700;
      }

      .st25 {
        fill: #0fad00;
      }

      .st26 {
        fill: #fe7200;
      }

      .st27 {
        fill: #00004c;
      }

      .st28 {
        fill: #000034;
      }

      .st29 {
        fill: #6300a5;
      }

      .st30 {
        fill: #088700;
      }

      .st31 {
        fill: #f0ba00;
      }

      .st32 {
        fill: #000675;
      }

      .st33 {
        fill: #ff0;
      }
    </style>
  </defs>
  <g id="Layer_1-2">
    <g>
      <path class="st12" d="M34.4,31.8c-.2-.4-.4-.8-.4-1.2-.4-.2-.7-.5-1-.8-.4,0-.9,0-1.3-.2-.4.2-.8.4-1.2.5-.2.4-.5.7-.8,1,0,.4,0,.9-.2,1.3.2.4.4.8.4,1.2.4.2.7.5,1,.8.4,0,.9,0,1.3.2.4-.2.8-.4,1.2-.5.2-.4.5-.7.8-1,0-.4,0-.9.2-1.3Z"/>
      <path class="st3" d="M45.7,24.8l2.7,2,.4-4.4c0-1.6-1-3-2.5-3.1l-2.6-.2,1.8,4c.3.6.3,1.2.2,1.9h0v-.2Z"/>
      <path class="st3" d="M34.7,31.2l.3-.4c-.4,0-.7-.1-1-.3,0,.4.2.9.4,1.2,0-.2.2-.4.3-.5Z"/>
      <path class="st16" d="M34.4,31.8c-.2.4-.2.9-.2,1.3.2,0,.3-.2.5-.3l.4-.2c-.3-.2-.5-.5-.7-.8h0Z"/>
      <path class="st16" d="M50.6,28.3l-2.1-1.5-.4,4.4c0,.7-.3,1.2-.7,1.7l1.4,3.1,2.5-3.6c.9-1.3.6-3.1-.7-4h0Z"/>
      <path class="st26" d="M44.2,26.8l-7.8,3.7c-.5.2-.9.3-1.4.3l-.3.4c0,.2-.2.4-.3.5.2.3.4.6.7.8l7.3-3.5c1.4-.7,3.1,0,3.7,1.4l1.1,2.5c.4-.5.7-1,.7-1.7l.4-4.4-2.7-2c-.2.8-.7,1.6-1.5,2h0Z"/>
      <path class="st33" d="M44.9,40.7l-.3,3.4,3.9-1.9c1.4-.7,2-2.4,1.4-3.8l-1.1-2.4-2.4,3.6c-.4.5-.9.9-1.5,1.1h0Z"/>
      <path class="st33" d="M33.4,34.1h1.1c-.2-.3-.2-.6-.3-1-.4.3-.6.6-.8,1h0Z"/>
      <path class="st31" d="M45.1,33.8l-8.5-.8c-.5,0-1-.2-1.4-.5l-.4.2c-.2,0-.4.2-.5.3,0,.4,0,.7.3,1l8.1.7c1.5,0,2.7,1.5,2.5,3.1l-.2,2.7c.6-.2,1.1-.6,1.5-1.1l2.4-3.6-1.4-3.1c-.6.6-1.4,1-2.3.9h0v.2Z"/>
      <path class="st24" d="M42.5,29l-7.3,3.5c.4.3.8.5,1.4.5l8.5.8c.9,0,1.7-.3,2.3-.9l-1.1-2.5c-.7-1.4-2.3-2.1-3.7-1.4h-.1Z"/>
      <path class="st4" d="M32.8,34.8l.4.3c0-.4,0-.7.3-1-.4,0-.8.2-1.2.5.2,0,.4.2.5.3h0Z"/>
      <path class="st4" d="M39,46.1l-1.9,2.8,4.3.4c1.5,0,2.9-1,3-2.6l.2-2.6-3.8,1.9c-.6.3-1.2.3-1.8.2h0Z"/>
      <path class="st4" d="M42.5,40.3l-7-5c-.4-.3-.7-.7-.9-1.1h-1.1c-.2.3-.3.7-.3,1l6.6,4.8c1.3.9,1.6,2.7.7,4l-1.5,2.2c.6,0,1.2,0,1.8-.2l3.8-1.9.3-3.4c-.8.3-1.7,0-2.4-.4h0Z"/>
      <path class="st13" d="M35.4,35.2l7,5c.7.5,1.6.6,2.4.4l.2-2.7c0-1.6-1-3-2.5-3.1l-8.1-.7c.2.4.5.8.9,1.1h0Z"/>
      <path class="st25" d="M31.1,47.8l-3,1.5,3.5,2.5c1.3.9,3,.6,3.9-.7l1.5-2.2-4.2-.4c-.6,0-1.2-.3-1.7-.7Z"/>
      <path class="st25" d="M31,34.3c.1.2.2.3.3.5l.2.4c.2-.3.5-.6.7-.7-.4-.2-.8-.2-1.3-.2h0Z"/>
      <path class="st30" d="M37,44.5l-3.6-8c-.2-.5-.3-1-.3-1.5l-.4-.3c-.2,0-.3-.2-.5-.3-.3.2-.5.5-.7.7l3.4,7.6c.7,1.4,0,3.2-1.4,3.8l-2.4,1.2c.4.4,1,.7,1.7.7l4.2.4,1.9-2.8c-.8-.2-1.5-.7-1.9-1.6h0Z"/>
      <path class="st30" d="M33.4,36.6l3.6,8c.4.8,1.1,1.4,1.9,1.6l1.5-2.2c.9-1.3.6-3.1-.7-4l-6.6-4.8c0,.5,0,1,.3,1.5h0Z"/>
      <path class="st8" d="M23.6,45.3l-3.3-.3,1.8,4c.7,1.4,2.3,2.1,3.7,1.4l2.3-1.1-3.5-2.5c-.5-.4-.9-.9-1.1-1.5h.1Z"/>
      <path class="st8" d="M30,33.5v1.1c.3-.2.6-.2,1-.3-.3-.4-.6-.6-1-.8h0Z"/>
      <path class="st11" d="M30.3,45.4l.7-8.8c0-.5.2-1,.5-1.4l-.2-.4c0-.2-.2-.4-.3-.5-.4,0-.7,0-1,.3l-.7,8.3c-.1,1.6-1.5,2.8-3,2.6l-2.7-.2c.2.6.5,1.1,1.1,1.5l3.5,2.5,3-1.5c-.6-.6-1-1.4-.9-2.4h0Z"/>
      <path class="st7" d="M30.3,45.4c0,.9.3,1.8.9,2.4l2.4-1.2c1.4-.7,2-2.4,1.4-3.8l-3.4-7.6c-.3.4-.4.9-.5,1.4l-.7,8.8h-.1Z"/>
      <path class="st18" d="M29.3,32.8l-.3.4c.4,0,.7,0,1,.3,0-.4-.2-.9-.4-1.2,0,.2-.2.4-.3.5Z"/>
      <path class="st18" d="M18.3,39.2l-2.7-2-.4,4.4c-.1,1.6,1,3,2.5,3.1l2.6.2-1.8-4c-.3-.6-.3-1.2-.2-1.9h0v.2Z"/>
      <path class="st19" d="M23.9,42.8l4.9-7.2c.3-.4.7-.7,1.1-1v-1.1c-.3-.2-.7-.3-1-.3l-4.6,6.8c-.9,1.3-2.6,1.6-3.9.7l-2.2-1.6c-.1.6,0,1.2.2,1.9l1.8,4,3.3.3c-.2-.8-.1-1.7.4-2.5Z"/>
      <path class="st22" d="M28.9,35.5l-4.9,7.2c-.5.8-.6,1.7-.4,2.5l2.7.2c1.5,0,2.9-1,3-2.6l.7-8.3c-.4.2-.8.5-1.1,1h0Z"/>
      <path class="st1" d="M29.8,31c-.2.1-.3.2-.5.3l-.4.2c.3.2.5.5.7.8.2-.4.2-.9.2-1.3h0Z"/>
      <path class="st1" d="M16.6,31.1l-1.4-3.1-2.5,3.6c-.9,1.3-.6,3.1.7,4l2.1,1.5.4-4.4c0-.7.3-1.2.7-1.7h0Z"/>
      <path class="st32" d="M19.8,37.2l7.8-3.7c.5-.2.9-.3,1.4-.3l.3-.4c.1-.2.2-.4.3-.5-.2-.3-.4-.6-.7-.8l-7.3,3.5c-1.4.7-3.1,0-3.7-1.4l-1.1-2.5c-.4.5-.7,1-.7,1.7l-.4,4.4,2.7,2c.2-.8.7-1.6,1.5-2h0Z"/>
      <path class="st10" d="M27.6,33.4l-7.8,3.7c-.8.4-1.4,1.1-1.5,2l2.2,1.6c1.3.9,3,.6,3.9-.7l4.6-6.8c-.5,0-1,0-1.4.3h0Z"/>
      <path class="st29" d="M30.6,29.9h-1.1c.2.3.2.6.3,1,.4-.3.6-.6.8-1h0Z"/>
      <path class="st29" d="M19.1,23.3l.3-3.4-3.9,1.9c-1.4.7-2,2.4-1.4,3.8l1.1,2.4,2.4-3.6c.4-.5.9-.9,1.5-1.1h0Z"/>
      <path class="st0" d="M18.9,30.2l8.5.8c.5,0,1,.2,1.4.5l.4-.2c.2,0,.4-.2.5-.3,0-.4-.1-.7-.3-1l-8.1-.7c-1.5-.1-2.7-1.5-2.5-3.1l.2-2.7c-.6.2-1.1.6-1.5,1.1l-2.4,3.6,1.4,3.1c.6-.6,1.4-1,2.3-.9h0v-.2Z"/>
      <path class="st27" d="M18.9,30.2c-.9,0-1.7.3-2.3.9l1.1,2.5c.7,1.4,2.3,2.1,3.7,1.4l7.3-3.5c-.4-.3-.8-.5-1.4-.5l-8.5-.8h0Z"/>
      <path class="st23" d="M31.2,29.2l-.4-.3c0,.4-.1.7-.3,1,.4,0,.8-.2,1.2-.5-.2,0-.4-.2-.5-.3h0Z"/>
      <path class="st23" d="M25,17.9l1.9-2.8-4.3-.4c-1.5-.1-2.9,1-3,2.6l-.2,2.6,3.8-1.9c.6-.3,1.2-.3,1.8-.2h0Z"/>
      <path class="st9" d="M21.5,23.7l7,5c.4.3.7.7.9,1.1h1.1c.2-.3.3-.7.3-1l-6.6-4.8c-1.3-.9-1.6-2.7-.7-4l1.5-2.2c-.6-.1-1.2,0-1.8.2l-3.8,1.9-.3,3.4c.8-.3,1.7-.1,2.4.4h0Z"/>
      <path class="st28" d="M28.6,28.8l-7-5c-.7-.5-1.6-.6-2.4-.4l-.2,2.7c-.1,1.6,1,3,2.5,3.1l8.1.7c-.2-.4-.5-.8-.9-1.1h-.1Z"/>
      <path class="st14" d="M32.8,16.2l3-1.5-3.5-2.5c-1.3-.9-3-.6-3.9.7l-1.5,2.2,4.2.4c.6,0,1.2.3,1.7.7Z"/>
      <path class="st14" d="M33,29.7c0-.2-.2-.3-.3-.5l-.2-.4c-.2.3-.5.6-.7.7.4.2.8.2,1.3.2h0Z"/>
      <path class="st15" d="M27,19.5l3.6,8c.2.5.3,1,.3,1.5l.4.3c.2.1.3.2.5.3.3-.2.5-.5.7-.7l-3.4-7.6c-.7-1.4,0-3.2,1.4-3.8l2.4-1.2c-.4-.4-1-.7-1.7-.7l-4.2-.4-1.9,2.8c.8.2,1.5.7,1.9,1.6h0Z"/>
      <path class="st21" d="M30.6,27.4l-3.6-8c-.4-.8-1.1-1.4-1.9-1.6l-1.5,2.2c-.9,1.3-.6,3.1.7,4l6.6,4.8c0-.5,0-1-.3-1.5h0Z"/>
      <path class="st5" d="M34,30.5v-1.1c-.3.2-.6.2-1,.3.3.4.6.6,1,.8h0Z"/>
      <path class="st5" d="M40.4,18.7l3.3.3-1.8-4c-.7-1.4-2.3-2.1-3.7-1.4l-2.3,1.1,3.5,2.5c.5.4.9.9,1.1,1.5h0Z"/>
      <path class="st2" d="M40,21.2l-4.9,7.2c-.3.4-.7.7-1.1,1v1.1c.3.2.7.3,1,.3l4.6-6.8c.9-1.3,2.6-1.6,3.9-.7l2.2,1.6c0-.6,0-1.2-.2-1.9l-1.8-4-3.3-.3c.2.8,0,1.7-.4,2.5Z"/>
      <path class="st17" d="M36.4,30.6l7.8-3.7c.8-.4,1.4-1.1,1.5-2l-2.2-1.6c-1.3-.9-3-.6-3.9.7l-4.6,6.8c.5,0,1,0,1.4-.3h0Z"/>
      <path class="st6" d="M33.7,18.6l-.7,8.8c0,.5-.2,1-.5,1.4l.2.4c0,.2.2.4.3.5.4,0,.7-.1,1-.3l.7-8.3c0-1.6,1.5-2.8,3-2.6l2.7.2c-.2-.6-.5-1.1-1.1-1.5l-3.5-2.5-3,1.5c.6.6,1,1.4.9,2.4h0Z"/>
      <path class="st20" d="M35.1,28.5l4.9-7.2c.5-.8.6-1.7.4-2.5l-2.7-.2c-1.5-.1-2.9,1-3,2.6l-.7,8.3c.4-.2.8-.5,1.1-1h0Z"/>
      <path class="st15" d="M33.7,18.6c0-.9-.3-1.8-.9-2.4l-2.4,1.2c-1.4.7-2,2.4-1.4,3.8l3.4,7.6c.3-.4.4-.9.5-1.4l.7-8.8h0Z"/>
    </g>
  </g>
</svg>