<?xml version="1.0" encoding="UTF-8"?>
<svg id="Layer_2" data-name="Layer 2" xmlns="http://www.w3.org/2000/svg" viewBox="0 0 64 64">
  <defs>
    <style>
      .cls-1 {
        fill: #00006b;
      }

      .cls-2 {
        fill: #0010a5;
      }

      .cls-3 {
        fill: #ff3b00;
      }

      .cls-4 {
        fill: #ff9400;
      }

      .cls-5 {
        fill: #8cc700;
      }

      .cls-6 {
        fill: #f60;
      }

      .cls-7 {
        fill: #e80000;
      }

      .cls-8 {
        fill: #005600;
      }

      .cls-9 {
        fill: #00a3c7;
      }

      .cls-11 {
        fill: #4c0050;
      }

      .cls-12 {
        fill: #00045b;
      }

      .cls-13 {
        fill: #006f00;
      }

      .cls-14 {
        fill: none;
      }

      .cls-15 {
        fill: #8b9a00;
      }

      .cls-16 {
        fill: red;
      }

      .cls-17 {
        fill: #c50000;
      }

      .cls-18 {
        fill: #fec500;
      }

      .cls-19 {
        fill: #ed2b00;
      }

      .cls-20 {
        fill: #0064b5;
      }

      .cls-21 {
        fill: #00408d;
      }

      .cls-22 {
        fill: #d60000;
      }

      .cls-23 {
        fill: #4c0000;
      }

      .cls-24 {
        fill: #002c00;
      }

      .cls-25 {
        fill: #c5007c;
      }

      .cls-26 {
        fill: #e66700;
      }

      .cls-27 {
        fill: #0fad00;
      }

      .cls-28 {
        fill: #fe7200;
      }

      .cls-29 {
        fill: #00004c;
      }

      .cls-30 {
        fill: #000034;
      }

      .cls-31 {
        fill: #6300a5;
      }

      .cls-32 {
        fill: #088700;
      }

      .cls-33 {
        fill: #f0ba00;
      }

      .cls-34 {
        fill: #000675;
      }

      .cls-35 {
        fill: #ff0;
      }
    </style>
  </defs>
  <g id="Layer_1-2" data-name="Layer 1">
    <g>
      <g>
        <path class="cls-14" d="M35.69,31.63c-.35-.55-.59-1.17-.67-1.85-.57-.29-1.08-.71-1.48-1.25-.64.04-1.29-.06-1.89-.32-.53.36-1.14.61-1.8.69-.28.59-.69,1.11-1.22,1.52.04.65-.06,1.32-.31,1.95.35.55.59,1.17.67,1.85.57.29,1.08.71,1.48,1.25.64-.04,1.29.06,1.89.32.53-.36,1.14-.61,1.8-.69.28-.59.69-1.11,1.22-1.52-.04-.65.06-1.32.31-1.95Z"/>
        <path class="cls-4" d="M52.71,21.22l4.12,2.96.56-6.68c.2-2.39-1.52-4.49-3.84-4.69l-3.85-.34,2.71,5.96c.41.91.49,1.88.29,2.79Z"/>
        <path class="cls-4" d="M36.13,30.81l.41-.6c-.53-.05-1.04-.19-1.52-.43.08.67.32,1.3.67,1.85.11-.28.26-.56.44-.82Z"/>
        <path class="cls-18" d="M35.69,31.63c-.25.63-.36,1.29-.31,1.95.24-.19.5-.35.78-.48l.64-.31c-.44-.31-.81-.7-1.1-1.16Z"/>
        <path class="cls-18" d="M60.01,26.46l-3.17-2.28-.55,6.56c-.08,1-.49,1.88-1.1,2.57l2.13,4.69,3.74-5.5c1.33-1.96.87-4.66-1.04-6.04Z"/>
        <path class="cls-28" d="M50.38,24.2l-11.71,5.63c-.69.33-1.43.45-2.13.39l-.41.6c-.18.26-.32.54-.44.82.29.45.67.84,1.1,1.16l11.07-5.32c2.11-1.01,4.62-.08,5.61,2.09l1.71,3.75c.61-.68,1.02-1.57,1.1-2.57l.55-6.56-4.12-2.96c-.28,1.26-1.1,2.38-2.33,2.97Z"/>
        <path class="cls-35" d="M51.44,45.05l-.43,5.15,5.91-2.84c2.11-1.01,3.02-3.59,2.04-5.76l-1.64-3.6-3.67,5.4c-.56.82-1.34,1.38-2.2,1.65Z"/>
        <path class="cls-35" d="M34.16,35.1c.3-.04.6-.05.91-.02l.71.06c-.23-.49-.36-1.03-.39-1.57-.53.41-.94.94-1.22,1.52Z"/>
        <path class="cls-33" d="M51.72,34.69l-12.88-1.15c-.76-.07-1.46-.34-2.04-.76l-.64.31c-.28.13-.54.3-.78.48.03.54.17,1.07.39,1.57l12.17,1.08c2.32.21,4.04,2.31,3.84,4.69l-.35,4.13c.86-.28,1.65-.83,2.2-1.65l3.67-5.4-2.13-4.69c-.85.95-2.11,1.5-3.46,1.38Z"/>
        <path class="cls-26" d="M47.87,27.47l-11.07,5.32c.58.42,1.28.69,2.04.76l12.88,1.15c1.35.12,2.61-.43,3.46-1.38l-1.71-3.75c-.99-2.17-3.5-3.11-5.61-2.09Z"/>
        <path class="cls-5" d="M33.16,36.24l.58.42c.04-.54.19-1.07.42-1.56-.66.09-1.27.33-1.8.69.27.12.54.27.8.45Z"/>
        <path class="cls-5" d="M42.49,53.29l-2.88,4.24,6.5.58c2.32.21,4.36-1.56,4.57-3.94l.33-3.96-5.8,2.79c-.88.42-1.83.51-2.71.3Z"/>
        <path class="cls-5" d="M47.77,44.46l-10.6-7.61c-.63-.45-1.09-1.04-1.4-1.7l-.71-.06c-.31-.03-.61-.02-.91.02-.23.49-.38,1.02-.42,1.56l10.02,7.2c1.91,1.37,2.37,4.07,1.04,6.04l-2.31,3.39c.88.2,1.83.12,2.71-.3l5.8-2.79.43-5.15c-1.2.38-2.56.21-3.67-.59Z"/>
        <path class="cls-15" d="M37.17,36.85l10.6,7.61c1.11.8,2.47.97,3.67.59l.35-4.13c.2-2.39-1.52-4.49-3.84-4.69l-12.17-1.08c.3.66.77,1.25,1.4,1.7Z"/>
        <path class="cls-27" d="M30.72,55.82l-4.56,2.19,5.35,3.84c1.91,1.37,4.54.89,5.87-1.07l2.22-3.26-6.38-.57c-.97-.09-1.83-.5-2.5-1.13Z"/>
        <path class="cls-27" d="M30.47,35.47c.18.24.34.51.47.8l.3.66c.3-.45.69-.83,1.12-1.13-.61-.26-1.26-.37-1.89-.32Z"/>
        <path class="cls-32" d="M39.59,50.9l-5.47-12.04c-.32-.71-.44-1.47-.38-2.19l-.58-.42c-.25-.18-.52-.33-.8-.45-.44.3-.82.69-1.12,1.13l5.17,11.38c.99,2.17.07,4.75-2.04,5.76l-3.65,1.75c.66.63,1.53,1.05,2.5,1.13l6.38.57,2.88-4.24c-1.23-.29-2.32-1.13-2.89-2.39Z"/>
        <path class="cls-32" d="M34.12,38.86l5.47,12.04c.57,1.26,1.67,2.11,2.89,2.39l2.31-3.39c1.33-1.96.87-4.66-1.04-6.04l-10.02-7.2c-.06.73.06,1.48.38,2.19Z"/>
        <path class="cls-9" d="M19.31,51.98l-5.01-.45,2.76,6.07c.99,2.17,3.5,3.11,5.61,2.09l3.5-1.68-5.25-3.77c-.8-.57-1.34-1.38-1.61-2.26Z"/>
        <path class="cls-9" d="M28.98,34.22c.04.3.05.62.02.93l-.06.73c.48-.23,1-.37,1.53-.4-.4-.54-.91-.96-1.48-1.25Z"/>
        <path class="cls-13" d="M29.38,52.27l1.12-13.24c.07-.78.33-1.5.74-2.1l-.3-.66c-.13-.29-.29-.55-.47-.8-.53.04-1.04.17-1.53.4l-1.06,12.51c-.2,2.39-2.25,4.15-4.57,3.94l-4.01-.36c.27.89.81,1.69,1.61,2.26l5.25,3.77,4.56-2.19c-.92-.88-1.46-2.17-1.34-3.56Z"/>
        <path class="cls-8" d="M29.38,52.27c-.12,1.39.42,2.68,1.34,3.56l3.65-1.75c2.11-1.01,3.02-3.59,2.04-5.76l-5.17-11.38c-.41.6-.67,1.32-.74,2.1l-1.12,13.24Z"/>
        <path class="cls-20" d="M27.87,33.19l-.41.6c.53.05,1.04.19,1.52.43-.08-.67-.32-1.3-.67-1.85-.11.28-.26.56-.44.82Z"/>
        <path class="cls-20" d="M11.29,42.78l-4.12-2.96-.56,6.68c-.2,2.39,1.52,4.49,3.84,4.69l3.85.34-2.71-5.96c-.41-.91-.49-1.88-.29-2.79Z"/>
        <path class="cls-21" d="M19.87,48.21l7.41-10.89c.44-.64,1.01-1.13,1.66-1.44l.06-.73c.03-.32.02-.63-.02-.93-.47-.24-.99-.39-1.52-.43l-7,10.29c-1.33,1.96-3.96,2.44-5.87,1.07l-3.3-2.37c-.2.91-.12,1.88.29,2.79l2.71,5.96,5.01.45c-.37-1.24-.21-2.63.57-3.77Z"/>
        <path class="cls-24" d="M27.28,37.31l-7.41,10.89c-.78,1.14-.94,2.54-.57,3.77l4.01.36c2.32.21,4.36-1.56,4.57-3.94l1.06-12.51c-.64.31-1.22.79-1.66,1.44Z"/>
        <path class="cls-2" d="M28.62,30.42c-.24.19-.5.35-.78.48l-.64.31c.44.31.81.7,1.1,1.16.25-.63.36-1.29.31-1.95Z"/>
        <path class="cls-2" d="M8.82,30.69l-2.13-4.69-3.74,5.5c-1.33,1.96-.87,4.66,1.04,6.04l3.17,2.28.55-6.56c.08-1,.49-1.88,1.1-2.57Z"/>
        <path class="cls-34" d="M13.62,39.8l11.71-5.63c.69-.33,1.43-.45,2.13-.39l.41-.6c.18-.26.32-.54.44-.82-.29-.45-.67-.84-1.1-1.16l-11.07,5.32c-2.11,1.01-4.62.08-5.61-2.09l-1.71-3.75c-.61.68-1.02,1.57-1.1,2.57l-.55,6.56,4.12,2.96c.28-1.26,1.1-2.38,2.33-2.97Z"/>
        <path class="cls-12" d="M25.33,34.18l-11.71,5.63c-1.23.59-2.05,1.71-2.33,2.97l3.3,2.37c1.91,1.37,4.54.89,5.87-1.07l7-10.29c-.71-.06-1.44.06-2.13.39Z"/>
        <path class="cls-31" d="M29.84,28.9c-.3.04-.6.05-.91.02l-.71-.06c.23.49.36,1.03.39,1.57.53-.41.94-.94,1.22-1.52Z"/>
        <path class="cls-31" d="M12.56,18.95l.43-5.15-5.91,2.84c-2.11,1.01-3.02,3.59-2.04,5.76l1.64,3.6,3.67-5.4c.56-.82,1.34-1.38,2.2-1.65Z"/>
        <path class="cls-1" d="M12.28,29.31l12.88,1.15c.76.07,1.46.34,2.04.76l.64-.31c.28-.13.54-.3.78-.48-.03-.54-.17-1.07-.39-1.57l-12.17-1.08c-2.32-.21-4.04-2.31-3.84-4.69l.35-4.13c-.86.28-1.65.83-2.2,1.65l-3.67,5.4,2.13,4.69c.85-.95,2.11-1.5,3.46-1.38Z"/>
        <path class="cls-29" d="M12.28,29.31c-1.35-.12-2.61.43-3.46,1.38l1.71,3.75c.99,2.17,3.5,3.11,5.61,2.09l11.07-5.32c-.58-.42-1.28-.69-2.04-.76l-12.88-1.15Z"/>
        <path class="cls-25" d="M30.84,27.76l-.58-.42c-.04.54-.19,1.07-.42,1.56.66-.09,1.27-.33,1.8-.69-.27-.12-.54-.27-.8-.45Z"/>
        <path class="cls-25" d="M21.51,10.71l2.88-4.24-6.5-.58c-2.32-.21-4.36,1.56-4.57,3.94l-.33,3.96,5.8-2.79c.88-.42,1.83-.51,2.71-.3Z"/>
        <path class="cls-11" d="M16.23,19.54l10.6,7.61c.63.45,1.09,1.04,1.4,1.7l.71.06c.31.03.61.02.91-.02.23-.49.38-1.02.42-1.56l-10.02-7.2c-1.91-1.37-2.37-4.07-1.04-6.04l2.31-3.39c-.88-.2-1.83-.12-2.71.3l-5.8,2.79-.43,5.15c1.2-.38,2.56-.21,3.67.59Z"/>
        <path class="cls-30" d="M26.83,27.15l-10.6-7.61c-1.11-.8-2.47-.97-3.67-.59l-.35,4.13c-.2,2.39,1.52,4.49,3.84,4.69l12.17,1.08c-.3-.66-.77-1.25-1.4-1.7Z"/>
        <path class="cls-16" d="M33.28,8.18l4.56-2.19-5.35-3.84c-1.91-1.37-4.54-.89-5.87,1.07l-2.22,3.26,6.38.57c.97.09,1.83.5,2.5,1.13Z"/>
        <path class="cls-16" d="M33.53,28.53c-.18-.24-.34-.51-.47-.8l-.3-.66c-.3.45-.69.83-1.12,1.13.61.26,1.26.37,1.89.32Z"/>
        <path class="cls-17" d="M24.41,13.1l5.47,12.04c.32.71.44,1.47.38,2.19l.58.42c.25.18.52.33.8.45.44-.3.82-.69,1.12-1.13l-5.17-11.38c-.99-2.17-.07-4.75,2.04-5.76l3.65-1.75c-.66-.63-1.53-1.05-2.5-1.13l-6.38-.57-2.88,4.24c1.23.29,2.32,1.13,2.89,2.39Z"/>
        <path class="cls-23" d="M29.88,25.14l-5.47-12.04c-.57-1.26-1.67-2.11-2.89-2.39l-2.31,3.39c-1.33,1.96-.87,4.66,1.04,6.04l10.02,7.2c.06-.73-.06-1.48-.38-2.19Z"/>
        <path class="cls-6" d="M35.02,29.78c-.04-.3-.05-.62-.02-.93l.06-.73c-.48.23-1,.37-1.53.4.4.54.91.96,1.48,1.25Z"/>
        <path class="cls-6" d="M44.69,12.02l5.01.45-2.76-6.07c-.99-2.17-3.5-3.11-5.61-2.09l-3.5,1.68,5.25,3.77c.8.57,1.34,1.38,1.61,2.26Z"/>
        <path class="cls-3" d="M44.13,15.79l-7.41,10.89c-.44.64-1.01,1.13-1.66,1.44l-.06.73c-.03.32-.02.63.02.93.47.24.99.39,1.52.43l7-10.29c1.33-1.96,3.96-2.44,5.87-1.07l3.3,2.37c.2-.91.12-1.88-.29-2.79l-2.71-5.96-5.01-.45c.37,1.24.21,2.63-.57,3.77Z"/>
        <path class="cls-19" d="M38.67,29.82l11.71-5.63c1.23-.59,2.05-1.71,2.33-2.97l-3.3-2.37c-1.91-1.37-4.54-.89-5.87,1.07l-7,10.29c.71.06,1.44-.06,2.13-.39Z"/>
        <path class="cls-7" d="M34.62,11.73l-1.12,13.24c-.07.78-.33,1.5-.74,2.1l.3.66c.13.29.29.55.47.8.53-.04,1.04-.17,1.53-.4l1.06-12.51c.2-2.39,2.25-4.15,4.57-3.94l4.01.36c-.27-.89-.81-1.69-1.61-2.26l-5.25-3.77-4.56,2.19c.92.88,1.46,2.17,1.34,3.56Z"/>
        <path class="cls-22" d="M36.72,26.69l7.41-10.89c.78-1.14.94-2.54.57-3.77l-4.01-.36c-2.32-.21-4.36,1.56-4.57,3.94l-1.06,12.51c.64-.31,1.22-.79,1.66-1.44Z"/>
        <path class="cls-17" d="M34.62,11.73c.12-1.39-.42-2.68-1.34-3.56l-3.65,1.75c-2.11,1.01-3.02,3.59-2.04,5.76l5.17,11.38c.41-.6.67-1.32.74-2.1l1.12-13.24Z"/>
      </g>
    </g>
  </g>
</svg>
