<?xml version="1.0" encoding="UTF-8"?>
<svg id="Layer_2" xmlns="http://www.w3.org/2000/svg" viewBox="0 0 972.82 112.57">
  <defs>
    <style>
      .cls-1 {
        fill: #00006b;
      }

      .cls-2 {
        fill: #0010a5;
      }

      .cls-3 {
        fill: #ff3b00;
      }

      .cls-4 {
        fill: #ff9400;
      }

      .cls-5 {
        fill: #8cc700;
      }

      .cls-6 {
        fill: #f60;
      }

      .cls-7 {
        fill: #e80000;
      }

      .cls-8 {
        fill: #005600;
      }

      .cls-9 {
        fill: #00a3c7;
      }

      .cls-10 {
        fill: #4c0050;
      }

      .cls-11 {
        fill: #00045b;
      }

      .cls-12 {
        fill: #006f00;
      }

      .cls-13 {
        fill: none;
      }

      .cls-14 {
        fill: #8b9a00;
      }

      .cls-15 {
        fill: red;
      }

      .cls-16 {
        fill: #c50000;
      }

      .cls-17 {
        fill: #fec500;
      }

      .cls-18 {
        fill: #ed2b00;
      }

      .cls-19 {
        fill: #0064b5;
      }

      .cls-20 {
        fill: #00408d;
      }

      .cls-21 {
        fill: #d60000;
      }

      .cls-22 {
        fill: #4c0000;
      }

      .cls-23 {
        fill: #002c00;
      }

      .cls-24 {
        fill: #c5007c;
      }

      .cls-25 {
        fill: #e66700;
      }

      .cls-26 {
        fill: #0fad00;
      }

      .cls-27 {
        fill: #fe7200;
      }

      .cls-28 {
        fill: #00004c;
      }

      .cls-29 {
        fill: #000034;
      }

      .cls-30 {
        fill: #6300a5;
      }

      .cls-31 {
        fill: #088700;
      }

      .cls-32 {
        fill: #f0ba00;
      }

      .cls-33 {
        fill: #000675;
      }

      .cls-34 {
        fill: #ff0;
      }
    </style>
  </defs>
  <g id="Artboard_3">
    <g>
      <g>
        <path d="M266.16,110.61V1.16h30.31v109.45h-30.31Z"/>
        <path d="M0,110.61V1.8h44.72c31.51,0,54.93,19.58,54.93,54.33s-23.41,54.49-54.78,54.49H0ZM30.31,81.9h14.41c15.16,0,24.16-12.07,24.16-25.78,0-14.68-7.8-25.61-24.01-25.61h-14.56v51.39Z"/>
        <path d="M110.68,110.61V1.8h30.31v108.82h-30.31Z"/>
        <path d="M206.87,0c23.26,0,37.07,12.72,43.97,26.76l-25.51,14.19c-3.3-6.69-9.9-11.91-18.46-11.91-14.56,0-24.31,12.07-24.31,27.24s9.75,27.24,24.31,27.24c6.45,0,12.46-1.8,16.36-4.89v-4.73h-19.36v-27.08h48.77v43.72c-11.11,13.38-26.11,22.02-45.77,22.02-30.31,0-55.07-21.54-55.07-56.28S176.56,0,206.87,0Z"/>
      </g>
      <g>
        <g>
          <path d="M314.27,88.26c6.28,8.16,16.5,15.82,30.37,15.82,20,0,25.7-12.4,25.7-21.7,0-15.34-12.99-19.58-26.72-23.66-15.33-4.73-31.68-9.63-31.68-29.69C311.93,11.26,326.24,0,343.91,0,358.51,0,369.31,5.71,376.9,15.34l-5.55,6.85c-7.01-9.46-16.94-13.7-27.89-13.7-12.99,0-22.78,8.32-22.78,20.07,0,12.89,12.12,16.64,25.4,20.56,15.77,5.06,33,10.6,33,32.63,0,14.03-8.32,30.84-34.6,30.84-16.06,0-28.18-7.18-35.63-17.29l5.4-7.01Z"/>
          <path d="M473.71,110.61l-23.36-93.48-23.36,93.48h-9.34L389.75,1.8h9.34l23.51,95.76L446.55,1.8h7.59l23.8,95.76L501.45,1.8h9.34l-27.74,108.82h-9.34Z"/>
          <path d="M589.35,110.61l-9.78-26.76h-51.83l-9.78,26.76h-9.34L548.47,1.8h10.37l39.86,108.82h-9.34ZM553.58,10.93l-23.21,64.44h46.58l-23.36-64.44Z"/>
          <path d="M627.75,110.61V10.28h-31.83V1.8h72.13v8.48h-31.83v100.33h-8.47Z"/>
          <path d="M677.4,56.28C677.4,22.84,699.15,0,726.46,0,742.23,0,753.91,7.67,762.23,19.25l-7.01,5.06c-6.13-9.46-16.79-15.82-28.76-15.82-22.63,0-40.3,19.41-40.3,47.8s17.67,47.8,40.3,47.8c11.97,0,22.63-6.36,28.76-15.82l7.01,4.89c-8.61,11.91-20,19.41-35.77,19.41-27.3,0-49.06-22.84-49.06-56.28Z"/>
          <path d="M849.25,110.61v-51.72h-61.76v51.72h-8.32V1.8h8.32v48.62h61.76V1.8h8.47v108.82h-8.47Z"/>
        </g>
        <g>
          <path class="cls-13" d="M929.14,55.58c-.59-.91-.99-1.96-1.13-3.09-.96-.48-1.81-1.19-2.48-2.1-1.06.07-2.15-.1-3.17-.54-.89.61-1.91,1.02-3.01,1.16-.47.98-1.16,1.86-2.04,2.55.07,1.09-.1,2.21-.53,3.26.59.91.99,1.96,1.13,3.09.96.48,1.81,1.19,2.48,2.1,1.06-.07,2.15.1,3.17.54.89-.61,1.91-1.02,3.01-1.16.47-.98,1.16-1.86,2.04-2.55-.07-1.09.1-2.21.53-3.26Z"/>
          <path class="cls-4" d="M957.61,38.18l6.9,4.96.94-11.17c.34-3.99-2.54-7.5-6.42-7.85l-6.45-.57,4.54,9.98c.69,1.52.82,3.15.49,4.66Z"/>
          <path class="cls-4" d="M929.87,54.22l.68-1c-.89-.08-1.75-.32-2.54-.73.14,1.13.54,2.18,1.13,3.09.19-.47.43-.93.73-1.37Z"/>
          <path class="cls-17" d="M929.14,55.58c-.43,1.05-.6,2.16-.53,3.26.4-.31.83-.58,1.3-.81l1.07-.52c-.73-.52-1.36-1.18-1.85-1.93Z"/>
          <path class="cls-17" d="M969.81,46.94l-5.3-3.81-.93,10.97c-.14,1.67-.82,3.15-1.85,4.29l3.56,7.84,6.25-9.19c2.23-3.28,1.45-7.8-1.74-10.1Z"/>
          <path class="cls-27" d="M953.71,43.15l-19.59,9.41c-1.16.56-2.38.76-3.57.66l-.68,1c-.3.44-.54.89-.73,1.37.49.75,1.12,1.41,1.85,1.93l18.52-8.89c3.53-1.7,7.73-.13,9.38,3.5l2.85,6.27c1.03-1.14,1.71-2.62,1.85-4.29l.93-10.97-6.9-4.96c-.46,2.11-1.84,3.99-3.89,4.97Z"/>
          <path class="cls-34" d="M955.47,78.03l-.73,8.62,9.89-4.75c3.53-1.7,5.05-6.01,3.4-9.64l-2.74-6.03-6.14,9.03c-.93,1.37-2.24,2.31-3.69,2.77Z"/>
          <path class="cls-34" d="M926.57,61.39c.49-.07,1-.08,1.52-.03l1.18.11c-.38-.83-.6-1.72-.66-2.62-.88.69-1.57,1.57-2.04,2.55Z"/>
          <path class="cls-32" d="M955.94,60.7l-21.55-1.92c-1.27-.11-2.43-.57-3.41-1.27l-1.07.52c-.47.23-.9.5-1.3.81.06.91.28,1.8.66,2.62l20.36,1.81c3.88.35,6.76,3.86,6.42,7.85l-.58,6.9c1.44-.46,2.75-1.4,3.69-2.77l6.14-9.03-3.56-7.84c-1.43,1.59-3.53,2.51-5.79,2.31Z"/>
          <path class="cls-25" d="M949.5,48.62l-18.52,8.89c.98.7,2.14,1.15,3.41,1.27l21.55,1.92c2.26.2,4.36-.72,5.79-2.31l-2.85-6.27c-1.65-3.63-5.85-5.19-9.38-3.5Z"/>
          <path class="cls-5" d="M924.9,63.3l.97.7c.07-.91.31-1.8.71-2.61-1.1.15-2.12.55-3.01,1.16.46.2.91.45,1.33.75Z"/>
          <path class="cls-5" d="M940.5,91.81l-4.82,7.09,10.87.97c3.88.35,7.3-2.61,7.64-6.6l.56-6.63-9.71,4.66c-1.47.71-3.07.85-4.54.5Z"/>
          <path class="cls-5" d="M949.33,77.05l-17.73-12.73c-1.05-.75-1.83-1.74-2.34-2.85l-1.18-.11c-.52-.05-1.02-.03-1.52.03-.39.81-.63,1.7-.71,2.61l16.75,12.04c3.19,2.29,3.97,6.81,1.74,10.1l-3.86,5.68c1.47.34,3.06.21,4.54-.5l9.71-4.66.73-8.62c-2.01.64-4.28.36-6.14-.98Z"/>
          <path class="cls-14" d="M931.61,64.31l17.73,12.73c1.86,1.34,4.13,1.62,6.14.98l.58-6.9c.34-3.99-2.54-7.5-6.42-7.85l-20.36-1.81c.51,1.11,1.29,2.1,2.34,2.85Z"/>
          <path class="cls-26" d="M920.83,96.05l-7.63,3.66,8.94,6.43c3.19,2.29,7.59,1.49,9.82-1.79l3.71-5.45-10.67-.95c-1.62-.14-3.07-.84-4.17-1.9Z"/>
          <path class="cls-26" d="M920.4,62.01c.3.41.57.85.79,1.33l.5,1.1c.51-.75,1.15-1.39,1.88-1.9-1.02-.44-2.1-.61-3.17-.54Z"/>
          <path class="cls-31" d="M935.66,87.81l-9.16-20.14c-.54-1.19-.74-2.45-.64-3.67l-.97-.7c-.42-.3-.87-.55-1.33-.75-.73.5-1.37,1.15-1.88,1.9l8.65,19.03c1.65,3.63.13,7.94-3.4,9.64l-6.1,2.93c1.11,1.05,2.55,1.75,4.17,1.9l10.67.95,4.82-7.09c-2.05-.48-3.88-1.89-4.84-4Z"/>
          <path class="cls-31" d="M926.51,67.67l9.16,20.14c.96,2.11,2.79,3.52,4.84,4l3.86-5.68c2.23-3.28,1.45-7.8-1.74-10.1l-16.75-12.04c-.1,1.22.1,2.48.64,3.67Z"/>
          <path class="cls-9" d="M901.73,89.62l-8.39-.75,4.62,10.16c1.65,3.63,5.85,5.19,9.38,3.5l5.86-2.82-8.78-6.31c-1.33-.96-2.24-2.31-2.69-3.79Z"/>
          <path class="cls-9" d="M917.92,59.91c.06.51.08,1.03.03,1.56l-.1,1.21c.8-.39,1.67-.62,2.55-.68-.67-.9-1.52-1.61-2.48-2.1Z"/>
          <path class="cls-12" d="M918.58,90.1l1.87-22.14c.11-1.31.55-2.5,1.23-3.51l-.5-1.1c-.22-.48-.48-.93-.79-1.33-.88.06-1.75.29-2.55.68l-1.77,20.93c-.34,3.99-3.76,6.94-7.64,6.6l-6.71-.6c.45,1.48,1.36,2.83,2.69,3.79l8.78,6.31,7.63-3.66c-1.55-1.47-2.44-3.63-2.24-5.95Z"/>
          <path class="cls-8" d="M918.58,90.1c-.2,2.32.7,4.48,2.24,5.95l6.1-2.93c3.53-1.7,5.05-6.01,3.4-9.64l-8.65-19.03c-.68,1.01-1.12,2.2-1.23,3.51l-1.87,22.14Z"/>
          <path class="cls-19" d="M916.06,58.19l-.68,1c.89.08,1.75.32,2.54.73-.14-1.13-.54-2.18-1.13-3.09-.19.47-.43.93-.73,1.37Z"/>
          <path class="cls-19" d="M888.32,74.23l-6.9-4.96-.94,11.17c-.34,3.99,2.54,7.5,6.42,7.85l6.45.57-4.54-9.98c-.69-1.52-.82-3.15-.49-4.66Z"/>
          <path class="cls-20" d="M902.68,83.31l12.39-18.22c.73-1.08,1.7-1.88,2.77-2.4l.1-1.21c.04-.53.03-1.05-.03-1.56-.79-.4-1.65-.65-2.54-.73l-11.71,17.22c-2.23,3.28-6.63,4.08-9.82,1.79l-5.52-3.97c-.33,1.51-.2,3.15.49,4.66l4.54,9.98,8.39.75c-.62-2.07-.35-4.4.95-6.31Z"/>
          <path class="cls-23" d="M915.07,65.09l-12.39,18.22c-1.3,1.91-1.58,4.24-.95,6.31l6.71.6c3.88.35,7.3-2.61,7.64-6.6l1.77-20.93c-1.08.52-2.04,1.33-2.77,2.4Z"/>
          <path class="cls-2" d="M917.31,53.57c-.4.31-.83.58-1.3.81l-1.07.52c.73.52,1.36,1.18,1.85,1.93.43-1.05.6-2.16.53-3.26Z"/>
          <path class="cls-2" d="M884.19,54.01l-3.56-7.84-6.25,9.19c-2.23,3.28-1.45,7.8,1.74,10.1l5.3,3.81.93-10.97c.14-1.67.82-3.15,1.85-4.29Z"/>
          <path class="cls-33" d="M892.21,69.26l19.59-9.41c1.16-.56,2.38-.76,3.57-.66l.68-1c.3-.44.54-.89.73-1.37-.49-.75-1.12-1.41-1.85-1.93l-18.52,8.89c-3.53,1.7-7.73.13-9.38-3.5l-2.85-6.27c-1.03,1.14-1.71,2.62-1.85,4.29l-.93,10.97,6.9,4.96c.46-2.11,1.84-3.99,3.89-4.97Z"/>
          <path class="cls-11" d="M911.81,59.85l-19.59,9.41c-2.06.99-3.43,2.86-3.89,4.97l5.52,3.97c3.19,2.29,7.59,1.49,9.82-1.79l11.71-17.22c-1.19-.1-2.41.1-3.57.66Z"/>
          <path class="cls-30" d="M919.35,51.02c-.49.07-1,.08-1.52.03l-1.18-.11c.38.83.6,1.72.66,2.62.88-.69,1.57-1.57,2.04-2.55Z"/>
          <path class="cls-30" d="M890.45,34.38l.73-8.62-9.89,4.75c-3.53,1.7-5.05,6.01-3.4,9.64l2.74,6.03,6.14-9.03c.93-1.37,2.24-2.31,3.69-2.77Z"/>
          <path class="cls-1" d="M889.98,51.7l21.55,1.92c1.27.11,2.43.57,3.41,1.27l1.07-.52c.47-.23.9-.5,1.3-.81-.06-.91-.28-1.8-.66-2.62l-20.36-1.81c-3.88-.35-6.76-3.86-6.42-7.85l.58-6.9c-1.44.46-2.75,1.4-3.69,2.77l-6.14,9.03,3.56,7.84c1.43-1.59,3.53-2.51,5.79-2.31Z"/>
          <path class="cls-28" d="M889.98,51.7c-2.26-.2-4.36.72-5.79,2.31l2.85,6.27c1.65,3.63,5.85,5.19,9.38,3.5l18.52-8.89c-.98-.7-2.14-1.15-3.41-1.27l-21.55-1.92Z"/>
          <path class="cls-24" d="M921.03,49.1l-.97-.7c-.07.91-.31,1.8-.71,2.61,1.1-.15,2.12-.55,3.01-1.16-.46-.2-.91-.45-1.33-.75Z"/>
          <path class="cls-24" d="M905.42,20.6l4.82-7.09-10.87-.97c-3.88-.35-7.3,2.61-7.64,6.6l-.56,6.63,9.71-4.66c1.47-.71,3.07-.85,4.54-.5Z"/>
          <path class="cls-10" d="M896.59,35.36l17.73,12.73c1.05.75,1.83,1.74,2.34,2.85l1.18.11c.52.05,1.02.03,1.52-.03.39-.81.63-1.7.71-2.61l-16.75-12.04c-3.19-2.29-3.97-6.81-1.74-10.1l3.86-5.68c-1.47-.34-3.06-.21-4.54.5l-9.71,4.66-.73,8.62c2.01-.64,4.28-.36,6.14.98Z"/>
          <path class="cls-29" d="M914.32,48.09l-17.73-12.73c-1.86-1.34-4.13-1.62-6.14-.98l-.58,6.9c-.34,3.99,2.54,7.5,6.42,7.85l20.36,1.81c-.51-1.11-1.29-2.1-2.34-2.85Z"/>
          <path class="cls-15" d="M925.1,16.35l7.63-3.66-8.94-6.43c-3.19-2.29-7.59-1.49-9.82,1.79l-3.71,5.45,10.67.95c1.62.14,3.07.84,4.17,1.9Z"/>
          <path class="cls-15" d="M925.53,50.4c-.3-.41-.57-.85-.79-1.33l-.5-1.1c-.51.75-1.15,1.39-1.88,1.9,1.02.44,2.1.61,3.17.54Z"/>
          <path class="cls-16" d="M910.26,24.6l9.16,20.14c.54,1.19.74,2.45.64,3.67l.97.7c.42.3.87.55,1.33.75.73-.5,1.37-1.15,1.88-1.9l-8.65-19.03c-1.65-3.63-.13-7.94,3.4-9.64l6.1-2.93c-1.11-1.05-2.55-1.75-4.17-1.9l-10.67-.95-4.82,7.09c2.05.48,3.88,1.89,4.84,4Z"/>
          <path class="cls-22" d="M919.42,44.74l-9.16-20.14c-.96-2.11-2.79-3.52-4.84-4l-3.86,5.68c-2.23,3.28-1.45,7.8,1.74,10.1l16.75,12.04c.1-1.22-.1-2.48-.64-3.67Z"/>
          <path class="cls-6" d="M928.01,52.49c-.06-.51-.08-1.03-.03-1.56l.1-1.21c-.8.39-1.67.62-2.55.68.67.9,1.52,1.61,2.48,2.1Z"/>
          <path class="cls-6" d="M944.2,22.79l8.39.75-4.62-10.16c-1.65-3.63-5.85-5.19-9.38-3.5l-5.86,2.82,8.78,6.31c1.33.96,2.24,2.31,2.69,3.79Z"/>
          <path class="cls-3" d="M943.24,29.1l-12.39,18.22c-.73,1.08-1.7,1.88-2.77,2.4l-.1,1.21c-.04.53-.03,1.05.03,1.56.79.4,1.65.65,2.54.73l11.71-17.22c2.23-3.28,6.63-4.08,9.82-1.79l5.52,3.97c.33-1.51.2-3.15-.49-4.66l-4.54-9.98-8.39-.75c.62,2.07.35,4.4-.95,6.31Z"/>
          <path class="cls-18" d="M934.12,52.56l19.59-9.41c2.06-.99,3.43-2.86,3.89-4.97l-5.52-3.97c-3.19-2.29-7.59-1.49-9.82,1.79l-11.71,17.22c1.19.1,2.41-.1,3.57-.66Z"/>
          <path class="cls-7" d="M927.34,22.31l-1.87,22.14c-.11,1.31-.55,2.5-1.23,3.51l.5,1.1c.22.48.48.93.79,1.33.88-.06,1.75-.29,2.55-.68l1.77-20.93c.34-3.99,3.76-6.94,7.64-6.6l6.71.6c-.45-1.48-1.36-2.83-2.69-3.79l-8.78-6.31-7.63,3.66c1.55,1.47,2.44,3.63,2.24,5.95Z"/>
          <path class="cls-21" d="M930.85,47.32l12.39-18.22c1.3-1.91,1.58-4.24.95-6.31l-6.71-.6c-3.88-.35-7.3,2.61-7.64,6.6l-1.77,20.93c1.08-.52,2.04-1.33,2.77-2.4Z"/>
          <path class="cls-16" d="M927.34,22.31c.2-2.32-.7-4.48-2.24-5.95l-6.1,2.93c-3.53,1.7-5.05,6.01-3.4,9.64l8.65,19.03c.68-1.01,1.12-2.2,1.23-3.51l1.87-22.14Z"/>
        </g>
      </g>
    </g>
  </g>
</svg>