<?xml version="1.0" encoding="UTF-8"?>
<svg id="Layer_2" xmlns="http://www.w3.org/2000/svg" viewBox="0 0 642.84 357.49">
  <defs>
    <style>
      .cls-1 {
        fill: #00006b;
      }

      .cls-2 {
        fill: #0010a5;
      }

      .cls-3 {
        fill: #ff3b00;
      }

      .cls-4 {
        fill: #ff9400;
      }

      .cls-5 {
        fill: #8cc700;
      }

      .cls-6 {
        fill: #f60;
      }

      .cls-7 {
        fill: #e80000;
      }

      .cls-8 {
        fill: #005600;
      }

      .cls-9 {
        fill: #00a3c7;
      }

      .cls-10 {
        fill: #fff;
      }

      .cls-11 {
        fill: #4c0050;
      }

      .cls-12 {
        fill: #00045b;
      }

      .cls-13 {
        fill: #006f00;
      }

      .cls-14 {
        fill: none;
      }

      .cls-15 {
        fill: #8b9a00;
      }

      .cls-16 {
        fill: red;
      }

      .cls-17 {
        fill: #c50000;
      }

      .cls-18 {
        fill: #fec500;
      }

      .cls-19 {
        fill: #ed2b00;
      }

      .cls-20 {
        fill: #0064b5;
      }

      .cls-21 {
        fill: #00408d;
      }

      .cls-22 {
        fill: #d60000;
      }

      .cls-23 {
        fill: #4c0000;
      }

      .cls-24 {
        fill: #002c00;
      }

      .cls-25 {
        fill: #c5007c;
      }

      .cls-26 {
        fill: #e66700;
      }

      .cls-27 {
        fill: #0fad00;
      }

      .cls-28 {
        fill: #fe7200;
      }

      .cls-29 {
        fill: #00004c;
      }

      .cls-30 {
        fill: #000034;
      }

      .cls-31 {
        fill: #6300a5;
      }

      .cls-32 {
        fill: #088700;
      }

      .cls-33 {
        fill: #f0ba00;
      }

      .cls-34 {
        fill: #000675;
      }

      .cls-35 {
        fill: #ff0;
      }
    </style>
  </defs>
  <g id="Artboard_3">
    <g>
      <g>
        <path class="cls-10" d="M561.24,233.18V2.45h63.91v230.74h-63.91Z"/>
        <path class="cls-10" d="M.15,233.18V3.78h94.28c66.44,0,115.79,41.27,115.79,114.53s-49.35,114.87-115.47,114.87H.15ZM64.06,172.65h30.37c31.95,0,50.93-25.45,50.93-54.34,0-30.95-16.45-54-50.62-54h-30.69v108.34Z"/>
        <path class="cls-10" d="M233.47,233.18V3.78h63.91v229.4h-63.91Z"/>
        <path class="cls-10" d="M436.27,0c49.04,0,78.14,26.83,92.7,56.41l-53.78,29.92c-6.96-14.1-20.88-25.11-38.91-25.11-30.69,0-51.25,25.45-51.25,57.44s20.56,57.44,51.25,57.44c13.6,0,26.26-3.78,34.48-10.32v-9.97h-40.81v-57.09h102.82v92.17c-23.41,28.2-55.05,46.43-96.49,46.43-63.9,0-116.11-45.4-116.11-118.66S372.36,0,436.27,0Z"/>
      </g>
      <g>
        <path class="cls-10" d="M5.23,334.6c6.08,7.68,15.97,14.91,29.4,14.91,19.37,0,24.88-11.68,24.88-20.44,0-14.45-12.58-18.44-25.87-22.28-14.84-4.46-30.68-9.07-30.68-27.97,0-16.75,13.85-27.36,30.96-27.36,14.14,0,24.6,5.38,31.95,14.45l-5.37,6.45c-6.78-8.91-16.4-12.91-27-12.91-12.58,0-22.05,7.84-22.05,18.9,0,12.14,11.73,15.68,24.6,19.36,15.27,4.76,31.95,9.99,31.95,30.74,0,13.22-8.06,29.05-33.5,29.05-15.55,0-27.28-6.76-34.49-16.29l5.23-6.61Z"/>
        <path class="cls-10" d="M159.6,355.65l-22.62-88.06-22.62,88.06h-9.05l-27-102.5h9.05l22.76,90.21,23.18-90.21h7.35l23.04,90.21,22.76-90.21h9.05l-26.86,102.5h-9.05Z"/>
        <path class="cls-10" d="M271.57,355.65l-9.47-25.2h-50.18l-9.47,25.2h-9.05l38.59-102.5h10.04l38.59,102.5h-9.05ZM236.93,261.75l-22.48,60.7h45.09l-22.62-60.7Z"/>
        <path class="cls-10" d="M308.75,355.65v-94.51h-30.82v-7.99h69.84v7.99h-30.82v94.51h-8.2Z"/>
        <path class="cls-10" d="M356.82,304.47c0-31.5,21.06-53.02,47.5-53.02,15.27,0,26.58,7.22,34.63,18.14l-6.79,4.76c-5.94-8.91-16.26-14.91-27.85-14.91-21.91,0-39.02,18.29-39.02,45.03s17.11,45.03,39.02,45.03c11.59,0,21.91-5.99,27.85-14.91l6.79,4.61c-8.34,11.22-19.37,18.29-34.63,18.29-26.44,0-47.5-21.52-47.5-53.02Z"/>
        <path class="cls-10" d="M523.21,355.65v-48.72h-59.8v48.72h-8.06v-102.5h8.06v45.8h59.8v-45.8h8.2v102.5h-8.2Z"/>
      </g>
      <g>
        <path class="cls-14" d="M600.55,303.81c-.57-.86-.96-1.85-1.09-2.91-.93-.46-1.75-1.12-2.4-1.98-1.03.07-2.08-.1-3.07-.51-.86.57-1.85.96-2.91,1.09-.46.93-1.12,1.75-1.98,2.4.07,1.03-.1,2.08-.51,3.07.57.86.96,1.85,1.09,2.91.93.46,1.75,1.12,2.4,1.98,1.03-.07,2.08.1,3.07.51.86-.57,1.85-.96,2.91-1.09.46-.93,1.12-1.75,1.98-2.4-.07-1.03.1-2.08.51-3.07Z"/>
        <path class="cls-4" d="M628.11,287.42l6.68,4.67.91-10.53c.33-3.76-2.46-7.07-6.21-7.39l-6.24-.54,4.39,9.4c.67,1.43.8,2.97.47,4.39Z"/>
        <path class="cls-4" d="M601.26,302.53l.66-.94c-.86-.07-1.69-.3-2.46-.68.14,1.06.52,2.05,1.09,2.91.19-.44.42-.88.71-1.29Z"/>
        <path class="cls-18" d="M600.55,303.81c-.41.99-.58,2.04-.51,3.07.38-.29.8-.55,1.26-.76l1.04-.49c-.71-.49-1.31-1.11-1.79-1.82Z"/>
        <path class="cls-18" d="M639.93,295.68l-5.13-3.59-.9,10.33c-.14,1.57-.79,2.97-1.79,4.04l3.45,7.38,6.05-8.66c2.16-3.09,1.41-7.35-1.68-9.51Z"/>
        <path class="cls-28" d="M624.34,292.1l-18.97,8.86c-1.12.52-2.31.71-3.46.62l-.66.94c-.29.41-.52.84-.71,1.29.48.71,1.08,1.33,1.79,1.82l17.93-8.38c3.42-1.6,7.48-.12,9.08,3.3l2.76,5.91c.99-1.07,1.65-2.47,1.79-4.04l.9-10.33-6.68-4.67c-.45,1.99-1.78,3.76-3.77,4.69Z"/>
        <path class="cls-35" d="M626.05,324.96l-.7,8.12,9.57-4.47c3.42-1.6,4.89-5.66,3.3-9.08l-2.65-5.68-5.94,8.5c-.9,1.29-2.17,2.17-3.57,2.61Z"/>
        <path class="cls-35" d="M598.07,309.28c.48-.06.97-.07,1.47-.03l1.14.1c-.37-.78-.58-1.62-.64-2.47-.85.65-1.52,1.48-1.98,2.4Z"/>
        <path class="cls-33" d="M626.5,308.64l-20.86-1.81c-1.23-.11-2.36-.54-3.3-1.19l-1.04.49c-.45.21-.87.47-1.26.76.06.85.27,1.69.64,2.47l19.72,1.71c3.76.33,6.54,3.64,6.21,7.39l-.56,6.5c1.4-.43,2.67-1.32,3.57-2.61l5.94-8.5-3.45-7.38c-1.38,1.5-3.42,2.36-5.61,2.17Z"/>
        <path class="cls-26" d="M620.27,297.26l-17.93,8.38c.95.66,2.07,1.09,3.3,1.19l20.86,1.81c2.19.19,4.22-.68,5.61-2.17l-2.76-5.91c-1.6-3.42-5.66-4.89-9.08-3.3Z"/>
        <path class="cls-5" d="M596.44,311.09l.94.66c.07-.86.3-1.69.68-2.46-1.06.14-2.05.52-2.91,1.09.44.19.88.42,1.29.71Z"/>
        <path class="cls-5" d="M611.55,337.94l-4.67,6.68,10.53.91c3.76.33,7.07-2.46,7.39-6.21l.54-6.24-9.4,4.39c-1.43.67-2.97.8-4.39.47Z"/>
        <path class="cls-5" d="M620.1,324.03l-17.16-12c-1.01-.71-1.77-1.64-2.26-2.69l-1.14-.1c-.5-.04-.99-.03-1.47.03-.38.77-.61,1.6-.68,2.46l16.22,11.34c3.09,2.16,3.85,6.42,1.68,9.51l-3.74,5.35c1.43.32,2.97.19,4.39-.47l9.4-4.39.7-8.12c-1.95.6-4.14.34-5.94-.92Z"/>
        <path class="cls-15" d="M602.94,312.04l17.16,12c1.8,1.26,4,1.53,5.94.92l.56-6.5c.33-3.76-2.46-7.07-6.21-7.39l-19.72-1.71c.49,1.04,1.25,1.98,2.26,2.69Z"/>
        <path class="cls-27" d="M592.5,341.94l-7.38,3.45,8.66,6.05c3.09,2.16,7.35,1.41,9.51-1.68l3.59-5.13-10.33-.9c-1.57-.14-2.97-.79-4.04-1.79Z"/>
        <path class="cls-27" d="M592.09,309.87c.29.38.55.8.76,1.26l.49,1.04c.49-.71,1.11-1.31,1.82-1.79-.99-.41-2.04-.58-3.07-.51Z"/>
        <path class="cls-32" d="M606.86,334.17l-8.86-18.97c-.52-1.12-.71-2.31-.62-3.46l-.94-.66c-.41-.29-.84-.52-1.29-.71-.71.48-1.33,1.08-1.82,1.79l8.38,17.93c1.6,3.42.12,7.48-3.3,9.08l-5.91,2.76c1.07.99,2.47,1.65,4.04,1.79l10.33.9,4.67-6.68c-1.99-.45-3.76-1.78-4.69-3.77Z"/>
        <path class="cls-32" d="M598,315.2l8.86,18.97c.93,1.99,2.7,3.32,4.69,3.77l3.74-5.35c2.16-3.09,1.41-7.35-1.68-9.51l-16.22-11.34c-.1,1.15.09,2.34.62,3.46Z"/>
        <path class="cls-9" d="M574.01,335.87l-8.12-.7,4.47,9.57c1.6,3.42,5.66,4.89,9.08,3.3l5.68-2.65-8.5-5.94c-1.29-.9-2.17-2.17-2.61-3.57Z"/>
        <path class="cls-9" d="M589.68,307.89c.06.48.07.97.03,1.47l-.1,1.14c.78-.37,1.62-.58,2.47-.64-.65-.85-1.48-1.52-2.4-1.98Z"/>
        <path class="cls-13" d="M590.33,336.33l1.81-20.86c.11-1.23.54-2.36,1.19-3.3l-.49-1.04c-.21-.45-.47-.87-.76-1.26-.85.06-1.69.27-2.47.64l-1.71,19.72c-.33,3.76-3.64,6.54-7.39,6.21l-6.5-.56c.43,1.4,1.32,2.67,2.61,3.57l8.5,5.94,7.38-3.45c-1.5-1.38-2.36-3.42-2.17-5.61Z"/>
        <path class="cls-8" d="M590.33,336.33c-.19,2.19.68,4.22,2.17,5.61l5.91-2.76c3.42-1.6,4.89-5.66,3.3-9.08l-8.38-17.93c-.66.95-1.09,2.07-1.19,3.3l-1.81,20.86Z"/>
        <path class="cls-20" d="M587.88,306.27l-.66.94c.86.07,1.69.3,2.46.68-.14-1.06-.52-2.05-1.09-2.91-.19.44-.42.88-.71,1.29Z"/>
        <path class="cls-20" d="M561.03,321.38l-6.68-4.67-.91,10.53c-.33,3.76,2.46,7.07,6.21,7.39l6.24.54-4.39-9.4c-.67-1.43-.8-2.97-.47-4.39Z"/>
        <path class="cls-21" d="M574.93,329.93l12-17.16c.71-1.01,1.64-1.77,2.69-2.26l.1-1.14c.04-.5.03-.99-.03-1.47-.77-.38-1.6-.61-2.46-.68l-11.34,16.22c-2.16,3.09-6.42,3.85-9.51,1.68l-5.35-3.74c-.32,1.43-.19,2.97.47,4.39l4.39,9.4,8.12.7c-.6-1.95-.34-4.14.92-5.94Z"/>
        <path class="cls-24" d="M586.93,312.77l-12,17.16c-1.26,1.8-1.53,4-.92,5.94l6.5.56c3.76.33,7.07-2.46,7.39-6.21l1.71-19.72c-1.04.49-1.98,1.25-2.69,2.26Z"/>
        <path class="cls-2" d="M589.1,301.91c-.38.29-.8.55-1.26.76l-1.04.49c.71.49,1.31,1.11,1.79,1.82.41-.99.58-2.04.51-3.07Z"/>
        <path class="cls-2" d="M557.03,302.33l-3.45-7.38-6.05,8.66c-2.16,3.09-1.41,7.35,1.68,9.51l5.13,3.59.9-10.33c.14-1.57.79-2.97,1.79-4.04Z"/>
        <path class="cls-34" d="M564.8,316.69l18.97-8.86c1.12-.52,2.31-.71,3.46-.62l.66-.94c.29-.41.52-.84.71-1.29-.48-.71-1.08-1.33-1.79-1.82l-17.93,8.38c-3.42,1.6-7.48.12-9.08-3.3l-2.76-5.91c-.99,1.07-1.65,2.47-1.79,4.04l-.9,10.33,6.68,4.67c.45-1.99,1.78-3.76,3.77-4.69Z"/>
        <path class="cls-12" d="M583.77,307.83l-18.97,8.86c-1.99.93-3.32,2.7-3.77,4.69l5.35,3.74c3.09,2.16,7.35,1.41,9.51-1.68l11.34-16.22c-1.15-.1-2.34.09-3.46.62Z"/>
        <path class="cls-31" d="M591.07,299.51c-.48.06-.97.07-1.47.03l-1.14-.1c.37.78.58,1.62.64,2.47.85-.65,1.52-1.48,1.98-2.4Z"/>
        <path class="cls-31" d="M563.09,283.84l.7-8.12-9.57,4.47c-3.42,1.6-4.89,5.66-3.3,9.08l2.65,5.68,5.94-8.5c.9-1.29,2.17-2.17,3.57-2.61Z"/>
        <path class="cls-1" d="M562.64,300.16l20.86,1.81c1.23.11,2.36.54,3.3,1.19l1.04-.49c.45-.21.87-.47,1.26-.76-.06-.85-.27-1.69-.64-2.47l-19.72-1.71c-3.76-.33-6.54-3.64-6.21-7.39l.56-6.5c-1.4.43-2.67,1.32-3.57,2.61l-5.94,8.5,3.45,7.38c1.38-1.5,3.42-2.36,5.61-2.17Z"/>
        <path class="cls-29" d="M562.64,300.16c-2.19-.19-4.22.68-5.61,2.17l2.76,5.91c1.6,3.42,5.66,4.89,9.08,3.3l17.93-8.38c-.95-.66-2.07-1.09-3.3-1.19l-20.86-1.81Z"/>
        <path class="cls-25" d="M592.7,297.71l-.94-.66c-.07.86-.3,1.69-.68,2.46,1.06-.14,2.05-.52,2.91-1.09-.44-.19-.88-.42-1.29-.71Z"/>
        <path class="cls-25" d="M577.59,270.86l4.67-6.68-10.53-.91c-3.76-.33-7.07,2.46-7.39,6.21l-.54,6.24,9.4-4.39c1.43-.67,2.97-.8,4.39-.47Z"/>
        <path class="cls-11" d="M569.04,284.76l17.16,12c1.01.71,1.77,1.64,2.26,2.69l1.14.1c.5.04.99.03,1.47-.03.38-.77.61-1.6.68-2.46l-16.22-11.34c-3.09-2.16-3.85-6.42-1.68-9.51l3.74-5.35c-1.43-.32-2.97-.19-4.39.47l-9.4,4.39-.7,8.12c1.95-.6,4.14-.34,5.94.92Z"/>
        <path class="cls-30" d="M586.2,296.76l-17.16-12c-1.8-1.26-4-1.53-5.94-.92l-.56,6.5c-.33,3.76,2.46,7.07,6.21,7.39l19.72,1.71c-.49-1.04-1.25-1.98-2.26-2.69Z"/>
        <path class="cls-16" d="M596.64,266.86l7.38-3.45-8.66-6.05c-3.09-2.16-7.35-1.41-9.51,1.68l-3.59,5.13,10.33.9c1.57.14,2.97.79,4.04,1.79Z"/>
        <path class="cls-16" d="M597.05,298.93c-.29-.38-.55-.8-.76-1.26l-.49-1.04c-.49.71-1.11,1.31-1.82,1.79.99.41,2.04.58,3.07.51Z"/>
        <path class="cls-17" d="M582.28,274.63l8.86,18.97c.52,1.12.71,2.31.62,3.46l.94.66c.41.29.84.52,1.29.71.71-.48,1.33-1.08,1.82-1.79l-8.38-17.93c-1.6-3.42-.12-7.48,3.3-9.08l5.91-2.76c-1.07-.99-2.47-1.65-4.04-1.79l-10.33-.9-4.67,6.68c1.99.45,3.76,1.78,4.69,3.77Z"/>
        <path class="cls-23" d="M591.14,293.6l-8.86-18.97c-.93-1.99-2.7-3.32-4.69-3.77l-3.74,5.35c-2.16,3.09-1.41,7.35,1.68,9.51l16.22,11.34c.1-1.15-.09-2.34-.62-3.46Z"/>
        <path class="cls-6" d="M599.46,300.9c-.06-.48-.07-.97-.03-1.47l.1-1.14c-.78.37-1.62.58-2.47.64.65.85,1.48,1.52,2.4,1.98Z"/>
        <path class="cls-6" d="M615.13,272.92l8.12.7-4.47-9.57c-1.6-3.42-5.66-4.89-9.08-3.3l-5.68,2.65,8.5,5.94c1.29.9,2.17,2.17,2.61,3.57Z"/>
        <path class="cls-3" d="M614.21,278.86l-12,17.16c-.71,1.01-1.64,1.77-2.69,2.26l-.1,1.14c-.04.5-.03.99.03,1.47.77.38,1.6.61,2.46.68l11.34-16.22c2.16-3.09,6.42-3.85,9.51-1.68l5.35,3.74c.32-1.43.19-2.97-.47-4.39l-4.39-9.4-8.12-.7c.6,1.95.34,4.14-.92,5.94Z"/>
        <path class="cls-19" d="M605.37,300.97l18.97-8.86c1.99-.93,3.32-2.7,3.77-4.69l-5.35-3.74c-3.09-2.16-7.35-1.41-9.51,1.68l-11.34,16.22c1.15.1,2.34-.09,3.46-.62Z"/>
        <path class="cls-7" d="M598.81,272.47l-1.81,20.86c-.11,1.23-.54,2.36-1.19,3.3l.49,1.04c.21.45.47.87.76,1.26.85-.06,1.69-.27,2.47-.64l1.71-19.72c.33-3.76,3.64-6.54,7.39-6.21l6.5.56c-.43-1.4-1.32-2.67-2.61-3.57l-8.5-5.94-7.38,3.45c1.5,1.38,2.36,3.42,2.17,5.61Z"/>
        <path class="cls-22" d="M602.21,296.03l12-17.16c1.26-1.8,1.53-4,.92-5.94l-6.5-.56c-3.76-.33-7.07,2.46-7.39,6.21l-1.71,19.72c1.04-.49,1.98-1.25,2.69-2.26Z"/>
        <path class="cls-17" d="M598.81,272.47c.19-2.19-.68-4.22-2.17-5.61l-5.91,2.76c-3.42,1.6-4.89,5.66-3.3,9.08l8.38,17.93c.66-.95,1.09-2.07,1.19-3.3l1.81-20.86Z"/>
      </g>
    </g>
  </g>
</svg>