<?xml version="1.0" encoding="UTF-8"?>
<svg id="Layer_2" data-name="Layer 2" xmlns="http://www.w3.org/2000/svg" xmlns:xlink="http://www.w3.org/1999/xlink" viewBox="0 0 6000 2050">
  <defs>
    <style>
      .cls-1 {
        fill: #fbc1d3;
      }

      .cls-2 {
        fill: #fff9f0;
      }

      .cls-3 {
        fill: #18175b;
      }

      .cls-4 {
        fill: #fff;
      }

      .cls-5 {
        fill: #ffdb00;
      }

      .cls-6 {
        clip-path: url(#clippath-1);
      }

      .cls-7 {
        fill: #ff5c20;
      }

      .cls-8 {
        fill: #286aff;
      }

      .cls-9 {
        clip-path: url(#clippath-2);
      }

      .cls-10 {
        clip-path: url(#clippath);
      }
    </style>
    <clipPath id="clippath">
      <path d="M3384.79,1631.36c-.83,0-1.65-.21-2.39-.61l-112.14-61c-1.89-1.03-2.92-3.16-2.53-5.28.38-2.12,2.09-3.76,4.22-4.06l206-28.95c1.07-.15,2.14.05,3.09.56l112.14,61c1.89,1.03,2.92,3.16,2.53,5.28-.38,2.12-2.09,3.76-4.22,4.06l-206,28.95c-.23.03-.46.05-.7.05ZM3288.34,1568.2l97.39,52.98,189.37-26.61-97.39-52.98-189.37,26.62Z"/>
    </clipPath>
    <clipPath id="clippath-1">
      <path d="M3590.38,1824.76c-.82,0-1.64-.2-2.39-.61l-112.14-61c-1.61-.88-2.61-2.57-2.61-4.4l.41-222.35c0-1.76.93-3.39,2.45-4.29,1.52-.9,3.39-.93,4.94-.09l112.14,61c1.61.88,2.61,2.57,2.61,4.4l-.41,222.35c0,1.76-.93,3.39-2.45,4.29-.79.47-1.67.7-2.55.7ZM3483.25,1755.79l102.15,55.57.39-210.97-102.15-55.57-.39,210.97Z"/>
    </clipPath>
    <clipPath id="clippath-2">
      <path d="M3384.38,1853.71c-.82,0-1.64-.2-2.39-.61l-112.14-61c-1.61-.88-2.61-2.57-2.61-4.4l.41-222.35c0-1.76.93-3.39,2.45-4.29,1.52-.9,3.39-.93,4.94-.09l112.14,61c1.61.88,2.61,2.57,2.61,4.4l-.41,222.35c0,1.76-.93,3.39-2.45,4.29-.79.47-1.67.7-2.55.7ZM3277.24,1784.74l102.15,55.57.39-210.97-102.15-55.57-.39,210.97Z"/>
    </clipPath>
  </defs>
  <g id="_àð_1" data-name="˜àð_1">
    <rect class="cls-2" width="6000" height="2050"/>
    <g>
      <path class="cls-7" d="M2246.39,444.38c-47.97,0-87-39.03-87-87s39.03-87,87-87,87,39.03,87,87-39.03,87-87,87ZM2246.39,313.38c-24.26,0-44,19.74-44,44s19.74,44,44,44,44-19.74,44-44-19.74-44-44-44Z"/>
      <path class="cls-5" d="M4939.78,435.53c-86.29,0-156.5-70.21-156.5-156.5s70.21-156.5,156.5-156.5,156.5,70.21,156.5,156.5-70.21,156.5-156.5,156.5ZM4939.78,199.53c-43.84,0-79.5,35.66-79.5,79.5s35.66,79.5,79.5,79.5,79.5-35.66,79.5-79.5-35.66-79.5-79.5-79.5Z"/>
      <path class="cls-5" d="M5520.83,1279.08c-.86,0-1.73-.22-2.5-.67l-131.5-75.92c-1.55-.89-2.5-2.54-2.5-4.33v-151.84c0-1.79.95-3.44,2.5-4.33l131.5-75.92c1.55-.89,3.45-.89,5,0l131.5,75.92c1.55.89,2.5,2.54,2.5,4.33v151.84c0,1.79-.95,3.44-2.5,4.33l-131.5,75.92c-.77.45-1.64.67-2.5.67ZM5394.33,1195.27l126.5,73.03,126.5-73.03v-146.07l-126.5-73.03-126.5,73.03v146.07Z"/>
      <path class="cls-5" d="M5520.83,1279.08c-.86,0-1.73-.22-2.5-.67l-131.5-75.92c-1.55-.89-2.5-2.54-2.5-4.33v-151.84c0-1.79.95-3.44,2.5-4.33l131.5-75.92c1.55-.89,3.45-.89,5,0l131.5,75.92c1.55.89,2.5,2.54,2.5,4.33v151.84c0,1.79-.95,3.44-2.5,4.33l-131.5,75.92c-.77.45-1.64.67-2.5.67ZM5394.33,1195.27l126.5,73.03,126.5-73.03v-146.07l-126.5-73.03-126.5,73.03v146.07Z"/>
      <path class="cls-5" d="M5520.83,1279.08c-.86,0-1.73-.22-2.5-.67l-131.5-75.92c-1.55-.89-2.5-2.54-2.5-4.33v-151.84c0-1.79.95-3.44,2.5-4.33l131.5-75.92c1.55-.89,3.45-.89,5,0l131.5,75.92c1.55.89,2.5,2.54,2.5,4.33v151.84c0,1.79-.95,3.44-2.5,4.33l-131.5,75.92c-.77.45-1.64.67-2.5.67ZM5394.33,1195.27l126.5,73.03,126.5-73.03v-146.07l-126.5-73.03-126.5,73.03v146.07Z"/>
      <path class="cls-5" d="M5520.83,1279.08c-.86,0-1.73-.22-2.5-.67l-131.5-75.92c-1.55-.89-2.5-2.54-2.5-4.33v-151.84c0-1.79.95-3.44,2.5-4.33l131.5-75.92c1.55-.89,3.45-.89,5,0l131.5,75.92c1.55.89,2.5,2.54,2.5,4.33v151.84c0,1.79-.95,3.44-2.5,4.33l-131.5,75.92c-.77.45-1.64.67-2.5.67ZM5394.33,1195.27l126.5,73.03,126.5-73.03v-146.07l-126.5-73.03-126.5,73.03v146.07Z"/>
      <g>
        <g>
          <path class="cls-8" d="M3122.71,550.94c0,6.69-5.42,12.11-12.11,12.11s-12.11-5.42-12.11-12.11,5.42-12.11,12.11-12.11,12.11,5.42,12.11,12.11Z"/>
          <path class="cls-8" d="M3122.71,609.68c0,6.69-5.42,12.11-12.11,12.11s-12.11-5.42-12.11-12.11,5.42-12.11,12.11-12.11,12.11,5.42,12.11,12.11Z"/>
          <path class="cls-8" d="M3122.71,668.42c0,6.69-5.42,12.11-12.11,12.11s-12.11-5.42-12.11-12.11,5.42-12.11,12.11-12.11,12.11,5.42,12.11,12.11Z"/>
          <path class="cls-8" d="M3122.71,727.16c0,6.69-5.42,12.11-12.11,12.11s-12.11-5.42-12.11-12.11,5.42-12.11,12.11-12.11,12.11,5.42,12.11,12.11Z"/>
        </g>
        <g>
          <circle class="cls-8" cx="3169.91" cy="550.94" r="12.11" transform="translate(1905.42 3509.47) rotate(-76.72)"/>
          <circle class="cls-8" cx="3169.91" cy="609.68" r="12.11" transform="translate(-55.28 744.6) rotate(-13.28)"/>
          <path class="cls-8" d="M3182.02,668.42c0,6.69-5.42,12.11-12.11,12.11s-12.11-5.42-12.11-12.11,5.42-12.11,12.11-12.11,12.11,5.42,12.11,12.11Z"/>
          <circle class="cls-8" cx="3169.91" cy="727.16" r="12.11"/>
        </g>
        <g>
          <path class="cls-8" d="M3241.34,550.94c0,6.69-5.42,12.11-12.11,12.11s-12.11-5.42-12.11-12.11,5.42-12.11,12.11-12.11,12.11,5.42,12.11,12.11Z"/>
          <path class="cls-8" d="M3241.34,609.68c0,6.69-5.42,12.11-12.11,12.11s-12.11-5.42-12.11-12.11,5.42-12.11,12.11-12.11,12.11,5.42,12.11,12.11Z"/>
          <path class="cls-8" d="M3241.34,668.42c0,6.69-5.42,12.11-12.11,12.11s-12.11-5.42-12.11-12.11,5.42-12.11,12.11-12.11,12.11,5.42,12.11,12.11Z"/>
          <path class="cls-8" d="M3241.34,727.16c0,6.69-5.42,12.11-12.11,12.11s-12.11-5.42-12.11-12.11,5.42-12.11,12.11-12.11,12.11,5.42,12.11,12.11Z"/>
        </g>
        <circle class="cls-8" cx="3288.54" cy="550.94" r="12.11" transform="translate(2217.95 3708.77) rotate(-80.78)"/>
        <circle class="cls-8" cx="3288.54" cy="609.68" r="12.11" transform="translate(17.01 1304.88) rotate(-22.5)"/>
        <path class="cls-8" d="M3300.65,668.42c0,6.69-5.42,12.11-12.11,12.11s-12.11-5.42-12.11-12.11,5.42-12.11,12.11-12.11,12.11,5.42,12.11,12.11Z"/>
        <circle class="cls-8" cx="3288.54" cy="727.16" r="12.11"/>
      </g>
      <g>
        <circle class="cls-8" cx="843.43" cy="1701.02" r="12.11" transform="translate(-947.67 2330.94) rotate(-83)"/>
        <circle class="cls-8" cx="843.43" cy="1759.76" r="12.11" transform="translate(-997.3 1111.82) rotate(-45)"/>
        <path class="cls-8" d="M855.55,1818.5c0,6.69-5.42,12.11-12.11,12.11s-12.11-5.42-12.11-12.11,5.42-12.11,12.11-12.11,12.11,5.42,12.11,12.11Z"/>
        <circle class="cls-8" cx="843.43" cy="1877.24" r="12.11"/>
        <circle class="cls-8" cx="902.75" cy="1701.02" r="12.11" transform="translate(-920.53 2320.75) rotate(-80.82)"/>
        <circle class="cls-8" cx="902.75" cy="1759.76" r="12.11" transform="translate(-608.65 484.07) rotate(-22.68)"/>
        <path class="cls-8" d="M914.86,1818.5c0,6.69-5.42,12.11-12.11,12.11s-12.11-5.42-12.11-12.11,5.42-12.11,12.11-12.11,12.11,5.42,12.11,12.11Z"/>
        <circle class="cls-8" cx="902.75" cy="1877.24" r="12.11"/>
        <circle class="cls-8" cx="843.43" cy="1642.28" r="12.11" transform="translate(-889.36 2279.36) rotate(-83)"/>
        <circle class="cls-8" cx="902.75" cy="1642.28" r="12.11" transform="translate(-862.54 2271.39) rotate(-80.82)"/>
        <circle class="cls-8" cx="843.43" cy="1583.54" r="12.11" transform="translate(-339.62 234.7) rotate(-13.21)"/>
        <circle class="cls-8" cx="902.75" cy="1583.54" r="12.11" transform="translate(-533.87 461.63) rotate(-22.33)"/>
        <circle class="cls-8" cx="843.43" cy="1524.8" r="12.11" transform="translate(-326.19 233.15) rotate(-13.21)"/>
        <circle class="cls-8" cx="902.75" cy="1524.8" r="12.11" transform="translate(-511.56 457.23) rotate(-22.33)"/>
        <circle class="cls-8" cx="962.07" cy="1701.02" r="12.11" transform="translate(-870.68 2379.31) rotate(-80.82)"/>
        <circle class="cls-8" cx="962.07" cy="1759.76" r="12.11" transform="translate(-604.06 506.94) rotate(-22.68)"/>
        <path class="cls-8" d="M974.18,1818.5c0,6.69-5.42,12.11-12.11,12.11s-12.11-5.42-12.11-12.11,5.42-12.11,12.11-12.11,12.11,5.42,12.11,12.11Z"/>
        <circle class="cls-8" cx="962.07" cy="1877.24" r="12.11"/>
        <circle class="cls-8" cx="962.07" cy="1642.28" r="12.11" transform="translate(-812.69 2329.94) rotate(-80.82)"/>
        <circle class="cls-8" cx="962.07" cy="1583.54" r="12.11" transform="translate(-529.42 484.17) rotate(-22.33)"/>
        <circle class="cls-8" cx="962.07" cy="1524.8" r="12.11" transform="translate(-507.11 479.76) rotate(-22.33)"/>
        <circle class="cls-8" cx="1021.38" cy="1524.8" r="12.11" transform="translate(-697.29 2168.53) rotate(-76.72)"/>
        <circle class="cls-8" cx="1080.7" cy="1524.8" r="12.11" transform="translate(-501.25 529.63) rotate(-22.5)"/>
        <circle class="cls-8" cx="1140.02" cy="1524.8" r="12.11" transform="translate(-744.29 1252.72) rotate(-45)"/>
        <circle class="cls-8" cx="843.43" cy="1466.06" r="12.11"/>
        <circle class="cls-8" cx="843.43" cy="1407.32" r="12.11"/>
        <g>
          <circle class="cls-8" cx="902.75" cy="1466.06" r="12.11"/>
          <circle class="cls-8" cx="902.75" cy="1407.32" r="12.11"/>
        </g>
        <g>
          <circle class="cls-8" cx="962.07" cy="1466.06" r="12.11"/>
          <circle class="cls-8" cx="962.07" cy="1407.32" r="12.11"/>
        </g>
        <g>
          <circle class="cls-8" cx="1021.38" cy="1466.06" r="12.11"/>
          <circle class="cls-8" cx="1021.38" cy="1407.32" r="12.11"/>
        </g>
        <g>
          <circle class="cls-8" cx="1080.7" cy="1466.06" r="12.11"/>
          <circle class="cls-8" cx="1080.7" cy="1407.32" r="12.11"/>
        </g>
        <g>
          <circle class="cls-8" cx="1140.02" cy="1466.06" r="12.11"/>
          <circle class="cls-8" cx="1140.02" cy="1407.32" r="12.11"/>
        </g>
      </g>
      <g>
        <g>
          <circle cx="4812.62" cy="677.21" r="12.11" transform="translate(-26.85 1123.83) rotate(-13.28)"/>
          <circle cx="4753.88" cy="677.21" r="12.11" transform="translate(913.52 3559.85) rotate(-45)"/>
          <path d="M4695.14,689.32c-6.69,0-12.11-5.42-12.11-12.11s5.42-12.11,12.11-12.11,12.11,5.42,12.11,12.11-5.42,12.11-12.11,12.11Z"/>
          <circle cx="4636.4" cy="677.21" r="12.11"/>
        </g>
        <circle cx="4753.88" cy="736.53" r="12.11" transform="translate(80.01 1875.29) rotate(-22.5)"/>
        <path d="M4695.14,748.64c-6.69,0-12.11-5.42-12.11-12.11s5.42-12.11,12.11-12.11,12.11,5.42,12.11,12.11-5.42,12.11-12.11,12.11Z"/>
        <circle cx="4636.4" cy="736.53" r="12.11"/>
      </g>
      <g>
        <g>
          <circle cx="316.45" cy="553.33" r="12.11" transform="translate(-271.49 799.59) rotate(-82.96)"/>
          <circle cx="257.71" cy="553.33" r="12.11" transform="translate(-315.79 344.3) rotate(-45)"/>
          <path d="M198.97,565.45c-6.69,0-12.11-5.42-12.11-12.11s5.42-12.11,12.11-12.11,12.11,5.42,12.11,12.11-5.42,12.11-12.11,12.11Z"/>
          <circle cx="140.23" cy="553.33" r="12.11" transform="translate(-10.34 2.73) rotate(-1.07)"/>
        </g>
        <circle cx="257.71" cy="612.65" r="12.11" transform="translate(-213.41 143.82) rotate(-22.33)"/>
        <path d="M317.03,624.76c-6.69,0-12.11-5.42-12.11-12.11s5.42-12.11,12.11-12.11,12.11,5.42,12.11,12.11-5.42,12.11-12.11,12.11Z"/>
        <path d="M198.97,624.76c-6.69,0-12.11-5.42-12.11-12.11s5.42-12.11,12.11-12.11,12.11,5.42,12.11,12.11-5.42,12.11-12.11,12.11Z"/>
        <circle cx="140.23" cy="612.65" r="12.11"/>
        <path d="M198.97,682.93c-6.69,0-12.11-5.42-12.11-12.11s5.42-12.11,12.11-12.11,12.11,5.42,12.11,12.11-5.42,12.11-12.11,12.11Z"/>
        <circle cx="140.23" cy="670.82" r="12.11" transform="translate(-544.59 696.91) rotate(-80.37)"/>
      </g>
      <g>
        <polygon class="cls-8" points="4385.51 1176.87 4146.73 1176.87 4266.12 977.3 4385.51 777.72 4504.9 977.3 4624.29 1176.87 4385.51 1176.87"/>
        <path class="cls-4" d="M4625.53,1177.58h-480.05l.64-1.07,239.39-400.16.61,1.01,239.42,400.22ZM4147.97,1176.16h475.07l-237.53-397.07-237.53,397.07Z"/>
      </g>
      <polygon class="cls-8" points="1516.62 760.93 1347.77 760.93 1432.2 619.8 1516.62 478.66 1601.05 619.8 1685.48 760.93 1516.62 760.93"/>
      <path d="M1685.48,683.47h-337.71c-1.8,0-3.46-.97-4.35-2.53-.89-1.57-.87-3.49.06-5.03l168.85-282.26c.9-1.51,2.53-2.43,4.29-2.43s3.39.92,4.29,2.43l168.86,282.26c.92,1.54.95,3.47.06,5.03-.89,1.57-2.55,2.53-4.35,2.53ZM1356.59,673.47h320.08l-160.04-267.52-160.04,267.52Z"/>
      <polygon class="cls-7" points="2002.13 538.44 2002.13 494.3 2040.35 516.37 2078.57 538.44 2040.35 560.51 2002.13 582.57 2002.13 538.44"/>
      <polygon class="cls-1" points="2002.13 450.17 2002.13 406.03 2040.35 428.1 2078.57 450.17 2040.35 472.24 2002.13 494.3 2002.13 450.17"/>
      <polygon class="cls-5" points="2002.13 626.71 2002.13 582.57 2040.35 604.64 2078.57 626.71 2040.35 648.78 2002.13 670.84 2002.13 626.71"/>
      <polygon class="cls-8" points="2002.13 803.25 2002.13 759.11 2040.35 781.18 2078.57 803.25 2040.35 825.32 2002.13 847.38 2002.13 803.25"/>
      <polygon points="2002.13 714.98 2002.13 670.84 2040.35 692.91 2078.57 714.98 2040.35 737.05 2002.13 759.11 2002.13 714.98"/>
      <g>
        <path class="cls-7" d="M3973.62,478.45l-64.25,64.25c12.93-28.42,35.84-51.32,64.25-64.25Z"/>
        <path class="cls-7" d="M4009.01,468.17l-109.92,109.92c.68-4.95,1.66-9.81,2.9-14.57l92.47-92.46c4.75-1.25,9.61-2.21,14.56-2.9Z"/>
        <path class="cls-7" d="M4035.12,467.15l-137.06,137.06c-.16-2.65-.25-5.31-.25-8,0-1.15.01-2.31.05-3.45l125.81-125.81c1.14-.04,2.28-.05,3.44-.05,2.69,0,5.36.08,8.01.25Z"/>
        <path class="cls-7" d="M4057,470.38l-155.71,155.7c-.77-3.2-1.4-6.45-1.91-9.74l147.87-147.87c3.3.51,6.55,1.14,9.75,1.91Z"/>
        <path class="cls-7" d="M4075.99,476.48l-168.6,168.6c-1.15-2.79-2.2-5.63-3.14-8.51l163.23-163.23c2.89.94,5.72,1.99,8.51,3.14Z"/>
        <path class="cls-7" d="M4092.76,484.8l-177.05,177.05c-1.47-2.46-2.84-4.97-4.12-7.54l173.63-173.63c2.57,1.28,5.08,2.65,7.54,4.12Z"/>
        <path class="cls-7" d="M4107.64,495.04l-181.69,181.68c-1.74-2.17-3.4-4.39-4.98-6.68l179.98-179.98c2.28,1.58,4.52,3.25,6.69,4.98Z"/>
        <path class="cls-7" d="M4120.73,507.02l-182.8,182.81c-1.99-1.9-3.92-3.85-5.78-5.88l182.7-182.71c2.03,1.86,3.99,3.79,5.88,5.78Z"/>
        <path class="cls-7" d="M4132.11,520.74l-180.45,180.45c-2.26-1.61-4.45-3.31-6.59-5.06l181.98-181.97c1.77,2.13,3.46,4.33,5.06,6.58Z"/>
        <path class="cls-7" d="M4141.69,536.25l-174.53,174.53c-2.53-1.32-5.02-2.72-7.44-4.22l177.76-177.76c1.5,2.43,2.9,4.91,4.22,7.44Z"/>
        <path class="cls-7" d="M4149.28,553.78l-164.6,164.59c-2.85-.98-5.65-2.07-8.41-3.25l169.76-169.75c1.19,2.76,2.27,5.56,3.25,8.41Z"/>
        <path class="cls-7" d="M4154.46,573.69l-149.86,149.86c-3.24-.57-6.44-1.26-9.59-2.07l157.37-157.37c.81,3.16,1.51,6.35,2.07,9.59Z"/>
        <path class="cls-7" d="M4156.42,596.21c0,.21,0,.42-.01.64l-128.65,128.65c-.21.01-.44.01-.65.01-3.57,0-7.09-.14-10.59-.44l139.46-139.46c.29,3.5.44,7.03.44,10.6Z"/>
        <path class="cls-7" d="M4155.56,611.13c-.54,4.77-1.35,9.47-2.4,14.06l-97.05,97.05c-4.6,1.05-9.29,1.86-14.06,2.4l113.51-113.51Z"/>
        <path class="cls-7" d="M4146.94,644.85c-3.69,9.13-8.41,17.72-14,25.66l-31.51,31.51c-7.94,5.59-16.53,10.32-25.66,14l71.18-71.18Z"/>
      </g>
      <path class="cls-5" d="M2564.74,585.55v365.65h-365.65c0-201.94,163.71-365.65,365.65-365.65Z"/>
      <path class="cls-1" d="M3844.29,1698.23c201.94,0,365.65-163.71,365.65-365.65h-365.65v365.65Z"/>
      <g>
        <path class="cls-8" d="M3909.87,1768.08c-3.04,0-5.5-2.46-5.5-5.5,0-.15,0-.31.02-.46-.01-.15-.02-.3-.02-.46v-5c0-3.04,2.46-5.5,5.5-5.5s5.5,2.46,5.5,5.5v.4c2.77.25,4.96,2.56,5,5.4.04,3.04-2.39,5.53-5.43,5.57-1.69.02-3.38.03-5.07.03ZM3934.84,1767.24c-2.87,0-5.29-2.22-5.48-5.13-.21-3.03,2.09-5.65,5.12-5.86,1.64-.11,3.28-.23,4.91-.37,3.02-.24,5.68,2.01,5.93,5.04.25,3.03-2.01,5.68-5.04,5.93-1.68.14-3.37.26-5.06.38-.13,0-.25.01-.38.01ZM3959.7,1764.72c-2.71,0-5.07-2-5.44-4.76-.41-3.01,1.7-5.78,4.71-6.19,1.63-.22,3.25-.46,4.88-.7,3-.45,5.8,1.62,6.26,4.62.45,3-1.62,5.8-4.62,6.26-1.67.25-3.34.49-5.02.72-.25.04-.5.05-.75.05ZM3984.33,1760.5c-2.55,0-4.84-1.79-5.38-4.39-.62-2.97,1.3-5.88,4.27-6.5,1.61-.33,3.21-.68,4.82-1.03,2.97-.66,5.9,1.22,6.56,4.18.66,2.97-1.22,5.9-4.18,6.56-1.65.37-3.3.72-4.96,1.06-.38.08-.75.12-1.12.12ZM4008.61,1754.6c-2.41,0-4.61-1.59-5.29-4.02-.82-2.93.89-5.96,3.82-6.78,1.58-.44,3.16-.89,4.73-1.36,2.92-.86,5.97.8,6.83,3.72.86,2.91-.8,5.97-3.72,6.83-1.62.48-3.25.95-4.88,1.4-.5.14-.99.2-1.48.2ZM4032.43,1747.04c-2.26,0-4.38-1.41-5.18-3.66-1.02-2.86.48-6.01,3.34-7.02,1.55-.55,3.1-1.11,4.64-1.69,2.85-1.06,6.01.39,7.07,3.24,1.06,2.85-.39,6.01-3.24,7.07-1.59.59-3.19,1.17-4.79,1.74-.61.22-1.23.32-1.84.32ZM3909.87,1742.17c-3.04,0-5.5-2.46-5.5-5.5v-5c0-3.04,2.46-5.5,5.5-5.5s5.5,2.46,5.5,5.5v5c0,3.04-2.46,5.5-5.5,5.5ZM4055.73,1737.84c-2.12,0-4.14-1.23-5.05-3.3-1.21-2.78.06-6.03,2.85-7.24,1.51-.66,3.02-1.33,4.52-2,2.77-1.25,6.03-.02,7.28,2.75,1.25,2.77.02,6.03-2.75,7.28-1.54.7-3.09,1.38-4.65,2.06-.72.31-1.46.46-2.19.46ZM4078.32,1727.06c-1.99,0-3.91-1.08-4.88-2.96-1.4-2.69-.35-6.02,2.34-7.42,1.46-.76,2.91-1.53,4.36-2.31,2.68-1.44,6.01-.44,7.45,2.24,1.44,2.68.44,6.01-2.24,7.45-1.49.8-2.99,1.6-4.5,2.38-.81.42-1.68.62-2.53.62ZM3909.87,1717.17c-3.04,0-5.5-2.46-5.5-5.5v-5c0-3.04,2.46-5.5,5.5-5.5s5.5,2.46,5.5,5.5v5c0,3.04-2.46,5.5-5.5,5.5ZM4100.11,1714.76c-1.85,0-3.66-.94-4.7-2.63-1.58-2.59-.76-5.98,1.83-7.56,1.4-.86,2.8-1.72,4.19-2.6,2.57-1.62,5.97-.84,7.58,1.73,1.62,2.57.84,5.97-1.73,7.58-1.43.9-2.87,1.79-4.32,2.68-.89.55-1.88.81-2.86.81ZM4121.01,1701.01c-1.72,0-3.42-.81-4.49-2.32-1.76-2.48-1.17-5.91,1.31-7.67,1.34-.95,2.68-1.91,4-2.88,2.46-1.79,5.9-1.25,7.68,1.2,1.79,2.45,1.25,5.9-1.2,7.68-1.37,1-2.74,1.98-4.12,2.96-.97.68-2.08,1.01-3.18,1.01ZM3909.87,1692.17c-3.04,0-5.5-2.46-5.5-5.5v-5c0-3.04,2.46-5.5,5.5-5.5s5.5,2.46,5.5,5.5v5c0,3.04-2.46,5.5-5.5,5.5ZM4140.9,1685.87c-1.59,0-3.18-.69-4.26-2.02-1.92-2.35-1.57-5.82.78-7.74,1.27-1.04,2.54-2.08,3.8-3.14,2.33-1.95,5.8-1.65,7.75.68,1.95,2.33,1.65,5.8-.68,7.75-1.3,1.09-2.6,2.17-3.91,3.24-1.02.83-2.25,1.24-3.48,1.24ZM4159.72,1669.41c-1.47,0-2.93-.58-4.02-1.74-2.08-2.22-1.96-5.7.26-7.77,1.2-1.12,2.39-2.25,3.57-3.39,2.19-2.11,5.67-2.04,7.78.15,2.11,2.19,2.04,5.67-.15,7.78-1.22,1.17-2.45,2.34-3.68,3.49-1.06.99-2.41,1.48-3.76,1.48ZM3909.87,1667.17c-3.04,0-5.5-2.46-5.5-5.5v-5c0-3.04,2.46-5.5,5.5-5.5s5.5,2.46,5.5,5.5v5c0,3.04-2.46,5.5-5.5,5.5ZM4177.37,1651.73c-1.34,0-2.69-.49-3.75-1.48-2.22-2.07-2.34-5.55-.27-7.77,1.12-1.2,2.23-2.41,3.33-3.62,2.04-2.25,5.52-2.42,7.77-.38,2.25,2.04,2.42,5.52.38,7.77-1.14,1.25-2.28,2.5-3.43,3.73-1.08,1.16-2.55,1.75-4.02,1.75ZM3909.87,1642.17c-3.04,0-5.5-2.46-5.5-5.5v-5c0-3.04,2.46-5.5,5.5-5.5s5.5,2.46,5.5,5.5v5c0,3.04-2.46,5.5-5.5,5.5ZM4193.77,1632.88c-1.22,0-2.45-.4-3.47-1.23-2.36-1.92-2.71-5.38-.8-7.74,1.03-1.27,2.06-2.55,3.08-3.84,1.88-2.38,5.34-2.79,7.73-.9,2.38,1.88,2.79,5.34.9,7.73-1.05,1.33-2.1,2.64-3.17,3.95-1.09,1.34-2.67,2.03-4.27,2.03ZM3909.87,1617.17c-3.04,0-5.5-2.46-5.5-5.5v-5c0-3.04,2.46-5.5,5.5-5.5s5.5,2.46,5.5,5.5v5c0,3.04-2.46,5.5-5.5,5.5ZM4208.85,1612.98c-1.1,0-2.2-.33-3.17-1.01-2.48-1.75-3.07-5.18-1.32-7.67.94-1.34,1.88-2.68,2.8-4.03,1.72-2.5,5.14-3.15,7.65-1.43,2.51,1.72,3.15,5.14,1.43,7.65-.95,1.39-1.92,2.78-2.89,4.16-1.07,1.52-2.77,2.33-4.5,2.33ZM3909.87,1592.17c-3.04,0-5.5-2.46-5.5-5.5v-5c0-3.04,2.46-5.5,5.5-5.5s5.5,2.46,5.5,5.5v5c0,3.04-2.46,5.5-5.5,5.5ZM4222.54,1592.11c-.97,0-1.96-.26-2.85-.8-2.6-1.58-3.42-4.96-1.84-7.56.85-1.4,1.69-2.8,2.52-4.22,1.54-2.62,4.92-3.48,7.53-1.94,2.62,1.54,3.49,4.92,1.94,7.53-.86,1.45-1.72,2.9-2.6,4.34-1.04,1.7-2.85,2.64-4.7,2.64ZM4234.76,1570.35c-.85,0-1.72-.2-2.52-.62-2.7-1.4-3.75-4.72-2.35-7.41.75-1.45,1.5-2.91,2.23-4.38,1.36-2.71,4.66-3.81,7.38-2.45,2.72,1.36,3.81,4.67,2.45,7.38-.75,1.51-1.52,3.01-2.29,4.51-.98,1.89-2.9,2.97-4.89,2.97ZM3909.87,1567.17c-3.04,0-5.5-2.46-5.5-5.5v-5c0-3.04,2.46-5.5,5.5-5.5s5.5,2.46,5.5,5.5v5c0,3.04-2.46,5.5-5.5,5.5ZM4245.47,1547.83c-.73,0-1.47-.15-2.19-.46-2.79-1.21-4.07-4.45-2.86-7.24.65-1.5,1.29-3,1.92-4.51,1.17-2.8,4.39-4.12,7.19-2.96,2.8,1.17,4.13,4.39,2.96,7.19-.65,1.56-1.31,3.11-1.98,4.65-.9,2.07-2.92,3.31-5.05,3.31ZM3909.87,1542.17c-3.04,0-5.5-2.46-5.5-5.5v-5c0-3.04,2.46-5.5,5.5-5.5s5.5,2.46,5.5,5.5v5c0,3.04-2.46,5.5-5.5,5.5ZM4254.6,1524.64c-.61,0-1.23-.1-1.84-.32-2.86-1.02-4.36-4.16-3.34-7.02.55-1.54,1.08-3.09,1.61-4.65.97-2.88,4.1-4.42,6.97-3.44,2.88.97,4.42,4.1,3.44,6.97-.54,1.6-1.1,3.2-1.66,4.8-.8,2.25-2.92,3.66-5.18,3.66ZM3909.87,1517.17c-3.04,0-5.5-2.46-5.5-5.5v-5c0-3.04,2.46-5.5,5.5-5.5s5.5,2.46,5.5,5.5v5c0,3.04-2.46,5.5-5.5,5.5ZM4262.14,1500.81c-.49,0-.99-.07-1.48-.2-2.93-.82-4.64-3.85-3.82-6.78.44-1.58.87-3.16,1.29-4.75.77-2.94,3.78-4.69,6.72-3.92,2.94.77,4.69,3.78,3.92,6.72-.43,1.64-.88,3.27-1.33,4.9-.68,2.43-2.89,4.02-5.3,4.02ZM3909.87,1492.17c-3.04,0-5.5-2.46-5.5-5.5v-5c0-3.04,2.46-5.5,5.5-5.5s5.5,2.46,5.5,5.5v5c0,3.04-2.46,5.5-5.5,5.5ZM4268.02,1476.52c-.37,0-.74-.04-1.12-.11-2.98-.61-4.89-3.52-4.28-6.5.33-1.61.65-3.22.96-4.83.57-2.98,3.45-4.94,6.44-4.36,2.98.57,4.94,3.45,4.36,6.44-.32,1.66-.65,3.32-.99,4.98-.54,2.6-2.83,4.39-5.38,4.39ZM3909.87,1467.17c-3.04,0-5.5-2.46-5.5-5.5v-5c0-3.04,2.46-5.5,5.5-5.5s5.5,2.46,5.5,5.5v5c0,3.04-2.46,5.5-5.5,5.5ZM4272.21,1451.89c-.25,0-.49-.02-.74-.05-3.01-.41-5.12-3.18-4.71-6.19.22-1.63.43-3.25.63-4.89.37-3.02,3.11-5.17,6.12-4.8,3.02.37,5.16,3.11,4.8,6.12-.2,1.68-.42,3.36-.65,5.03-.37,2.76-2.73,4.77-5.44,4.77ZM3909.87,1442.17c-3.04,0-5.5-2.46-5.5-5.5v-5c0-3.04,2.46-5.5,5.5-5.5s5.5,2.46,5.5,5.5v5c0,3.04-2.46,5.5-5.5,5.5ZM4274.71,1427.03c-.12,0-.25,0-.37-.01-3.03-.2-5.32-2.82-5.12-5.85.11-1.63.21-3.27.29-4.92.16-3.03,2.72-5.39,5.78-5.2,3.03.16,5.36,2.75,5.2,5.78-.09,1.69-.19,3.38-.3,5.07-.19,2.91-2.61,5.13-5.48,5.13ZM3909.87,1417.17c-3.04,0-5.5-2.46-5.5-5.5v-5c0-3.04,2.46-5.5,5.5-5.5s5.5,2.46,5.5,5.5v5c0,3.04-2.46,5.5-5.5,5.5ZM4275.14,1402.44h-5c-3.04,0-5.5-2.46-5.5-5.5s2.46-5.5,5.5-5.5h5c3.04,0,5.5,2.46,5.5,5.5s-2.46,5.5-5.5,5.5ZM4250.14,1402.44h-5c-3.04,0-5.5-2.46-5.5-5.5s2.46-5.5,5.5-5.5h5c3.04,0,5.5,2.46,5.5,5.5s-2.46,5.5-5.5,5.5ZM4225.14,1402.44h-5c-3.04,0-5.5-2.46-5.5-5.5s2.46-5.5,5.5-5.5h5c3.04,0,5.5,2.46,5.5,5.5s-2.46,5.5-5.5,5.5ZM4200.14,1402.44h-5c-3.04,0-5.5-2.46-5.5-5.5s2.46-5.5,5.5-5.5h5c3.04,0,5.5,2.46,5.5,5.5s-2.46,5.5-5.5,5.5ZM4175.14,1402.44h-5c-3.04,0-5.5-2.46-5.5-5.5s2.46-5.5,5.5-5.5h5c3.04,0,5.5,2.46,5.5,5.5s-2.46,5.5-5.5,5.5ZM4150.14,1402.44h-5c-3.04,0-5.5-2.46-5.5-5.5s2.46-5.5,5.5-5.5h5c3.04,0,5.5,2.46,5.5,5.5s-2.46,5.5-5.5,5.5ZM4125.14,1402.44h-5c-3.04,0-5.5-2.46-5.5-5.5s2.46-5.5,5.5-5.5h5c3.04,0,5.5,2.46,5.5,5.5s-2.46,5.5-5.5,5.5ZM4100.14,1402.44h-5c-3.04,0-5.5-2.46-5.5-5.5s2.46-5.5,5.5-5.5h5c3.04,0,5.5,2.46,5.5,5.5s-2.46,5.5-5.5,5.5ZM4075.14,1402.44h-5c-3.04,0-5.5-2.46-5.5-5.5s2.46-5.5,5.5-5.5h5c3.04,0,5.5,2.46,5.5,5.5s-2.46,5.5-5.5,5.5ZM4050.14,1402.44h-5c-3.04,0-5.5-2.46-5.5-5.5s2.46-5.5,5.5-5.5h5c3.04,0,5.5,2.46,5.5,5.5s-2.46,5.5-5.5,5.5ZM4025.14,1402.44h-5c-3.04,0-5.5-2.46-5.5-5.5s2.46-5.5,5.5-5.5h5c3.04,0,5.5,2.46,5.5,5.5s-2.46,5.5-5.5,5.5ZM4000.14,1402.44h-5c-3.04,0-5.5-2.46-5.5-5.5s2.46-5.5,5.5-5.5h5c3.04,0,5.5,2.46,5.5,5.5s-2.46,5.5-5.5,5.5ZM3975.14,1402.44h-5c-3.04,0-5.5-2.46-5.5-5.5s2.46-5.5,5.5-5.5h5c3.04,0,5.5,2.46,5.5,5.5s-2.46,5.5-5.5,5.5ZM3950.14,1402.44h-5c-3.04,0-5.5-2.46-5.5-5.5s2.46-5.5,5.5-5.5h5c3.04,0,5.5,2.46,5.5,5.5s-2.46,5.5-5.5,5.5ZM3925.14,1402.44h-5c-3.04,0-5.5-2.46-5.5-5.5s2.46-5.5,5.5-5.5h5c3.04,0,5.5,2.46,5.5,5.5s-2.46,5.5-5.5,5.5Z"/>
        <path class="cls-8" d="M3934.58,1743.38c-3.04,0-5.5-2.46-5.5-5.5v-4.4c0-3.04,2.46-5.5,5.5-5.5,2.65,0,4.86,1.88,5.38,4.37,2.82.2,5.07,2.52,5.11,5.4.05,3.04-2.38,5.54-5.41,5.59-1.69.03-3.39.04-5.09.04ZM3959.54,1742.41c-2.84,0-5.25-2.19-5.48-5.07-.24-3.03,2.03-5.67,5.06-5.91,1.63-.13,3.26-.27,4.89-.42,3.04-.29,5.71,1.94,5.99,4.96.29,3.02-1.93,5.71-4.96,5.99-1.69.16-3.38.3-5.07.44-.15.01-.29.02-.43.02ZM3984.35,1739.49c-2.66,0-5-1.93-5.43-4.64-.47-3,1.57-5.82,4.57-6.29,1.62-.26,3.23-.52,4.85-.81,2.99-.52,5.84,1.48,6.36,4.47.52,2.99-1.48,5.84-4.47,6.36-1.67.29-3.34.57-5.02.84-.29.05-.58.07-.87.07ZM4008.85,1734.61c-2.48,0-4.74-1.69-5.34-4.21-.71-2.95,1.11-5.92,4.06-6.63,1.6-.38,3.19-.78,4.77-1.19,2.94-.76,5.94,1.02,6.7,3.96.76,2.94-1.02,5.94-3.96,6.7-1.64.42-3.28.83-4.93,1.23-.43.1-.87.15-1.29.15ZM4032.9,1727.8c-2.31,0-4.47-1.47-5.23-3.79-.94-2.89.63-5.99,3.52-6.94,1.56-.51,3.12-1.03,4.67-1.57,2.87-.99,6,.53,6.99,3.41.99,2.87-.53,6-3.41,6.99-1.61.55-3.22,1.1-4.84,1.63-.57.19-1.14.27-1.71.27ZM4056.37,1719.08c-2.15,0-4.2-1.27-5.08-3.38-1.17-2.8.15-6.02,2.96-7.2,1.52-.63,3.03-1.28,4.53-1.93,2.79-1.22,6.03.05,7.24,2.84,1.22,2.78-.05,6.03-2.84,7.24-1.56.68-3.12,1.35-4.69,2-.69.29-1.41.43-2.12.43ZM3934.58,1718.98c-3.04,0-5.5-2.46-5.5-5.5v-5c0-3.04,2.46-5.5,5.5-5.5s5.5,2.46,5.5,5.5v5c0,3.04-2.46,5.5-5.5,5.5ZM4079.07,1708.52c-2,0-3.92-1.09-4.89-2.98-1.39-2.7-.33-6.02,2.37-7.41,1.46-.75,2.92-1.52,4.36-2.29,2.68-1.43,6.01-.42,7.44,2.26,1.43,2.68.42,6.01-2.26,7.44-1.5.8-3,1.59-4.51,2.37-.81.42-1.67.61-2.51.61ZM4100.84,1696.2c-1.84,0-3.64-.92-4.68-2.6-1.6-2.58-.8-5.97,1.78-7.57,1.39-.86,2.78-1.74,4.16-2.62,2.55-1.64,5.96-.9,7.6,1.66,1.64,2.56.9,5.96-1.66,7.6-1.43.92-2.87,1.82-4.31,2.72-.9.56-1.9.83-2.89.83ZM3934.58,1693.98c-3.04,0-5.5-2.46-5.5-5.5v-5c0-3.04,2.46-5.5,5.5-5.5s5.5,2.46,5.5,5.5v5c0,3.04-2.46,5.5-5.5,5.5ZM4121.56,1682.21c-1.69,0-3.36-.78-4.44-2.25-1.8-2.45-1.27-5.89,1.18-7.69,1.32-.97,2.63-1.95,3.94-2.94,2.42-1.83,5.87-1.36,7.71,1.06,1.84,2.42,1.36,5.87-1.06,7.71-1.35,1.02-2.71,2.04-4.08,3.04-.98.72-2.12,1.07-3.25,1.07ZM3934.58,1668.98c-3.04,0-5.5-2.46-5.5-5.5v-5c0-3.04,2.46-5.5,5.5-5.5s5.5,2.46,5.5,5.5v5c0,3.04-2.46,5.5-5.5,5.5ZM4141.11,1666.63c-1.54,0-3.08-.65-4.17-1.91-1.98-2.3-1.73-5.77.57-7.76,1.24-1.07,2.47-2.15,3.69-3.24,2.27-2.02,5.75-1.82,7.77.45,2.02,2.27,1.82,5.75-.45,7.77-1.27,1.13-2.54,2.25-3.83,3.35-1.04.9-2.32,1.34-3.59,1.34ZM4159.37,1649.57c-1.4,0-2.8-.53-3.87-1.59-2.16-2.14-2.18-5.62-.04-7.78,1.15-1.16,2.29-2.34,3.43-3.52,2.1-2.19,5.58-2.27,7.78-.16,2.19,2.1,2.26,5.59.16,7.78-1.17,1.22-2.35,2.44-3.55,3.64-1.08,1.09-2.49,1.63-3.91,1.63ZM3934.58,1643.98c-3.04,0-5.5-2.46-5.5-5.5v-5c0-3.04,2.46-5.5,5.5-5.5s5.5,2.46,5.5,5.5v5c0,3.04-2.46,5.5-5.5,5.5ZM4176.23,1631.13c-1.25,0-2.51-.43-3.55-1.3-2.32-1.96-2.61-5.43-.65-7.75,1.06-1.25,2.1-2.51,3.14-3.78,1.92-2.35,5.39-2.69,7.74-.77,2.35,1.93,2.69,5.39.77,7.74-1.07,1.31-2.16,2.61-3.25,3.9-1.09,1.29-2.64,1.95-4.2,1.95ZM3934.58,1618.98c-3.04,0-5.5-2.46-5.5-5.5v-5c0-3.04,2.46-5.5,5.5-5.5s5.5,2.46,5.5,5.5v5c0,3.04-2.46,5.5-5.5,5.5ZM4191.59,1611.44c-1.11,0-2.23-.34-3.21-1.03-2.47-1.77-3.03-5.21-1.26-7.68.95-1.33,1.9-2.66,2.83-4,1.73-2.49,5.16-3.11,7.66-1.38,2.49,1.73,3.11,5.16,1.38,7.66-.97,1.39-1.94,2.77-2.93,4.15-1.07,1.5-2.76,2.29-4.47,2.29ZM3934.58,1593.98c-3.04,0-5.5-2.46-5.5-5.5v-5c0-3.04,2.46-5.5,5.5-5.5s5.5,2.46,5.5,5.5v5c0,3.04-2.46,5.5-5.5,5.5ZM4205.34,1590.6c-.97,0-1.95-.26-2.84-.79-2.6-1.57-3.43-4.95-1.86-7.55.85-1.4,1.68-2.8,2.51-4.21,1.53-2.62,4.9-3.51,7.52-1.97,2.62,1.53,3.51,4.9,1.97,7.52-.85,1.46-1.72,2.91-2.59,4.36-1.03,1.71-2.85,2.65-4.71,2.65ZM3934.58,1568.98c-3.04,0-5.5-2.46-5.5-5.5v-5c0-3.04,2.46-5.5,5.5-5.5s5.5,2.46,5.5,5.5v5c0,3.04-2.46,5.5-5.5,5.5ZM4217.41,1568.76c-.83,0-1.67-.19-2.46-.59-2.72-1.36-3.81-4.67-2.45-7.38.73-1.46,1.45-2.92,2.16-4.39,1.32-2.74,4.61-3.88,7.34-2.57,2.74,1.32,3.88,4.61,2.57,7.34-.73,1.52-1.48,3.04-2.24,4.55-.96,1.92-2.91,3.04-4.92,3.04ZM4227.7,1546.04c-.69,0-1.39-.13-2.07-.41-2.81-1.14-4.17-4.35-3.03-7.17.62-1.52,1.22-3.04,1.81-4.57,1.1-2.83,4.28-4.23,7.12-3.14,2.83,1.1,4.24,4.29,3.14,7.12-.61,1.58-1.24,3.16-1.88,4.73-.87,2.14-2.93,3.43-5.1,3.43ZM3934.58,1543.98c-3.04,0-5.5-2.46-5.5-5.5v-5c0-3.04,2.46-5.5,5.5-5.5s5.5,2.46,5.5,5.5v5c0,3.04-2.46,5.5-5.5,5.5ZM4236.18,1522.53c-.55,0-1.11-.08-1.66-.26-2.9-.91-4.5-4.01-3.59-6.9.49-1.56.97-3.12,1.44-4.7.87-2.91,3.93-4.57,6.84-3.7,2.91.87,4.57,3.93,3.7,6.84-.49,1.63-.98,3.25-1.49,4.86-.74,2.34-2.91,3.84-5.24,3.84ZM3934.58,1518.98c-3.04,0-5.5-2.46-5.5-5.5v-5c0-3.04,2.46-5.5,5.5-5.5s5.5,2.46,5.5,5.5v5c0,3.04-2.46,5.5-5.5,5.5ZM4242.75,1498.43c-.41,0-.83-.05-1.24-.14-2.96-.68-4.81-3.64-4.12-6.59.37-1.59.72-3.19,1.06-4.8.63-2.97,3.55-4.86,6.53-4.23,2.97.63,4.86,3.56,4.23,6.53-.36,1.66-.72,3.32-1.1,4.97-.59,2.54-2.85,4.27-5.35,4.27ZM3934.58,1493.98c-3.04,0-5.5-2.46-5.5-5.5v-5c0-3.04,2.46-5.5,5.5-5.5s5.5,2.46,5.5,5.5v5c0,3.04-2.46,5.5-5.5,5.5ZM4247.39,1473.88c-.27,0-.54-.02-.81-.06-3-.45-5.08-3.24-4.63-6.25.24-1.62.47-3.24.68-4.86.4-3.01,3.15-5.13,6.17-4.74,3.01.4,5.13,3.16,4.74,6.17-.22,1.68-.46,3.36-.71,5.04-.41,2.73-2.75,4.69-5.43,4.69ZM3934.58,1468.98c-3.04,0-5.5-2.46-5.5-5.5v-5c0-3.04,2.46-5.5,5.5-5.5s5.5,2.46,5.5,5.5v5c0,3.04-2.46,5.5-5.5,5.5ZM4250.08,1449.04c-.13,0-.25,0-.38-.01-3.03-.21-5.32-2.83-5.11-5.86.11-1.63.21-3.27.3-4.91.16-3.03,2.77-5.34,5.79-5.2,3.03.16,5.36,2.75,5.2,5.79-.09,1.69-.19,3.38-.31,5.07-.2,2.9-2.62,5.13-5.48,5.13ZM3934.58,1443.98c-3.04,0-5.5-2.46-5.5-5.5v-5c0-3.04,2.46-5.5,5.5-5.5s5.5,2.46,5.5,5.5v5c0,3.04-2.46,5.5-5.5,5.5ZM4247.73,1427.14h-5c-3.04,0-5.5-2.46-5.5-5.5s2.46-5.5,5.5-5.5h5c3.04,0,5.5,2.46,5.5,5.5s-2.46,5.5-5.5,5.5ZM4222.73,1427.14h-5c-3.04,0-5.5-2.46-5.5-5.5s2.46-5.5,5.5-5.5h5c3.04,0,5.5,2.46,5.5,5.5s-2.46,5.5-5.5,5.5ZM4197.73,1427.14h-5c-3.04,0-5.5-2.46-5.5-5.5s2.46-5.5,5.5-5.5h5c3.04,0,5.5,2.46,5.5,5.5s-2.46,5.5-5.5,5.5ZM4172.73,1427.14h-5c-3.04,0-5.5-2.46-5.5-5.5s2.46-5.5,5.5-5.5h5c3.04,0,5.5,2.46,5.5,5.5s-2.46,5.5-5.5,5.5ZM4147.73,1427.14h-5c-3.04,0-5.5-2.46-5.5-5.5s2.46-5.5,5.5-5.5h5c3.04,0,5.5,2.46,5.5,5.5s-2.46,5.5-5.5,5.5ZM4122.73,1427.14h-5c-3.04,0-5.5-2.46-5.5-5.5s2.46-5.5,5.5-5.5h5c3.04,0,5.5,2.46,5.5,5.5s-2.46,5.5-5.5,5.5ZM4097.73,1427.14h-5c-3.04,0-5.5-2.46-5.5-5.5s2.46-5.5,5.5-5.5h5c3.04,0,5.5,2.46,5.5,5.5s-2.46,5.5-5.5,5.5ZM4072.73,1427.14h-5c-3.04,0-5.5-2.46-5.5-5.5s2.46-5.5,5.5-5.5h5c3.04,0,5.5,2.46,5.5,5.5s-2.46,5.5-5.5,5.5ZM4047.73,1427.14h-5c-3.04,0-5.5-2.46-5.5-5.5s2.46-5.5,5.5-5.5h5c3.04,0,5.5,2.46,5.5,5.5s-2.46,5.5-5.5,5.5ZM4022.73,1427.14h-5c-3.04,0-5.5-2.46-5.5-5.5s2.46-5.5,5.5-5.5h5c3.04,0,5.5,2.46,5.5,5.5s-2.46,5.5-5.5,5.5ZM3997.73,1427.14h-5c-3.04,0-5.5-2.46-5.5-5.5s2.46-5.5,5.5-5.5h5c3.04,0,5.5,2.46,5.5,5.5s-2.46,5.5-5.5,5.5ZM3972.73,1427.14h-5c-3.04,0-5.5-2.46-5.5-5.5s2.46-5.5,5.5-5.5h5c3.04,0,5.5,2.46,5.5,5.5s-2.46,5.5-5.5,5.5ZM3947.73,1427.14h-5c-3.04,0-5.5-2.46-5.5-5.5s2.46-5.5,5.5-5.5h5c3.04,0,5.5,2.46,5.5,5.5s-2.46,5.5-5.5,5.5Z"/>
        <path class="cls-8" d="M3959.28,1718.68c-3.04,0-5.5-2.46-5.5-5.5v-2.97c0-3.04,2.46-5.5,5.5-5.5,2.11,0,3.94,1.18,4.86,2.92.05,0,.09,0,.14,0,2.99,0,5.44,2.4,5.5,5.4.06,3.04-2.36,5.54-5.4,5.6-1.7.03-3.4.05-5.1.05ZM3984.23,1717.52c-2.81,0-5.21-2.14-5.47-4.99-.28-3.03,1.94-5.7,4.97-5.99,1.63-.15,3.25-.32,4.87-.5,3.01-.34,5.74,1.83,6.08,4.85.34,3.02-1.83,5.74-4.85,6.08-1.69.19-3.38.36-5.08.52-.17.02-.34.02-.52.02ZM4008.97,1714.06c-2.59,0-4.9-1.84-5.4-4.48-.56-2.99,1.4-5.86,4.39-6.42,1.61-.3,3.21-.62,4.8-.95,2.97-.61,5.88,1.29,6.5,4.27.62,2.97-1.29,5.89-4.27,6.5-1.66.35-3.33.68-5.01.99-.34.06-.69.1-1.02.1ZM4033.28,1708.28c-2.39,0-4.59-1.57-5.28-3.98-.84-2.92.84-5.97,3.76-6.81,1.57-.45,3.13-.92,4.69-1.4,2.91-.9,5.98.73,6.88,3.63.9,2.9-.73,5.98-3.63,6.88-1.62.5-3.25.99-4.89,1.46-.51.15-1.02.22-1.53.22ZM4056.96,1700.23c-2.19,0-4.27-1.32-5.12-3.49-1.11-2.83.28-6.02,3.1-7.13,1.52-.6,3.04-1.21,4.55-1.84,2.81-1.17,6.02.16,7.19,2.96,1.17,2.8-.16,6.02-2.96,7.19-1.58.66-3.16,1.3-4.75,1.92-.66.26-1.34.38-2.01.38ZM3959.28,1695.71c-3.04,0-5.5-2.46-5.5-5.5v-5c0-3.04,2.46-5.5,5.5-5.5s5.5,2.46,5.5,5.5v5c0,3.04-2.46,5.5-5.5,5.5ZM4079.78,1689.99c-2.01,0-3.94-1.1-4.91-3.01-1.37-2.71-.29-6.02,2.42-7.39,1.46-.74,2.91-1.49,4.36-2.26,2.68-1.42,6.01-.4,7.44,2.28,1.42,2.68.4,6.01-2.28,7.44-1.5.8-3.02,1.58-4.54,2.35-.8.4-1.65.6-2.48.6ZM4101.53,1677.64c-1.82,0-3.61-.91-4.65-2.56-1.62-2.57-.86-5.96,1.71-7.59,1.38-.87,2.76-1.76,4.12-2.66,2.54-1.67,5.95-.97,7.62,1.57,1.67,2.54.96,5.95-1.57,7.62-1.42.94-2.85,1.86-4.29,2.77-.91.58-1.93.85-2.93.85ZM3959.28,1670.71c-3.04,0-5.5-2.46-5.5-5.5v-5c0-3.04,2.46-5.5,5.5-5.5s5.5,2.46,5.5,5.5v5c0,3.04-2.46,5.5-5.5,5.5ZM4122.02,1663.32c-1.65,0-3.28-.74-4.36-2.14-1.85-2.41-1.41-5.86,1-7.71,1.29-1,2.58-2.01,3.85-3.03,2.37-1.9,5.83-1.52,7.73.85,1.9,2.37,1.52,5.83-.85,7.73-1.33,1.06-2.67,2.11-4.01,3.15-1,.77-2.18,1.14-3.35,1.14ZM4141.08,1647.16c-1.47,0-2.94-.59-4.03-1.75-2.07-2.22-1.95-5.7.28-7.77,1.19-1.11,2.38-2.24,3.55-3.37,2.18-2.11,5.67-2.05,7.78.13,2.11,2.18,2.05,5.67-.13,7.78-1.22,1.18-2.46,2.35-3.7,3.51-1.06.99-2.41,1.47-3.75,1.47ZM3959.28,1645.71c-3.04,0-5.5-2.46-5.5-5.5v-5c0-3.04,2.46-5.5,5.5-5.5s5.5,2.46,5.5,5.5v5c0,3.04-2.46,5.5-5.5,5.5ZM4158.55,1629.3c-1.3,0-2.61-.46-3.66-1.39-2.27-2.02-2.47-5.5-.45-7.76,1.09-1.22,2.16-2.45,3.22-3.69,1.98-2.3,5.45-2.57,7.76-.59,2.3,1.98,2.57,5.45.59,7.76-1.11,1.29-2.23,2.57-3.36,3.84-1.09,1.22-2.59,1.84-4.11,1.84ZM3959.28,1620.71c-3.04,0-5.5-2.46-5.5-5.5v-5c0-3.04,2.46-5.5,5.5-5.5s5.5,2.46,5.5,5.5v5c0,3.04-2.46,5.5-5.5,5.5ZM4174.28,1609.9c-1.13,0-2.27-.35-3.26-1.07-2.45-1.8-2.97-5.24-1.17-7.69.97-1.31,1.92-2.63,2.86-3.96,1.75-2.48,5.19-3.07,7.67-1.31,2.48,1.75,3.07,5.19,1.31,7.67-.98,1.39-1.98,2.76-2.98,4.13-1.08,1.46-2.75,2.24-4.43,2.24ZM3959.28,1595.71c-3.04,0-5.5-2.46-5.5-5.5v-5c0-3.04,2.46-5.5,5.5-5.5s5.5,2.46,5.5,5.5v5c0,3.04-2.46,5.5-5.5,5.5ZM4188.13,1589.12c-.97,0-1.94-.25-2.83-.79-2.6-1.57-3.44-4.95-1.88-7.55.84-1.39,1.66-2.8,2.48-4.21,1.52-2.63,4.88-3.54,7.51-2.02,2.63,1.51,3.54,4.88,2.02,7.51-.85,1.47-1.71,2.94-2.58,4.39-1.03,1.72-2.85,2.67-4.72,2.67ZM3959.28,1570.71c-3.04,0-5.5-2.46-5.5-5.5v-5c0-3.04,2.46-5.5,5.5-5.5s5.5,2.46,5.5,5.5v5c0,3.04-2.46,5.5-5.5,5.5ZM4199.98,1567.15c-.8,0-1.61-.17-2.38-.54-2.74-1.31-3.89-4.6-2.58-7.34.7-1.47,1.39-2.94,2.07-4.42,1.26-2.76,4.53-3.98,7.29-2.72,2.76,1.26,3.98,4.53,2.72,7.29-.71,1.54-1.42,3.08-2.16,4.61-.95,1.97-2.91,3.12-4.96,3.12ZM3959.28,1545.71c-3.04,0-5.5-2.46-5.5-5.5v-5c0-3.04,2.46-5.5,5.5-5.5s5.5,2.46,5.5,5.5v5c0,3.04-2.46,5.5-5.5,5.5ZM4209.71,1544.18c-.63,0-1.27-.11-1.9-.34-2.85-1.05-4.31-4.21-3.26-7.06.56-1.53,1.11-3.07,1.65-4.61,1-2.87,4.14-4.38,7-3.39,2.87,1,4.39,4.13,3.39,7-.56,1.61-1.13,3.21-1.72,4.8-.82,2.22-2.92,3.6-5.16,3.6ZM3959.28,1520.71c-3.04,0-5.5-2.46-5.5-5.5v-5c0-3.04,2.46-5.5,5.5-5.5s5.5,2.46,5.5,5.5v5c0,3.04-2.46,5.5-5.5,5.5ZM4217.24,1520.36c-.47,0-.94-.06-1.41-.18-2.94-.78-4.69-3.79-3.91-6.72.42-1.58.82-3.16,1.21-4.75.72-2.95,3.7-4.75,6.65-4.03,2.95.72,4.75,3.7,4.03,6.65-.41,1.65-.83,3.3-1.26,4.94-.65,2.46-2.88,4.09-5.31,4.09ZM4222.5,1495.93c-.3,0-.6-.02-.91-.08-3-.5-5.02-3.33-4.53-6.33.27-1.61.52-3.22.76-4.84.44-3.01,3.24-5.08,6.24-4.64,3.01.44,5.08,3.24,4.64,6.24-.25,1.68-.51,3.36-.79,5.04-.45,2.69-2.78,4.6-5.42,4.6ZM3959.28,1495.71c-3.04,0-5.5-2.46-5.5-5.5v-5c0-3.04,2.46-5.5,5.5-5.5s5.5,2.46,5.5,5.5v5c0,3.04-2.46,5.5-5.5,5.5ZM4225.43,1471.12c-.13,0-.26,0-.4-.01-3.03-.22-5.31-2.85-5.1-5.88.12-1.63.22-3.25.3-4.89.16-3.03,2.75-5.38,5.78-5.2,3.03.16,5.36,2.75,5.2,5.78-.09,1.7-.2,3.4-.32,5.09-.21,2.9-2.62,5.11-5.48,5.11ZM3959.28,1470.71c-3.04,0-5.5-2.46-5.5-5.5v-5c0-3.04,2.46-5.5,5.5-5.5s5.5,2.46,5.5,5.5v5c0,3.04-2.46,5.5-5.5,5.5ZM4220.41,1451.84h-5c-3.04,0-5.5-2.46-5.5-5.5s2.46-5.5,5.5-5.5h5c3.04,0,5.5,2.46,5.5,5.5s-2.46,5.5-5.5,5.5ZM4195.41,1451.84h-5c-3.04,0-5.5-2.46-5.5-5.5s2.46-5.5,5.5-5.5h5c3.04,0,5.5,2.46,5.5,5.5s-2.46,5.5-5.5,5.5ZM4170.41,1451.84h-5c-3.04,0-5.5-2.46-5.5-5.5s2.46-5.5,5.5-5.5h5c3.04,0,5.5,2.46,5.5,5.5s-2.46,5.5-5.5,5.5ZM4145.41,1451.84h-5c-3.04,0-5.5-2.46-5.5-5.5s2.46-5.5,5.5-5.5h5c3.04,0,5.5,2.46,5.5,5.5s-2.46,5.5-5.5,5.5ZM4120.41,1451.84h-5c-3.04,0-5.5-2.46-5.5-5.5s2.46-5.5,5.5-5.5h5c3.04,0,5.5,2.46,5.5,5.5s-2.46,5.5-5.5,5.5ZM4095.41,1451.84h-5c-3.04,0-5.5-2.46-5.5-5.5s2.46-5.5,5.5-5.5h5c3.04,0,5.5,2.46,5.5,5.5s-2.46,5.5-5.5,5.5ZM4070.41,1451.84h-5c-3.04,0-5.5-2.46-5.5-5.5s2.46-5.5,5.5-5.5h5c3.04,0,5.5,2.46,5.5,5.5s-2.46,5.5-5.5,5.5ZM4045.41,1451.84h-5c-3.04,0-5.5-2.46-5.5-5.5s2.46-5.5,5.5-5.5h5c3.04,0,5.5,2.46,5.5,5.5s-2.46,5.5-5.5,5.5ZM4020.41,1451.84h-5c-3.04,0-5.5-2.46-5.5-5.5s2.46-5.5,5.5-5.5h5c3.04,0,5.5,2.46,5.5,5.5s-2.46,5.5-5.5,5.5ZM3995.41,1451.84h-5c-3.04,0-5.5-2.46-5.5-5.5s2.46-5.5,5.5-5.5h5c3.04,0,5.5,2.46,5.5,5.5s-2.46,5.5-5.5,5.5ZM3970.41,1451.84h-5c-3.04,0-5.5-2.46-5.5-5.5s2.46-5.5,5.5-5.5h5c3.04,0,5.5,2.46,5.5,5.5s-2.46,5.5-5.5,5.5Z"/>
        <path class="cls-8" d="M3983.98,1693.97c-3.04,0-5.5-2.46-5.5-5.5v-1.52c0-3.04,2.46-5.5,5.5-5.5,1.45,0,2.78.57,3.76,1.49.37,0,.74-.01,1.11-.02,3.05-.04,5.55,2.34,5.62,5.37.07,3.04-2.34,5.55-5.37,5.62-1.7.04-3.41.06-5.12.06ZM4008.92,1692.56c-2.76,0-5.14-2.07-5.46-4.88-.34-3.02,1.82-5.74,4.84-6.09,1.62-.18,3.23-.39,4.83-.61,3.01-.41,5.78,1.69,6.2,4.7.41,3.01-1.69,5.78-4.7,6.2-1.69.23-3.38.45-5.08.64-.21.02-.42.04-.63.04ZM4033.53,1688.3c-2.5,0-4.76-1.71-5.35-4.25-.69-2.96,1.15-5.92,4.11-6.61,1.58-.37,3.16-.76,4.73-1.16,2.94-.76,5.94,1.01,6.7,3.95s-1.01,5.94-3.95,6.7c-1.65.43-3.31.83-4.98,1.22-.42.1-.84.14-1.25.14ZM4057.49,1681.24c-2.26,0-4.37-1.4-5.18-3.64-1.03-2.86.46-6.01,3.32-7.04,1.53-.55,3.06-1.12,4.58-1.7,2.84-1.1,6.02.32,7.11,3.15,1.09,2.83-.32,6.02-3.15,7.11-1.6.62-3.21,1.22-4.82,1.8-.61.22-1.24.33-1.86.33ZM3983.98,1672.45c-3.04,0-5.5-2.46-5.5-5.5v-5c0-3.04,2.46-5.5,5.5-5.5s5.5,2.46,5.5,5.5v5c0,3.04-2.46,5.5-5.5,5.5ZM4080.5,1671.44c-2.02,0-3.97-1.12-4.93-3.06-1.35-2.72-.24-6.02,2.48-7.37,1.46-.72,2.91-1.47,4.35-2.22,2.69-1.41,6.01-.38,7.43,2.31s.38,6.01-2.31,7.43c-1.51.79-3.04,1.57-4.57,2.33-.79.39-1.62.57-2.44.57ZM4102.21,1659.06c-1.8,0-3.56-.88-4.62-2.51-1.65-2.55-.93-5.95,1.62-7.61,1.37-.89,2.72-1.79,4.06-2.7,2.51-1.71,5.93-1.06,7.64,1.45,1.71,2.51,1.06,5.93-1.45,7.64-1.41.96-2.84,1.91-4.27,2.84-.92.6-1.96.89-2.99.89ZM3983.98,1647.45c-3.04,0-5.5-2.46-5.5-5.5v-5c0-3.04,2.46-5.5,5.5-5.5s5.5,2.46,5.5,5.5v5c0,3.04-2.46,5.5-5.5,5.5ZM4122.35,1644.27c-1.58,0-3.16-.68-4.24-2-1.93-2.34-1.6-5.81.74-7.74,1.25-1.03,2.49-2.08,3.72-3.15,2.29-1.99,5.77-1.74,7.76.56,1.99,2.3,1.74,5.77-.56,7.76-1.29,1.12-2.6,2.22-3.92,3.31-1.03.85-2.27,1.26-3.5,1.26ZM4140.67,1627.29c-1.37,0-2.75-.51-3.81-1.54-2.19-2.11-2.25-5.59-.15-7.78,1.13-1.17,2.24-2.35,3.34-3.55,2.05-2.24,5.54-2.38,7.77-.33,2.24,2.05,2.38,5.53.33,7.77-1.16,1.26-2.33,2.5-3.51,3.73-1.08,1.12-2.52,1.69-3.96,1.69ZM3983.98,1622.45c-3.04,0-5.5-2.46-5.5-5.5v-5c0-3.04,2.46-5.5,5.5-5.5s5.5,2.46,5.5,5.5v5c0,3.04-2.46,5.5-5.5,5.5ZM4156.94,1608.33c-1.16,0-2.34-.37-3.33-1.13-2.41-1.84-2.88-5.29-1.03-7.71.98-1.29,1.95-2.59,2.91-3.9,1.79-2.45,5.22-3,7.68-1.21,2.46,1.79,3,5.23,1.21,7.68-1,1.38-2.02,2.75-3.06,4.11-1.08,1.42-2.72,2.16-4.38,2.16ZM3983.98,1597.45c-3.04,0-5.5-2.46-5.5-5.5v-5c0-3.04,2.46-5.5,5.5-5.5s5.5,2.46,5.5,5.5v5c0,3.04-2.46,5.5-5.5,5.5ZM4170.92,1587.64c-.96,0-1.93-.25-2.81-.78-2.61-1.55-3.46-4.93-1.91-7.54.83-1.39,1.64-2.79,2.44-4.21,1.49-2.64,4.85-3.58,7.49-2.08,2.64,1.49,3.58,4.85,2.08,7.49-.84,1.48-1.69,2.96-2.57,4.42-1.03,1.73-2.86,2.69-4.73,2.69ZM3983.98,1572.45c-3.04,0-5.5-2.46-5.5-5.5v-5c0-3.04,2.46-5.5,5.5-5.5s5.5,2.46,5.5,5.5v5c0,3.04-2.46,5.5-5.5,5.5ZM4182.44,1565.49c-.75,0-1.52-.16-2.25-.48-2.77-1.24-4.01-4.5-2.76-7.27.66-1.47,1.31-2.96,1.94-4.45,1.18-2.8,4.4-4.11,7.2-2.93,2.8,1.18,4.11,4.4,2.93,7.2-.66,1.57-1.34,3.13-2.04,4.69-.92,2.04-2.92,3.25-5.02,3.25ZM3983.98,1547.45c-3.04,0-5.5-2.46-5.5-5.5v-5c0-3.04,2.46-5.5,5.5-5.5s5.5,2.46,5.5,5.5v5c0,3.04-2.46,5.5-5.5,5.5ZM4191.33,1542.17c-.55,0-1.11-.08-1.66-.26-2.9-.92-4.5-4.01-3.59-6.9.49-1.55.96-3.1,1.41-4.66.85-2.92,3.9-4.6,6.82-3.75,2.92.85,4.59,3.9,3.75,6.82-.48,1.64-.97,3.28-1.49,4.91-.74,2.34-2.91,3.84-5.24,3.84ZM3983.98,1522.45c-3.04,0-5.5-2.46-5.5-5.5v-5c0-3.04,2.46-5.5,5.5-5.5s5.5,2.46,5.5,5.5v5c0,3.04-2.46,5.5-5.5,5.5ZM4197.48,1517.96c-.34,0-.69-.03-1.05-.1-2.98-.57-4.94-3.46-4.36-6.44.31-1.59.6-3.19.87-4.8.51-3,3.35-5.01,6.34-4.51,3,.51,5.01,3.34,4.51,6.34-.29,1.69-.59,3.37-.91,5.04-.51,2.63-2.81,4.46-5.39,4.46ZM3983.98,1497.45c-3.04,0-5.5-2.46-5.5-5.5v-5c0-3.04,2.46-5.5,5.5-5.5s5.5,2.46,5.5,5.5v5c0,3.04-2.46,5.5-5.5,5.5ZM4200.79,1493.2c-.14,0-.28,0-.42-.02-3.03-.23-5.3-2.87-5.07-5.9.12-1.62.23-3.24.31-4.86.16-3.03,2.74-5.39,5.78-5.2,3.03.16,5.36,2.75,5.2,5.78-.09,1.71-.2,3.42-.33,5.12-.22,2.89-2.63,5.08-5.48,5.08ZM4193.08,1476.55h-5c-3.04,0-5.5-2.46-5.5-5.5s2.46-5.5,5.5-5.5h5c3.04,0,5.5,2.46,5.5,5.5s-2.46,5.5-5.5,5.5ZM4168.08,1476.55h-5c-3.04,0-5.5-2.46-5.5-5.5s2.46-5.5,5.5-5.5h5c3.04,0,5.5,2.46,5.5,5.5s-2.46,5.5-5.5,5.5ZM4143.08,1476.55h-5c-3.04,0-5.5-2.46-5.5-5.5s2.46-5.5,5.5-5.5h5c3.04,0,5.5,2.46,5.5,5.5s-2.46,5.5-5.5,5.5ZM4118.08,1476.55h-5c-3.04,0-5.5-2.46-5.5-5.5s2.46-5.5,5.5-5.5h5c3.04,0,5.5,2.46,5.5,5.5s-2.46,5.5-5.5,5.5ZM4093.08,1476.55h-5c-3.04,0-5.5-2.46-5.5-5.5s2.46-5.5,5.5-5.5h5c3.04,0,5.5,2.46,5.5,5.5s-2.46,5.5-5.5,5.5ZM4068.08,1476.55h-5c-3.04,0-5.5-2.46-5.5-5.5s2.46-5.5,5.5-5.5h5c3.04,0,5.5,2.46,5.5,5.5s-2.46,5.5-5.5,5.5ZM4043.08,1476.55h-5c-3.04,0-5.5-2.46-5.5-5.5s2.46-5.5,5.5-5.5h5c3.04,0,5.5,2.46,5.5,5.5s-2.46,5.5-5.5,5.5ZM4018.08,1476.55h-5c-3.04,0-5.5-2.46-5.5-5.5s2.46-5.5,5.5-5.5h5c3.04,0,5.5,2.46,5.5,5.5s-2.46,5.5-5.5,5.5ZM3993.08,1476.55h-5c-3.04,0-5.5-2.46-5.5-5.5s2.46-5.5,5.5-5.5h5c3.04,0,5.5,2.46,5.5,5.5s-2.46,5.5-5.5,5.5Z"/>
        <path class="cls-8" d="M4008.69,1669.27c-3.04,0-5.5-2.46-5.5-5.5s2.46-5.53,5.5-5.53c.18,0,.36,0,.53.03,1.44,0,2.88-.03,4.3-.07,3.07-.05,5.57,2.3,5.66,5.34.09,3.04-2.3,5.57-5.34,5.66-1.71.05-3.44.08-5.16.08ZM4033.58,1667.44c-2.68,0-5.03-1.96-5.43-4.69-.45-3,1.63-5.8,4.63-6.25,1.59-.24,3.19-.5,4.77-.78,2.99-.54,5.85,1.45,6.39,4.44.54,2.99-1.45,5.85-4.44,6.39-1.68.3-3.4.58-5.1.84-.27.04-.54.06-.81.06ZM4057.94,1661.94c-2.35,0-4.53-1.52-5.26-3.89-.89-2.9.74-5.98,3.65-6.87,1.54-.47,3.1-.97,4.61-1.49,2.88-.98,6,.56,6.98,3.44.98,2.88-.56,6-3.44,6.98-1.62.55-3.28,1.09-4.93,1.59-.54.16-1.08.24-1.61.24ZM4081.23,1652.85c-2.05,0-4.02-1.15-4.96-3.12-1.31-2.74-.16-6.02,2.58-7.34,1.46-.7,2.92-1.43,4.34-2.16,2.7-1.39,6.02-.34,7.41,2.36,1.39,2.7.34,6.02-2.36,7.41-1.51.78-3.07,1.56-4.63,2.31-.77.37-1.58.54-2.37.54ZM4008.69,1649.22c-3.04,0-5.5-2.46-5.5-5.5v-5c0-3.04,2.46-5.5,5.5-5.5s5.5,2.46,5.5,5.5v5c0,3.04-2.46,5.5-5.5,5.5ZM4102.9,1640.4c-1.76,0-3.49-.85-4.56-2.41-1.71-2.51-1.05-5.93,1.46-7.64,1.32-.9,2.66-1.83,3.96-2.78,2.46-1.78,5.9-1.23,7.68,1.24,1.78,2.46,1.23,5.9-1.24,7.68-1.4,1.01-2.82,2.01-4.23,2.96-.95.64-2.02.95-3.08.95ZM4122.47,1624.88c-1.48,0-2.96-.6-4.05-1.77-2.06-2.23-1.92-5.71.32-7.77,1.19-1.09,2.37-2.21,3.51-3.33,2.17-2.12,5.66-2.08,7.78.09,2.12,2.17,2.08,5.66-.09,7.78-1.22,1.19-2.48,2.39-3.74,3.55-1.06.97-2.39,1.46-3.73,1.46ZM4008.69,1624.22c-3.04,0-5.5-2.46-5.5-5.5v-5c0-3.04,2.46-5.5,5.5-5.5s5.5,2.46,5.5,5.5v5c0,3.04-2.46,5.5-5.5,5.5ZM4139.54,1606.65c-1.21,0-2.43-.4-3.45-1.22-2.37-1.91-2.74-5.37-.83-7.73,1.01-1.25,2.01-2.54,2.98-3.81,1.84-2.42,5.29-2.89,7.71-1.06,2.42,1.84,2.89,5.29,1.06,7.71-1.03,1.36-2.1,2.72-3.18,4.06-1.09,1.35-2.68,2.05-4.28,2.05ZM4008.69,1599.22c-3.04,0-5.5-2.46-5.5-5.5v-5c0-3.04,2.46-5.5,5.5-5.5s5.5,2.46,5.5,5.5v5c0,3.04-2.46,5.5-5.5,5.5ZM4153.72,1586.12c-.95,0-1.9-.24-2.78-.76-2.62-1.54-3.5-4.91-1.96-7.53.81-1.38,1.61-2.8,2.38-4.2,1.46-2.67,4.8-3.64,7.46-2.19,2.67,1.46,3.64,4.8,2.19,7.46-.82,1.5-1.67,3.01-2.54,4.48-1.02,1.75-2.86,2.72-4.75,2.72ZM4008.69,1574.22c-3.04,0-5.5-2.46-5.5-5.5v-5c0-3.04,2.46-5.5,5.5-5.5s5.5,2.46,5.5,5.5v5c0,3.04-2.46,5.5-5.5,5.5ZM4164.71,1563.72c-.68,0-1.37-.13-2.04-.4-2.82-1.13-4.19-4.33-3.06-7.15.59-1.48,1.18-3,1.73-4.52,1.04-2.85,4.2-4.32,7.06-3.27,2.85,1.05,4.32,4.21,3.27,7.06-.59,1.62-1.21,3.24-1.85,4.82-.86,2.15-2.93,3.45-5.11,3.45ZM4008.69,1549.22c-3.04,0-5.5-2.46-5.5-5.5v-5c0-3.04,2.46-5.5,5.5-5.5s5.5,2.46,5.5,5.5v5c0,3.04-2.46,5.5-5.5,5.5ZM4172.24,1539.91c-.42,0-.84-.05-1.26-.15-2.96-.7-4.79-3.66-4.09-6.61.36-1.55.71-3.14,1.04-4.73.61-2.98,3.52-4.89,6.49-4.29,2.98.61,4.89,3.52,4.29,6.49-.35,1.69-.72,3.39-1.11,5.04-.6,2.53-2.85,4.24-5.35,4.24ZM4008.69,1524.22c-3.04,0-5.5-2.46-5.5-5.5v-5c0-3.04,2.46-5.5,5.5-5.5s5.5,2.46,5.5,5.5v5c0,3.04-2.46,5.5-5.5,5.5ZM4176.14,1515.25c-.15,0-.3,0-.46-.02-3.03-.25-5.28-2.91-5.03-5.93.13-1.59.24-3.22.33-4.82.16-3.03,2.76-5.38,5.78-5.2,3.03.16,5.36,2.75,5.2,5.78-.09,1.72-.21,3.45-.35,5.15-.24,2.87-2.64,5.05-5.48,5.05ZM4165.72,1501.25h-5c-3.04,0-5.5-2.46-5.5-5.5s2.46-5.5,5.5-5.5h5c3.04,0,5.5,2.46,5.5,5.5s-2.46,5.5-5.5,5.5ZM4140.72,1501.25h-5c-3.04,0-5.5-2.46-5.5-5.5s2.46-5.5,5.5-5.5h5c3.04,0,5.5,2.46,5.5,5.5s-2.46,5.5-5.5,5.5ZM4115.72,1501.25h-5c-3.04,0-5.5-2.46-5.5-5.5s2.46-5.5,5.5-5.5h5c3.04,0,5.5,2.46,5.5,5.5s-2.46,5.5-5.5,5.5ZM4090.72,1501.25h-5c-3.04,0-5.5-2.46-5.5-5.5s2.46-5.5,5.5-5.5h5c3.04,0,5.5,2.46,5.5,5.5s-2.46,5.5-5.5,5.5ZM4065.72,1501.25h-5c-3.04,0-5.5-2.46-5.5-5.5s2.46-5.5,5.5-5.5h5c3.04,0,5.5,2.46,5.5,5.5s-2.46,5.5-5.5,5.5ZM4040.72,1501.25h-5c-3.04,0-5.5-2.46-5.5-5.5s2.46-5.5,5.5-5.5h5c3.04,0,5.5,2.46,5.5,5.5s-2.46,5.5-5.5,5.5ZM4015.72,1501.25h-5c-3.04,0-5.5-2.46-5.5-5.5s2.46-5.5,5.5-5.5h5c3.04,0,5.5,2.46,5.5,5.5s-2.46,5.5-5.5,5.5Z"/>
        <path class="cls-8" d="M4033.39,1644.57c-3.04,0-5.5-2.46-5.5-5.5s2.46-5.5,5.5-5.5c1.58,0,3.18-.03,4.77-.1,3.06-.12,5.6,2.23,5.72,5.27.12,3.04-2.23,5.6-5.27,5.72-1.74.07-3.5.11-5.22.11ZM4058.19,1641.97c-2.54,0-4.82-1.77-5.37-4.36-.63-2.97,1.26-5.89,4.24-6.52,1.54-.33,3.1-.69,4.64-1.09,2.94-.76,5.94,1.01,6.7,3.95.76,2.94-1.01,5.94-3.96,6.7-1.69.43-3.4.84-5.09,1.2-.39.08-.77.12-1.15.12ZM4081.92,1634.22c-2.1,0-4.11-1.21-5.02-3.25-1.24-2.77,0-6.03,2.77-7.27,1.45-.65,2.9-1.34,4.31-2.05,2.71-1.36,6.02-.26,7.38,2.45,1.36,2.72.26,6.02-2.45,7.38-1.55.78-3.15,1.54-4.74,2.25-.73.33-1.5.48-2.25.48ZM4033.39,1625.96c-3.04,0-5.5-2.46-5.5-5.5v-5c0-3.04,2.46-5.5,5.5-5.5s5.5,2.46,5.5,5.5v5c0,3.04-2.46,5.5-5.5,5.5ZM4103.49,1621.65c-1.69,0-3.36-.78-4.44-2.25-1.8-2.45-1.27-5.89,1.18-7.69,1.27-.93,2.55-1.91,3.79-2.91,2.37-1.9,5.83-1.51,7.73.86,1.9,2.37,1.51,5.83-.86,7.73-1.36,1.09-2.75,2.16-4.15,3.18-.98.72-2.12,1.07-3.25,1.07ZM4121.95,1604.86c-1.3,0-2.61-.46-3.66-1.39-2.27-2.02-2.47-5.5-.45-7.77,1.05-1.17,2.09-2.39,3.1-3.62,1.92-2.35,5.39-2.69,7.74-.77,2.35,1.93,2.69,5.39.77,7.74-1.11,1.35-2.25,2.69-3.39,3.97-1.09,1.22-2.59,1.84-4.11,1.84ZM4033.39,1600.96c-3.04,0-5.5-2.46-5.5-5.5v-5c0-3.04,2.46-5.5,5.5-5.5s5.5,2.46,5.5,5.5v5c0,3.04-2.46,5.5-5.5,5.5ZM4136.5,1584.61c-.92,0-1.86-.23-2.72-.72-2.64-1.5-3.56-4.86-2.06-7.5.78-1.37,1.54-2.78,2.27-4.18,1.39-2.7,4.71-3.76,7.41-2.37,2.7,1.39,3.76,4.71,2.37,7.41-.79,1.54-1.63,3.08-2.49,4.59-1.01,1.78-2.87,2.78-4.78,2.78ZM4033.39,1575.96c-3.04,0-5.5-2.46-5.5-5.5v-5c0-3.04,2.46-5.5,5.5-5.5s5.5,2.46,5.5,5.5v5c0,3.04-2.46,5.5-5.5,5.5ZM4146.5,1561.76c-.55,0-1.11-.08-1.66-.26-2.9-.92-4.5-4.01-3.59-6.9.48-1.5.93-3.04,1.34-4.58.79-2.93,3.81-4.67,6.75-3.87,2.93.79,4.66,3.81,3.87,6.75-.45,1.68-.95,3.37-1.47,5.02-.74,2.34-2.91,3.84-5.24,3.84ZM4033.39,1550.96c-3.04,0-5.5-2.46-5.5-5.5v-5c0-3.04,2.46-5.5,5.5-5.5s5.5,2.46,5.5,5.5v5c0,3.04-2.46,5.5-5.5,5.5ZM4151.47,1537.32c-.17,0-.35,0-.53-.02-3.02-.29-5.24-2.97-4.95-6,.15-1.57.27-3.17.35-4.75.16-3.03,2.75-5.39,5.78-5.2,3.03.16,5.36,2.75,5.2,5.78-.09,1.73-.22,3.49-.38,5.22-.27,2.85-2.67,4.98-5.47,4.98ZM4033.39,1525.96c-3.04,0-5.5-2.46-5.5-5.5s2.46-5.51,5.5-5.51h4.99c3.04,0,5.5,2.46,5.5,5.5s-2.46,5.5-5.5,5.5h-4.78c-.07,0-.14,0-.21,0ZM4138.38,1525.95h-5c-3.04,0-5.5-2.46-5.5-5.5s2.46-5.5,5.5-5.5h5c3.04,0,5.5,2.46,5.5,5.5s-2.46,5.5-5.5,5.5ZM4113.38,1525.95h-5c-3.04,0-5.5-2.46-5.5-5.5s2.46-5.5,5.5-5.5h5c3.04,0,5.5,2.46,5.5,5.5s-2.46,5.5-5.5,5.5ZM4088.38,1525.95h-5c-3.04,0-5.5-2.46-5.5-5.5s2.46-5.5,5.5-5.5h5c3.04,0,5.5,2.46,5.5,5.5s-2.46,5.5-5.5,5.5ZM4063.38,1525.95h-5c-3.04,0-5.5-2.46-5.5-5.5s2.46-5.5,5.5-5.5h5c3.04,0,5.5,2.46,5.5,5.5s-2.46,5.5-5.5,5.5Z"/>
        <path class="cls-8" d="M4058.09,1619.86c-3.04,0-5.5-2.46-5.5-5.5s2.46-5.5,5.5-5.5c1.54,0,3.08-.05,4.6-.16,3.02-.21,5.66,2.06,5.88,5.09.22,3.03-2.06,5.66-5.09,5.88-1.78.13-3.59.19-5.39.19ZM4082.55,1615.42c-2.22,0-4.31-1.36-5.15-3.56-1.07-2.84.36-6.02,3.2-7.09,1.43-.54,2.86-1.14,4.25-1.78,2.76-1.27,6.03-.08,7.3,2.68,1.28,2.76.08,6.03-2.68,7.3-1.63.75-3.3,1.46-4.98,2.09-.64.24-1.3.36-1.94.36ZM4058.09,1602.7c-3.04,0-5.5-2.46-5.5-5.5v-5c0-3.04,2.46-5.5,5.5-5.5s5.5,2.46,5.5,5.5v5c0,3.04-2.46,5.5-5.5,5.5ZM4103.85,1602.58c-1.52,0-3.04-.63-4.13-1.86-2.01-2.28-1.79-5.75.49-7.76,1.15-1.01,2.27-2.08,3.34-3.17,2.13-2.17,5.61-2.2,7.78-.07,2.17,2.13,2.2,5.61.07,7.78-1.25,1.28-2.57,2.52-3.92,3.71-1.04.92-2.34,1.38-3.64,1.38ZM4119.25,1583.07c-.87,0-1.75-.21-2.58-.64-2.68-1.43-3.7-4.76-2.28-7.44.71-1.34,1.39-2.74,2.01-4.13,1.23-2.78,4.47-4.04,7.25-2.81,2.78,1.23,4.04,4.48,2.81,7.25-.73,1.64-1.52,3.27-2.36,4.85-.99,1.86-2.89,2.92-4.86,2.92ZM4058.09,1577.7c-3.04,0-5.5-2.46-5.5-5.5v-5c0-3.04,2.46-5.5,5.5-5.5s5.5,2.46,5.5,5.5v5c0,3.04-2.46,5.5-5.5,5.5ZM4126.76,1559.38c-.23,0-.46-.01-.69-.04-3.01-.38-5.15-3.13-4.77-6.14.19-1.52.33-3.06.41-4.58.16-3.03,2.78-5.34,5.78-5.2,3.03.16,5.36,2.75,5.2,5.78-.09,1.78-.26,3.59-.48,5.37-.35,2.78-2.72,4.82-5.45,4.82ZM4058.09,1552.7c-3.04,0-5.5-2.46-5.5-5.5v-2.05c0-3.04,2.46-5.5,5.5-5.5h2.95c3.04,0,5.5,2.46,5.5,5.5,0,2.52-1.7,4.65-4.02,5.3-1,1.36-2.62,2.25-4.44,2.25ZM4111.05,1550.66h-5c-3.04,0-5.5-2.46-5.5-5.5s2.46-5.5,5.5-5.5h5c3.04,0,5.5,2.46,5.5,5.5s-2.46,5.5-5.5,5.5ZM4086.05,1550.66h-5c-3.04,0-5.5-2.46-5.5-5.5s2.46-5.5,5.5-5.5h5c3.04,0,5.5,2.46,5.5,5.5s-2.46,5.5-5.5,5.5Z"/>
        <path class="cls-8" d="M4082.8,1595.16c-3.04,0-5.5-2.46-5.5-5.5s2.46-5.5,5.5-5.5c1.21,0,2.42-.15,3.58-.45,2.94-.76,5.94,1.01,6.7,3.96.76,2.94-1.02,5.94-3.96,6.7-2.05.53-4.18.79-6.31.79ZM4101.67,1581.38c-.55,0-1.11-.08-1.67-.26-2.89-.92-4.5-4.01-3.57-6.91.36-1.14.58-2.34.65-3.54.17-3.03,2.77-5.34,5.8-5.19,3.03.17,5.35,2.76,5.19,5.8-.12,2.13-.5,4.24-1.15,6.27-.74,2.34-2.91,3.83-5.24,3.83ZM4082.8,1579.46c-3.04,0-5.5-2.46-5.5-5.5v-4.09c0-3.04,2.46-5.5,5.5-5.5h.91c3.04,0,5.5,2.46,5.5,5.5,0,1.12-.33,2.16-.91,3.03v1.07c0,3.04-2.46,5.5-5.5,5.5Z"/>
      </g>
      <path class="cls-7" d="M3311.69,1004.14v365.65h365.65c0-201.94-163.71-365.65-365.65-365.65Z"/>
      <path class="cls-5" d="M5568.56,433.89c62.96,0,114-51.04,114-114h-114v114Z"/>
      <path d="M5682.56,319.88c0-62.96-51.04-114-114-114v114h114Z"/>
      <path class="cls-8" d="M5796.57,205.88c-62.96,0-114,51.04-114,114h114v-114Z"/>
      <path class="cls-7" d="M5796.57,433.89v-114h-114c0,62.96,51.04,114,114,114Z"/>
      <g>
        <path class="cls-7" d="M697.5,707.53c-115.18,0-208.89,93.71-208.89,208.89s93.71,208.89,208.89,208.89,208.89-93.71,208.89-208.89-93.71-208.89-208.89-208.89ZM697.5,1133.47c-57.98,0-112.48-22.58-153.48-63.57-41-41-63.57-95.5-63.57-153.48s22.58-112.48,63.57-153.48c41-41,95.5-63.57,153.48-63.57s112.48,22.58,153.48,63.57c41,41,63.57,95.5,63.57,153.48s-22.58,112.48-63.57,153.48c-41,41-95.5,63.57-153.48,63.57Z"/>
        <path class="cls-7" d="M697.5,743.47c-95.37,0-172.95,77.59-172.95,172.95s77.59,172.95,172.95,172.95,172.95-77.59,172.95-172.95-77.59-172.95-172.95-172.95ZM697.5,735.31c49,0,94.4,19.43,128.04,53.07,33.64,33.64,53.07,79.04,53.07,128.04s-19.43,94.4-53.07,128.04c-33.64,33.64-79.04,53.07-128.04,53.07s-94.4-19.43-128.04-53.07c-33.64-33.64-53.07-79.04-53.07-128.04s19.43-94.4,53.07-128.04c33.64-33.64,79.04-53.07,128.04-53.07Z"/>
        <path class="cls-7" d="M697.5,779.41c-75.55,0-137.01,61.46-137.01,137.01s61.46,137.01,137.01,137.01,137.01-61.46,137.01-137.01-61.46-137.01-137.01-137.01ZM697.5,1061.59c-80.05,0-145.17-65.12-145.17-145.17s65.12-145.17,145.17-145.17,145.17,65.12,145.17,145.17-65.12,145.17-145.17,145.17Z"/>
        <path class="cls-7" d="M697.5,814.98c-55.94,0-101.44,45.51-101.44,101.44s45.51,101.44,101.44,101.44,101.44-45.51,101.44-101.44-45.51-101.44-101.44-101.44ZM697.5,1026.02c-60.43,0-109.6-49.17-109.6-109.6s49.17-109.6,109.6-109.6,109.6,49.17,109.6,109.6-49.17,109.6-109.6,109.6Z"/>
        <path class="cls-7" d="M697.5,850.55c-36.32,0-65.87,29.55-65.87,65.87s29.55,65.87,65.87,65.87,65.87-29.55,65.87-65.87-29.55-65.87-65.87-65.87ZM697.5,990.45c-40.82,0-74.03-33.21-74.03-74.03s33.21-74.03,74.03-74.03,74.03,33.21,74.03,74.03-33.21,74.03-74.03,74.03Z"/>
      </g>
      <g>
        <path class="cls-8" d="M1987.28,1378.68c0-71.06-27.67-137.86-77.92-188.11-50.25-50.25-117.05-77.92-188.11-77.92v10c68.39,0,132.68,26.63,181.04,74.99,48.36,48.36,74.99,112.65,74.99,181.04s-26.63,132.68-74.99,181.04c-48.36,48.36-112.65,74.99-181.04,74.99v10c71.06,0,137.86-27.67,188.11-77.92,50.25-50.25,77.92-117.05,77.92-188.11Z"/>
        <path class="cls-8" d="M1899.19,1378.68c0-98.11-79.82-177.93-177.93-177.93v10c92.6,0,167.93,75.33,167.93,167.93s-75.33,167.93-167.93,167.93v10c98.11,0,177.93-79.82,177.93-177.93Z"/>
        <path class="cls-8" d="M1811.99,1378.68c0-50.03-40.7-90.73-90.73-90.73v10c44.52,0,80.73,36.22,80.73,80.73s-36.22,80.73-80.73,80.73v10c50.03,0,90.73-40.7,90.73-90.73Z"/>
      </g>
      <circle class="cls-7" cx="2293.3" cy="1579.65" r="157.23" transform="translate(-445.29 2084.28) rotate(-45)"/>
      <path class="cls-5" d="M2450.54,1892.47c0-86.84-70.4-157.23-157.23-157.23s-157.23,70.4-157.23,157.23h314.47Z"/>
      <path class="cls-7" d="M4367.17,436.27c-86.84,0-157.23-70.4-157.23-157.23s70.4-157.23,157.23-157.23"/>
      <path class="cls-1" d="M2321.95,1195.86c0-41.73-33.83-75.56-75.56-75.56s-75.56,33.83-75.56,75.56h151.12Z"/>
      <path class="cls-7" d="M2321.95,1195.86c41.73,0,75.56-33.83,75.56-75.56s-33.83-75.56-75.56-75.56v151.12Z"/>
      <path class="cls-5" d="M2321.95,1195.86c0,41.73,33.83,75.56,75.56,75.56s75.56-33.83,75.56-75.56h-151.12Z"/>
      <path class="cls-8" d="M2321.95,1195.86c-41.73,0-75.56,33.83-75.56,75.56s33.83,75.56,75.56,75.56v-151.12Z"/>
      <circle class="cls-5" cx="1033.14" cy="989.28" r="34.51" transform="translate(-390.46 849.91) rotate(-38.17)"/>
      <circle class="cls-5" cx="2669.72" cy="1115.53" r="34.51" transform="translate(-223.67 1106.57) rotate(-22.5)"/>
      <circle class="cls-5" cx="4425.9" cy="641.8" r="34.51" transform="translate(91.3 1742.57) rotate(-22.5)"/>
      <circle class="cls-5" cx="3154.64" cy="1391.44" r="34.51" transform="translate(-292.35 1313.14) rotate(-22.5)"/>
      <circle class="cls-5" cx="647.22" cy="1687.54" r="34.51" transform="translate(-585.24 365.53) rotate(-22.01)"/>
      <path class="cls-3" d="M165.21,1038.06c-19.42,0-35.23-15.8-35.23-35.22s15.8-35.23,35.23-35.23,35.23,15.8,35.23,35.23-15.8,35.22-35.23,35.22ZM165.21,972.61c-16.67,0-30.23,13.56-30.23,30.23s13.56,30.22,30.23,30.22,30.23-13.56,30.23-30.22-13.56-30.23-30.23-30.23Z"/>
      <path class="cls-3" d="M2019.95,1121.23c-19.42,0-35.23-15.8-35.23-35.22s15.8-35.23,35.23-35.23,35.23,15.8,35.23,35.23-15.8,35.22-35.23,35.22ZM2019.95,1055.78c-16.67,0-30.23,13.56-30.23,30.23s13.56,30.22,30.23,30.22,30.23-13.56,30.23-30.22-13.56-30.23-30.23-30.23Z"/>
      <path class="cls-3" d="M3431.52,840.01c-19.42,0-35.22-15.8-35.22-35.23s15.8-35.23,35.22-35.23,35.23,15.8,35.23,35.23-15.8,35.23-35.23,35.23ZM3431.52,774.56c-16.67,0-30.22,13.56-30.22,30.23s13.56,30.23,30.22,30.23,30.23-13.56,30.23-30.23-13.56-30.23-30.23-30.23Z"/>
      <path class="cls-3" d="M4583.73,1334.43c-19.42,0-35.23-15.8-35.23-35.23s15.8-35.22,35.23-35.22,35.23,15.8,35.23,35.22-15.8,35.23-35.23,35.23ZM4583.73,1268.98c-16.67,0-30.23,13.56-30.23,30.22s13.56,30.23,30.23,30.23,30.23-13.56,30.23-30.23-13.56-30.22-30.23-30.22Z"/>
      <path class="cls-3" d="M3199.57,405.61c-19.42,0-35.22-15.8-35.22-35.23s15.8-35.23,35.22-35.23,35.23,15.8,35.23,35.23-15.8,35.23-35.23,35.23ZM3199.57,340.16c-16.67,0-30.22,13.56-30.22,30.23s13.56,30.23,30.22,30.23,30.23-13.56,30.23-30.23-13.56-30.23-30.23-30.23Z"/>
      <path class="cls-3" d="M1174.59,829.44c-19.42,0-35.23-15.8-35.23-35.23s15.8-35.23,35.23-35.23,35.23,15.8,35.23,35.23-15.8,35.23-35.23,35.23ZM1174.59,763.99c-16.67,0-30.23,13.56-30.23,30.23s13.56,30.23,30.23,30.23,30.23-13.56,30.23-30.23-13.56-30.23-30.23-30.23Z"/>
      <polygon class="cls-5" points="5284.9 685.31 5217.41 637.31 5149.92 685.31 5082.43 637.31 5014.95 685.31 4939.63 631.75 4955.28 609.75 5014.95 652.18 5082.43 604.18 5149.92 652.18 5217.41 604.18 5284.9 652.18 5352.38 604.18 5419.88 652.18 5487.37 604.18 5562.69 657.75 5547.04 679.75 5487.37 637.31 5419.88 685.31 5352.38 637.31 5284.9 685.31"/>
      <path class="cls-5" d="M1303.75,275.52c-14.71,0-26.24-8.2-34.28-24.37-5.71-11.49-9.21-25.96-12.59-39.96-5.98-24.74-11.29-43.67-20.62-43.67s-14.65,18.93-20.62,43.67c-3.38,14-6.88,28.48-12.59,39.97-8.04,16.17-19.57,24.37-34.28,24.37s-26.24-8.2-34.28-24.37c-5.71-11.49-9.21-25.96-12.59-39.97-5.97-24.74-11.29-43.67-20.62-43.67s-14.65,18.93-20.62,43.67c-3.38,14-6.88,28.48-12.59,39.97-8.04,16.17-19.57,24.37-34.28,24.37s-26.24-8.2-34.28-24.37c-5.71-11.49-9.21-25.96-12.59-39.97-5.98-24.74-11.29-43.67-20.62-43.67s-14.65,18.93-20.62,43.67c-3.38,14-6.88,28.48-12.59,39.96-8.04,16.17-19.57,24.37-34.28,24.37-10.78,0-25.38-3.88-33.73-22.39-4.77-10.57-6.48-23.29-8.28-36.75-2.51-18.74-5.1-38.12-15.92-45.81l15.65-22c20.37,14.49,23.91,40.91,27.03,64.23,3.89,29.04,6.74,35.72,15.25,35.72,9.33,0,14.65-18.93,20.62-43.67,3.38-14,6.88-28.48,12.59-39.96,8.04-16.17,19.57-24.37,34.28-24.37s26.24,8.2,34.28,24.37c5.71,11.49,9.21,25.96,12.59,39.97,5.97,24.74,11.29,43.67,20.62,43.67s14.65-18.93,20.62-43.67c3.38-14,6.88-28.48,12.59-39.97,8.04-16.17,19.57-24.37,34.28-24.37s26.24,8.2,34.28,24.37c5.71,11.49,9.21,25.96,12.59,39.97,5.97,24.74,11.29,43.67,20.62,43.67s14.65-18.93,20.62-43.67c3.38-14,6.88-28.48,12.59-39.97,8.04-16.17,19.57-24.37,34.28-24.37s26.24,8.2,34.28,24.37c5.71,11.49,9.21,25.96,12.59,39.97,5.98,24.74,11.29,43.67,20.62,43.67s14.65-18.93,20.62-43.67c3.38-14,6.88-28.48,12.59-39.97,8.04-16.17,19.57-24.37,34.28-24.37,10.78,0,25.38,3.88,33.73,22.39,4.77,10.57,6.48,23.29,8.28,36.75,2.51,18.74,5.11,38.12,15.92,45.81l-15.65,22c-20.37-14.49-23.91-40.91-27.03-64.23-3.89-29.04-6.74-35.72-15.25-35.72-9.34,0-14.65,18.93-20.62,43.67-3.38,14-6.88,28.48-12.59,39.97-8.04,16.17-19.57,24.37-34.28,24.37Z"/>
      <polygon class="cls-5" points="5382.54 786.54 5315.06 738.54 5247.57 786.54 5180.08 738.54 5112.59 786.54 5037.28 732.98 5052.93 710.97 5112.59 753.41 5180.08 705.41 5247.57 753.41 5315.06 705.41 5382.54 753.41 5450.03 705.41 5517.52 753.41 5585.02 705.41 5660.33 758.97 5644.69 780.98 5585.02 738.54 5517.52 786.54 5450.03 738.54 5382.54 786.54"/>
      <path d="M1835.43,1818.44c-21.13,0-31.92-12.62-41.45-23.75-9.3-10.87-17.33-20.25-33.85-20.25s-24.55,9.38-33.85,20.25c-9.52,11.13-20.32,23.75-41.44,23.75s-31.92-12.62-41.44-23.75c-9.3-10.87-17.32-20.25-33.84-20.25s-24.55,9.38-33.84,20.25c-9.52,11.13-20.32,23.75-41.44,23.75s-31.92-12.62-41.44-23.75c-9.3-10.87-17.32-20.25-33.84-20.25s-24.55,9.38-33.84,20.25c-9.52,11.13-20.32,23.75-41.44,23.75s-31.92-12.62-41.44-23.75c-9.3-10.87-17.32-20.25-33.84-20.25v-10c21.12,0,31.92,12.62,41.44,23.75,9.3,10.87,17.32,20.25,33.84,20.25s24.55-9.38,33.84-20.25c9.52-11.13,20.32-23.75,41.44-23.75s31.92,12.62,41.44,23.75c9.3,10.87,17.32,20.25,33.84,20.25s24.55-9.38,33.84-20.25c9.52-11.13,20.32-23.75,41.44-23.75s31.92,12.62,41.44,23.75c9.3,10.87,17.32,20.25,33.84,20.25s24.55-9.38,33.84-20.25c9.52-11.13,20.32-23.75,41.44-23.75s31.92,12.62,41.45,23.75c9.3,10.87,17.33,20.25,33.85,20.25s24.55-9.38,33.85-20.25c9.52-11.13,20.32-23.75,41.45-23.75v10c-16.52,0-24.55,9.38-33.85,20.25-9.52,11.13-20.32,23.75-41.45,23.75Z"/>
      <path class="cls-8" d="M2538.15,145.54c0,20.87-84.07,20.87-84.07,41.74s84.07,20.87,84.07,41.73-84.07,20.87-84.07,41.74,84.07,20.87,84.07,41.74-84.07,20.87-84.07,41.74,84.07,20.87,84.07,41.74-84.07,20.87-84.07,41.75,84.07,20.87,84.07,41.75"/>
      <path d="M1835.43,1905.71c-21.13,0-31.92-12.62-41.45-23.75-9.3-10.87-17.33-20.25-33.85-20.25s-24.55,9.38-33.85,20.25c-9.52,11.13-20.32,23.75-41.44,23.75s-31.92-12.62-41.44-23.75c-9.3-10.87-17.32-20.25-33.84-20.25s-24.55,9.38-33.84,20.25c-9.52,11.13-20.32,23.75-41.44,23.75s-31.92-12.62-41.44-23.75c-9.3-10.87-17.32-20.25-33.84-20.25s-24.55,9.38-33.84,20.25c-9.52,11.13-20.32,23.75-41.44,23.75s-31.92-12.62-41.44-23.75c-9.3-10.87-17.32-20.25-33.84-20.25v-10c21.12,0,31.92,12.62,41.44,23.75,9.3,10.87,17.32,20.25,33.84,20.25s24.55-9.38,33.84-20.25c9.52-11.13,20.32-23.75,41.44-23.75s31.92,12.62,41.44,23.75c9.3,10.87,17.32,20.25,33.84,20.25s24.55-9.38,33.84-20.25c9.52-11.13,20.32-23.75,41.44-23.75s31.92,12.62,41.44,23.75c9.3,10.87,17.32,20.25,33.84,20.25s24.55-9.38,33.84-20.25c9.52-11.13,20.32-23.75,41.44-23.75s31.92,12.62,41.45,23.75c9.3,10.87,17.33,20.25,33.85,20.25s24.55-9.38,33.85-20.25c9.52-11.13,20.32-23.75,41.45-23.75v10c-16.52,0-24.55,9.38-33.85,20.25-9.52,11.13-20.32,23.75-41.45,23.75Z"/>
      <path d="M2986.86,1176.08c-84.92,0-154-69.08-154-154s69.08-154,154-154,154,69.08,154,154-69.08,154-154,154ZM2986.86,878.08c-79.4,0-144,64.6-144,144s64.6,144,144,144,144-64.6,144-144-64.6-144-144-144Z"/>
      <path class="cls-1" d="M5173.36,1727.23c-98.36,54-196.73-54-295.09,0v-27c98.36-54,196.73,54,295.09,0,0,9,0,18,0,27Z"/>
      <path class="cls-1" d="M5173.36,1793.56c-98.36,54-196.73-54-295.09,0v-27c98.36-54,196.73,54,295.09,0,0,9,0,18,0,27Z"/>
      <path class="cls-1" d="M5173.36,1859.89c-98.36,54-196.73-54-295.09,0v-27c98.36-54,196.73,54,295.09,0,0,9,0,18,0,27Z"/>
      <circle class="cls-8" cx="3732.87" cy="701.2" r="37" transform="translate(597.51 2844.91) rotate(-45)"/>
      <circle class="cls-8" cx="5834.89" cy="946.59" r="37" transform="translate(1039.66 4403.14) rotate(-45)"/>
      <circle class="cls-8" cx="1227.29" cy="468.31" r="37" transform="translate(28.32 1004.99) rotate(-45)"/>
      <circle class="cls-8" cx="2901.31" cy="692.87" r="37"/>
      <circle class="cls-8" cx="3070.45" cy="1858.71" r="37"/>
      <path class="cls-3" d="M3885.23,1211.2c-18.39,0-33.35-14.96-33.35-33.35s14.96-33.35,33.35-33.35,33.35,14.96,33.35,33.35-14.96,33.35-33.35,33.35ZM3885.23,1149.51c-15.63,0-28.35,12.72-28.35,28.35s12.72,28.35,28.35,28.35,28.35-12.72,28.35-28.35-12.72-28.35-28.35-28.35Z"/>
      <path class="cls-3" d="M5796.57,659.42c-18.39,0-33.35-14.96-33.35-33.35s14.96-33.35,33.35-33.35,33.35,14.96,33.35,33.35-14.96,33.35-33.35,33.35ZM5796.57,597.72c-15.63,0-28.35,12.72-28.35,28.35s12.72,28.35,28.35,28.35,28.35-12.72,28.35-28.35-12.72-28.35-28.35-28.35Z"/>
      <path class="cls-3" d="M4272.52,1867.08c-18.39,0-33.35-14.96-33.35-33.35s14.96-33.35,33.35-33.35,33.35,14.96,33.35,33.35-14.96,33.35-33.35,33.35ZM4272.52,1805.38c-15.63,0-28.35,12.72-28.35,28.35s12.72,28.35,28.35,28.35,28.35-12.72,28.35-28.35-12.72-28.35-28.35-28.35Z"/>
      <circle class="cls-8" cx="1110.36" cy="1858.5" r="30.85" transform="translate(-988.94 1329.48) rotate(-45)"/>
      <circle class="cls-7" cx="4464.91" cy="1541.22" r="30.85" transform="translate(217.94 3608.58) rotate(-45)"/>
      <circle class="cls-7" cx="5243.77" cy="935.15" r="30.85" transform="translate(874.62 3981.81) rotate(-45)"/>
      <g>
        <rect x="3492.02" y="432.64" width="5" height="180.98"/>
        <rect x="3404.02" y="520.63" width="180.98" height="5"/>
        <rect x="3492.02" y="432.64" width="5" height="180.98" transform="translate(653.61 2624.22) rotate(-45)"/>
        <rect x="3404.02" y="520.63" width="180.98" height="5" transform="translate(653.61 2624.22) rotate(-45)"/>
      </g>
      <g>
        <rect x="2667.22" y="1720.09" width="5" height="116.92"/>
        <rect x="2611.27" y="1776.05" width="116.92" height="5"/>
        <rect x="2667.22" y="1720.09" width="5" height="116.92" transform="translate(-475.68 2408.69) rotate(-45)"/>
        <rect x="2611.27" y="1776.05" width="116.92" height="5" transform="translate(-475.68 2408.71) rotate(-45)"/>
      </g>
      <g>
        <rect x="620.97" y="223.89" width="5" height="116.92"/>
        <rect x="565.01" y="279.84" width="116.92" height="5"/>
        <rect x="620.97" y="223.89" width="5" height="116.92" transform="translate(-17.04 523.56) rotate(-45)"/>
        <rect x="565.01" y="279.84" width="116.92" height="5" transform="translate(-17.04 523.56) rotate(-45)"/>
      </g>
      <g>
        <g>
          <rect x="1482.21" y="872.45" width="5" height="180.98"/>
          <rect x="1394.22" y="960.44" width="180.98" height="5"/>
          <rect x="1482.21" y="872.45" width="5" height="180.98" transform="translate(-246.04 1331.89) rotate(-45)"/>
          <rect x="1394.22" y="960.44" width="180.98" height="5" transform="translate(-246.04 1331.89) rotate(-45)"/>
        </g>
        <g>
          <rect x="1394.22" y="960.44" width="180.98" height="5" transform="translate(42.14 1987.94) rotate(-68.36)"/>
          <rect x="1482.21" y="872.45" width="5" height="180.98" transform="translate(42.1 1987.88) rotate(-68.36)"/>
          <rect x="1482.21" y="872.45" width="5" height="180.98" transform="translate(-260.11 667.6) rotate(-23.36)"/>
          <rect x="1394.22" y="960.44" width="180.98" height="5" transform="translate(-260.11 667.62) rotate(-23.36)"/>
        </g>
      </g>
      <g>
        <rect x="5150.78" y="1118.22" width="5" height="180.98"/>
        <rect x="5062.79" y="1206.22" width="180.98" height="5"/>
        <rect x="5150.78" y="1118.22" width="5" height="180.98" transform="translate(654.67 3997.95) rotate(-45)"/>
        <rect x="5062.79" y="1206.22" width="180.98" height="5" transform="translate(654.67 3997.95) rotate(-45)"/>
      </g>
      <g>
        <rect class="cls-8" x="1196.54" y="1086.01" width="61.51" height="61.51" transform="translate(2344.05 -110.54) rotate(90)"/>
        <rect class="cls-8" x="1135.04" y="1147.51" width="61.51" height="61.51" transform="translate(2344.05 12.48) rotate(90)"/>
        <rect class="cls-8" x="1196.54" y="1209.02" width="61.51" height="61.51" transform="translate(2467.07 12.48) rotate(90)"/>
        <rect class="cls-8" x="1073.53" y="1086.01" width="61.51" height="61.51" transform="translate(2221.04 12.48) rotate(90)"/>
        <rect class="cls-8" x="1073.53" y="1209.02" width="61.51" height="61.51" transform="translate(2344.05 135.49) rotate(90)"/>
        <rect class="cls-8" x="1012.03" y="1147.51" width="61.51" height="61.51" transform="translate(2221.04 135.49) rotate(90)"/>
        <rect class="cls-8" x="1258.05" y="1147.51" width="61.51" height="61.51" transform="translate(2467.07 -110.54) rotate(90)"/>
        <rect class="cls-8" x="1319.55" y="1086.01" width="61.51" height="61.51" transform="translate(2467.07 -233.55) rotate(90)"/>
      </g>
      <g>
        <rect class="cls-1" x="4899.77" y="900.98" width="61.51" height="61.51" transform="translate(5862.26 -3998.79) rotate(90)"/>
        <rect class="cls-1" x="4838.26" y="962.49" width="61.51" height="61.51" transform="translate(5862.26 -3875.78) rotate(90)"/>
        <rect class="cls-1" x="4899.77" y="1023.99" width="61.51" height="61.51" transform="translate(5985.27 -3875.78) rotate(90)"/>
        <rect class="cls-1" x="4776.76" y="900.98" width="61.51" height="61.51" transform="translate(5739.25 -3875.78) rotate(90)"/>
        <rect class="cls-1" x="4776.76" y="1023.99" width="61.51" height="61.51" transform="translate(5862.26 -3752.76) rotate(90)"/>
        <rect class="cls-1" x="4715.25" y="962.49" width="61.51" height="61.51" transform="translate(5739.25 -3752.76) rotate(90)"/>
        <rect class="cls-1" x="4715.25" y="1085.5" width="61.51" height="61.51" transform="translate(5862.26 -3629.75) rotate(90)"/>
        <rect class="cls-1" x="4838.26" y="1085.5" width="61.51" height="61.51" transform="translate(5985.27 -3752.76) rotate(90)"/>
        <rect class="cls-1" x="4961.28" y="962.49" width="61.51" height="61.51" transform="translate(5985.27 -3998.79) rotate(90)"/>
        <rect class="cls-1" x="5084.29" y="962.49" width="61.51" height="61.51" transform="translate(6108.28 -4121.8) rotate(90)"/>
      </g>
      <polygon class="cls-5" points="190.38 1187.71 293.96 1294.13 190.38 1294.13 190.38 1187.71"/>
      <polygon class="cls-5" points="293.96 1187.71 397.55 1294.13 293.96 1294.13 293.96 1187.71"/>
      <polygon class="cls-5" points="190.38 1294.13 293.96 1400.55 190.38 1400.55 190.38 1294.13"/>
      <polygon class="cls-1" points="284.64 1532.06 635.44 1892.47 284.64 1892.47 284.64 1532.06"/>
      <path d="M598.53,1922.23H247.73c-2.76,0-5-2.24-5-5v-360.41c0-2.03,1.23-3.87,3.12-4.63,1.89-.77,4.05-.31,5.47,1.14l350.8,360.41c1.4,1.44,1.81,3.58,1.02,5.43-.78,1.85-2.6,3.06-4.61,3.06ZM252.73,1912.23h333.96l-333.96-343.1v343.1Z"/>
      <polygon class="cls-5" points="293.96 1294.13 397.55 1400.55 293.96 1400.55 293.96 1294.13"/>
      <path class="cls-5" d="M5520.83,1279.08c-.86,0-1.73-.22-2.5-.67l-131.5-75.92c-1.55-.89-2.5-2.54-2.5-4.33v-151.84c0-1.79.95-3.44,2.5-4.33l131.5-75.92c1.55-.89,3.45-.89,5,0l131.5,75.92c1.55.89,2.5,2.54,2.5,4.33v151.84c0,1.79-.95,3.44-2.5,4.33l-131.5,75.92c-.77.45-1.64.67-2.5.67ZM5394.33,1195.27l126.5,73.03,126.5-73.03v-146.07l-126.5-73.03-126.5,73.03v146.07Z"/>
      <polygon class="cls-5" points="397.55 1187.71 501.13 1294.13 397.55 1294.13 397.55 1187.71"/>
      <polygon class="cls-1" points="3089.04 357.39 2964.26 379.22 3061.41 460.51 2942.44 416.92 2986.02 535.9 2904.74 438.73 2882.9 563.52 2861.06 438.73 2779.77 535.89 2823.37 416.91 2704.39 460.5 2801.55 379.22 2676.77 357.37 2801.55 335.54 2704.4 254.25 2823.37 297.84 2779.79 178.86 2861.07 276.03 2882.91 151.25 2904.75 276.03 2986.04 178.87 2942.44 297.85 3061.42 254.26 2964.26 335.54 3089.04 357.39"/>
      <polygon class="cls-7" points="5521.91 1758.83 5412.03 1868.71 5412.03 1758.83 5521.91 1648.95 5521.91 1758.83"/>
      <polygon class="cls-7" points="5412.03 1758.83 5302.15 1868.71 5302.15 1758.83 5412.03 1648.95 5412.03 1758.83"/>
      <polygon class="cls-7" points="5631.79 1758.83 5521.91 1868.71 5521.91 1758.83 5631.79 1648.95 5631.79 1758.83"/>
      <polygon class="cls-7" points="5741.67 1758.83 5631.79 1868.71 5631.79 1758.83 5741.67 1648.95 5741.67 1758.83"/>
      <path class="cls-8" d="M1633.36,252h375.78s-57.43-114.71-201.94-105.99c-132.5,7.99-173.84,105.99-173.84,105.99Z"/>
      <path class="cls-8" d="M1633.36,252h375.78s-57.43,114.71-201.94,105.99c-132.5-8-173.84-105.99-173.84-105.99Z"/>
      <circle class="cls-2" cx="1821.25" cy="253.9" r="73.87" transform="translate(353.9 1362.18) rotate(-45)"/>
      <circle cx="1821.25" cy="253.9" r="35.91" transform="translate(1155.71 1968.09) rotate(-76.72)"/>
      <g>
        <path d="M3384.79,1631.36c-.83,0-1.65-.21-2.39-.61l-112.14-61c-1.89-1.03-2.92-3.16-2.53-5.28.38-2.12,2.09-3.76,4.22-4.06l206-28.95c1.07-.15,2.14.05,3.09.56l112.14,61c1.89,1.03,2.92,3.16,2.53,5.28-.38,2.12-2.09,3.76-4.22,4.06l-206,28.95c-.23.03-.46.05-.7.05ZM3288.34,1568.2l97.39,52.98,189.37-26.61-97.39-52.98-189.37,26.62Z"/>
        <g class="cls-10">
          <path d="M3384.79,1631.36c-.83,0-1.65-.21-2.39-.61l-112.14-61c-1.89-1.03-2.92-3.16-2.53-5.28.38-2.12,2.09-3.76,4.22-4.06l206-28.95c1.07-.15,2.14.05,3.09.56l112.14,61c1.89,1.03,2.92,3.16,2.53,5.28-.38,2.12-2.09,3.76-4.22,4.06l-206,28.95c-.23.03-.46.05-.7.05ZM3288.34,1568.2l97.39,52.98,189.37-26.61-97.39-52.98-189.37,26.62Z"/>
        </g>
      </g>
      <g>
        <path d="M3590.38,1824.76c-.82,0-1.64-.2-2.39-.61l-112.14-61c-1.61-.88-2.61-2.57-2.61-4.4l.41-222.35c0-1.76.93-3.39,2.45-4.29,1.52-.9,3.39-.93,4.94-.09l112.14,61c1.61.88,2.61,2.57,2.61,4.4l-.41,222.35c0,1.76-.93,3.39-2.45,4.29-.79.47-1.67.7-2.55.7ZM3483.25,1755.79l102.15,55.57.39-210.97-102.15-55.57-.39,210.97Z"/>
        <g class="cls-6">
          <path d="M3590.38,1824.76c-.82,0-1.64-.2-2.39-.61l-112.14-61c-1.61-.88-2.61-2.57-2.61-4.4l.41-222.35c0-1.76.93-3.39,2.45-4.29,1.52-.9,3.39-.93,4.94-.09l112.14,61c1.61.88,2.61,2.57,2.61,4.4l-.41,222.35c0,1.76-.93,3.39-2.45,4.29-.79.47-1.67.7-2.55.7ZM3483.25,1755.79l102.15,55.57.39-210.97-102.15-55.57-.39,210.97Z"/>
        </g>
      </g>
      <path d="M3384.38,1853.71c-.83,0-1.65-.21-2.39-.61l-112.14-61c-1.89-1.03-2.92-3.16-2.53-5.28.38-2.12,2.09-3.76,4.22-4.06l206-28.95c1.07-.15,2.14.05,3.09.56l112.14,61c1.89,1.03,2.92,3.16,2.53,5.28-.38,2.12-2.09,3.76-4.22,4.06l-206,28.95c-.23.03-.46.05-.7.05ZM3287.93,1790.55l97.39,52.98,189.37-26.62-97.39-52.98-189.37,26.62Z"/>
      <path d="M3384.38,1853.71c-.83,0-1.65-.21-2.39-.61l-112.14-61,4.78-8.79,110.69,60.22,204.37-28.72,1.39,9.9-206,28.95c-.23.03-.46.05-.7.05Z"/>
      <g>
        <path d="M3384.38,1853.71c-.82,0-1.64-.2-2.39-.61l-112.14-61c-1.61-.88-2.61-2.57-2.61-4.4l.41-222.35c0-1.76.93-3.39,2.45-4.29,1.52-.9,3.39-.93,4.94-.09l112.14,61c1.61.88,2.61,2.57,2.61,4.4l-.41,222.35c0,1.76-.93,3.39-2.45,4.29-.79.47-1.67.7-2.55.7ZM3277.24,1784.74l102.15,55.57.39-210.97-102.15-55.57-.39,210.97Z"/>
        <g class="cls-9">
          <path d="M3384.38,1853.71c-.82,0-1.64-.2-2.39-.61l-112.14-61c-1.61-.88-2.61-2.57-2.61-4.4l.41-222.35c0-1.76.93-3.39,2.45-4.29,1.52-.9,3.39-.93,4.94-.09l112.14,61c1.61.88,2.61,2.57,2.61,4.4l-.41,222.35c0,1.76-.93,3.39-2.45,4.29-.79.47-1.67.7-2.55.7ZM3277.24,1784.74l102.15,55.57.39-210.97-102.15-55.57-.39,210.97Z"/>
        </g>
      </g>
      <polygon class="cls-8" points="292.1 248 292.1 160.25 342.02 204.13 391.94 248 342.02 291.88 292.1 335.76 292.1 248"/>
      <polygon class="cls-8" points="192.25 248 192.25 160.25 242.17 204.13 292.1 248 242.17 291.88 192.25 335.76 192.25 248"/>
      <rect class="cls-7" x="1278.41" y="1422.73" width="209.25" height="209.25"/>
      <rect x="1383.03" y="1318.1" width="209.25" height="209.25"/>
      <rect x="4407.49" y="177.72" width="209.25" height="209.25" transform="translate(1521.22 -3107.85) rotate(45)"/>
      <g>
        <polygon class="cls-8" points="322.01 797.31 307.39 811.93 307.39 802.6 312.68 797.31 322.01 797.31"/>
        <polygon class="cls-8" points="349.28 797.31 307.39 839.2 307.39 829.88 339.96 797.31 349.28 797.31"/>
        <polygon class="cls-8" points="376.56 797.31 307.39 866.48 307.39 857.14 367.22 797.31 376.56 797.31"/>
        <polygon class="cls-8" points="403.82 797.31 307.39 893.74 307.39 884.42 394.5 797.31 403.82 797.31"/>
        <polygon class="cls-8" points="431.1 797.31 307.39 921.02 307.39 911.69 421.77 797.31 431.1 797.31"/>
        <polygon class="cls-8" points="458.38 797.31 307.39 948.3 307.39 938.97 449.05 797.31 458.38 797.31"/>
        <polygon class="cls-8" points="485.65 797.31 307.39 975.57 307.39 966.25 476.33 797.31 485.65 797.31"/>
        <polygon class="cls-8" points="512.93 797.31 307.39 1002.83 307.39 993.52 503.6 797.31 512.93 797.31"/>
        <polygon class="cls-8" points="540.19 797.31 307.39 1030.11 307.39 1020.8 530.87 797.31 540.19 797.31"/>
        <polygon class="cls-8" points="567.47 797.31 307.39 1057.39 307.39 1048.06 558.14 797.31 567.47 797.31"/>
        <polygon class="cls-8" points="583.39 799.35 583.39 808.67 318.74 1073.32 309.41 1073.32 583.39 799.35"/>
        <polygon class="cls-8" points="583.39 826.62 583.39 835.95 346.01 1073.32 336.69 1073.32 583.39 826.62"/>
        <polygon class="cls-8" points="583.39 853.9 583.39 863.22 373.29 1073.32 363.95 1073.32 583.39 853.9"/>
        <polygon class="cls-8" points="583.39 881.16 583.39 890.49 400.57 1073.32 391.23 1073.32 583.39 881.16"/>
        <polygon class="cls-8" points="583.39 908.44 583.39 917.76 427.83 1073.32 418.5 1073.32 583.39 908.44"/>
        <polygon class="cls-8" points="583.39 935.71 583.39 945.04 455.1 1073.32 445.78 1073.32 583.39 935.71"/>
        <polygon class="cls-8" points="583.39 962.99 583.39 972.31 482.38 1073.32 473.06 1073.32 583.39 962.99"/>
        <polygon class="cls-8" points="583.39 990.27 583.39 999.59 509.66 1073.32 500.33 1073.32 583.39 990.27"/>
        <polygon class="cls-8" points="583.39 1017.53 583.39 1026.85 536.92 1073.32 527.61 1073.32 583.39 1017.53"/>
        <polygon class="cls-8" points="583.39 1044.8 583.39 1054.13 564.2 1073.32 554.87 1073.32 583.39 1044.8"/>
      </g>
      <rect class="cls-1" x="3236.58" y="163.56" width="69.69" height="69.69"/>
      <rect class="cls-8" x="3306.26" y="163.56" width="69.69" height="69.69"/>
      <rect x="3375.95" y="163.56" width="69.69" height="69.69"/>
      <rect class="cls-5" x="3445.64" y="163.56" width="69.69" height="69.69"/>
      <rect class="cls-7" x="3515.32" y="163.56" width="69.69" height="69.69"/>
      <rect class="cls-2" x="2427.49" y="724.27" width="137.25" height="15"/>
      <rect class="cls-2" x="2427.49" y="766.13" width="137.25" height="15"/>
      <rect class="cls-2" x="2427.49" y="808" width="137.25" height="15"/>
      <rect class="cls-5" x="2564.74" y="724.27" width="137.25" height="15"/>
      <rect class="cls-5" x="2564.74" y="808" width="137.25" height="15"/>
      <rect class="cls-5" x="2564.74" y="766.13" width="137.25" height="15"/>
      <rect class="cls-5" x="2564.74" y="849.86" width="137.25" height="15"/>
      <rect class="cls-2" x="2427.49" y="849.86" width="137.25" height="15"/>
      <rect class="cls-7" x="1765.79" y="569.96" width="48.86" height="426.01"/>
      <path d="M5834.89,1539.67h-530.01c-2.76,0-5-2.24-5-5v-48.86c0-2.76,2.24-5,5-5h530.01c2.76,0,5,2.24,5,5v48.86c0,2.76-2.24,5-5,5ZM5309.88,1529.67h520.01v-38.86h-520.01v38.86Z"/>
      <g>
        <path d="M5396.25,166.21h-5v-.18h-.18v-5h.18v-5.18h5c2.86,0,5.18,2.32,5.18,5.18v5h-5.18v.18Z"/>
        <path d="M5401.43,454.99h-10.36v-10.32h10.36v10.32ZM5401.43,434.35h-10.36v-10.32h10.36v10.32ZM5401.43,413.71h-10.36v-10.32h10.36v10.32ZM5401.43,393.07h-10.36v-10.32h10.36v10.32ZM5401.43,372.43h-10.36v-10.32h10.36v10.32ZM5401.43,351.79h-10.36v-10.32h10.36v10.32ZM5401.43,331.15h-10.36v-10.32h10.36v10.32ZM5401.43,310.51h-10.36v-10.32h10.36v10.32ZM5401.43,289.87h-10.36v-10.32h10.36v10.32ZM5401.43,269.23h-10.36v-10.32h10.36v10.32ZM5401.43,248.59h-10.36v-10.32h10.36v10.32ZM5401.43,227.95h-10.36v-10.32h10.36v10.32ZM5401.43,207.31h-10.36v-10.32h10.36v10.32ZM5401.43,186.67h-10.36v-10.32h10.36v10.32Z"/>
        <path d="M5396.25,475.49h-5v-5.18h-.18v-5h.18v-.18h5v.18h5.18v5c0,2.86-2.32,5.18-5.18,5.18Z"/>
        <path d="M5381.39,475.49h-9.86v-10.36h9.86v10.36ZM5361.68,475.49h-9.86v-10.36h9.86v10.36ZM5341.97,475.49h-9.86v-10.36h9.86v10.36ZM5322.25,475.49h-9.86v-10.36h9.86v10.36ZM5302.54,475.49h-9.86v-10.36h9.86v10.36ZM5282.83,475.49h-9.86v-10.36h9.86v10.36ZM5263.11,475.49h-9.86v-10.36h9.86v10.36ZM5243.4,475.49h-9.86v-10.36h9.86v10.36ZM5223.69,475.49h-9.86v-10.36h9.86v10.36ZM5203.97,475.49h-9.86v-10.36h9.86v10.36Z"/>
        <path d="M5184.26,475.49h-5c-2.86,0-5.18-2.32-5.18-5.18v-5h5.18v-.18h5v.18h.18v5h-.18v5.18Z"/>
        <path d="M5184.44,456.42h-10.36v-8.89h10.36v8.89ZM5184.44,438.64h-10.36v-8.89h10.36v8.89ZM5184.44,420.86h-10.36v-8.89h10.36v8.89Z"/>
        <path d="M5184.26,403.26h-5v-.18h-5.18v-5c0-2.86,2.32-5.18,5.18-5.18h5v5.18h.18v5h-.18v.18Z"/>
        <path d="M5308.65,403.26h-10.37v-10.36h10.37v10.36ZM5287.92,403.26h-10.37v-10.36h10.37v10.36ZM5267.19,403.26h-10.37v-10.36h10.37v10.36ZM5246.46,403.26h-10.37v-10.36h10.37v10.36ZM5225.72,403.26h-10.37v-10.36h10.37v10.36ZM5204.99,403.26h-10.37v-10.36h10.37v10.36Z"/>
        <path d="M5324.02,403.26h-5v-5.18h-.18v-5h.18v-.18h5v.18h5.18v5c0,2.86-2.32,5.18-5.18,5.18Z"/>
        <path d="M5329.2,383.21h-10.36v-9.87h10.36v9.87ZM5329.2,363.47h-10.36v-9.87h10.36v9.87ZM5329.2,343.72h-10.36v-9.87h10.36v9.87ZM5329.2,323.98h-10.36v-9.87h10.36v9.87ZM5329.2,304.24h-10.36v-9.87h10.36v9.87ZM5329.2,284.49h-10.36v-9.87h10.36v9.87ZM5329.2,264.75h-10.36v-9.87h10.36v9.87ZM5329.2,245.01h-10.36v-9.87h10.36v9.87ZM5329.2,225.26h-10.36v-9.87h10.36v9.87ZM5329.2,205.52h-10.36v-9.87h10.36v9.87ZM5329.2,185.78h-10.36v-9.87h10.36v9.87Z"/>
        <path d="M5329.02,166.21h-5v-.18h-5.18v-5c0-2.86,2.32-5.18,5.18-5.18h5v5.18h.18v5h-.18v.18Z"/>
        <path d="M5382.36,166.21h-8.89v-10.36h8.89v10.36ZM5364.58,166.21h-8.89v-10.36h8.89v10.36ZM5346.8,166.21h-8.89v-10.36h8.89v10.36Z"/>
      </g>
      <path class="cls-8" d="M3804.69,125.03c-5.92,131.61-10.71,136.41-142.33,142.33,131.61,5.92,136.41,10.71,142.33,142.33,5.92-131.61,10.71-136.41,142.33-142.33-131.61-5.92-136.41-10.71-142.33-142.33Z"/>
      <path class="cls-7" d="M631.63,1267.28c-4.96,110.38-8.98,114.4-119.36,119.36,110.38,4.96,114.4,8.98,119.36,119.36,4.96-110.38,8.98-114.4,119.36-119.36-110.38-4.96-114.4-8.98-119.36-119.36Z"/>
      <path d="M5615.91,1286.51h-190.15c-1.99,0-3.83-1.06-4.83-2.79l-95.08-164.68c-1-1.73-1-3.85,0-5.58l95.08-164.68c1-1.73,2.84-2.79,4.83-2.79h190.15c1.99,0,3.83,1.06,4.83,2.79l95.08,164.68c1,1.72,1,3.85,0,5.58l-95.08,164.68c-1,1.73-2.84,2.79-4.83,2.79ZM5428.98,1275.35h183.71l91.86-159.1-91.86-159.1h-183.71l-91.86,159.1,91.86,159.1Z"/>
      <rect x="2741.09" y="1017.08" width="491.52" height="10" transform="translate(152.21 2411.59) rotate(-45)"/>
      <rect class="cls-7" x="491.09" y="456.02" width="233.42" height="106.62"/>
      <g>
        <path class="cls-5" d="M5520.83,1320.1c-.86,0-1.73-.22-2.5-.67l-167.02-96.43c-1.55-.89-2.5-2.54-2.5-4.33v-192.86c0-1.79.95-3.44,2.5-4.33l167.02-96.43c1.55-.89,3.45-.89,5,0l167.02,96.43c1.55.89,2.5,2.54,2.5,4.33v192.86c0,1.79-.95,3.44-2.5,4.33l-167.02,96.43c-.77.45-1.64.67-2.5.67ZM5358.81,1215.78l162.02,93.55,162.02-93.55v-187.09l-162.02-93.54-162.02,93.54v187.09Z"/>
        <path class="cls-5" d="M5520.83,1280.47c-.86,0-1.73-.22-2.5-.67l-132.71-76.62c-1.55-.89-2.5-2.54-2.5-4.33v-153.24c0-1.79.95-3.44,2.5-4.33l132.71-76.62c1.55-.89,3.45-.89,5,0l132.71,76.62c1.55.89,2.5,2.54,2.5,4.33v153.24c0,1.79-.95,3.44-2.5,4.33l-132.71,76.62c-.77.45-1.64.67-2.5.67ZM5393.12,1195.97l127.71,73.73,127.71-73.73v-147.46l-127.71-73.73-127.71,73.73v147.46Z"/>
        <path class="cls-5" d="M5520.83,1240.85c-.86,0-1.73-.22-2.5-.67l-98.39-56.81c-1.55-.89-2.5-2.54-2.5-4.33v-113.61c0-1.79.95-3.44,2.5-4.33l98.39-56.81c1.55-.89,3.45-.89,5,0l98.39,56.81c1.55.89,2.5,2.54,2.5,4.33v113.61c0,1.79-.95,3.44-2.5,4.33l-98.39,56.81c-.77.45-1.64.67-2.5.67ZM5427.44,1176.16l93.39,53.92,93.39-53.92v-107.84l-93.39-53.92-93.39,53.92v107.84Z"/>
        <path class="cls-5" d="M5520.83,1201.22c-.86,0-1.73-.22-2.5-.67l-64.07-36.99c-1.55-.89-2.5-2.54-2.5-4.33v-73.99c0-1.79.95-3.44,2.5-4.33l64.07-36.99c1.55-.89,3.45-.89,5,0l64.07,36.99c1.55.89,2.5,2.54,2.5,4.33v73.99c0,1.79-.95,3.44-2.5,4.33l-64.07,36.99c-.77.45-1.64.67-2.5.67ZM5461.76,1156.34l59.07,34.11,59.07-34.11v-68.21l-59.07-34.11-59.07,34.11v68.21Z"/>
        <path class="cls-5" d="M5520.83,1161.6c-.86,0-1.73-.22-2.5-.67l-29.76-17.18c-1.55-.89-2.5-2.54-2.5-4.33v-34.36c0-1.79.95-3.44,2.5-4.33l29.76-17.18c1.55-.89,3.45-.89,5,0l29.76,17.18c1.55.89,2.5,2.54,2.5,4.33v34.36c0,1.79-.95,3.44-2.5,4.33l-29.76,17.18c-.77.45-1.64.67-2.5.67ZM5496.08,1136.53l24.76,14.29,24.76-14.29v-28.59l-24.76-14.29-24.76,14.29v28.59Z"/>
      </g>
      <rect class="cls-8" x="802.23" y="456.02" width="233.42" height="106.62"/>
      <circle class="cls-2" cx="4385.51" cy="1034.43" r="86.2" transform="translate(2661.95 5197.61) rotate(-80.78)"/>
      <circle cx="4385.51" cy="1034.43" r="38.95" transform="translate(-62.03 1757) rotate(-22.5)"/>
      <path d="M3677.34,1025.23c-12.28,0-23.45-10.28-31.47-28.95-7.44-17.32-11.53-40.25-11.53-64.55s4.1-47.22,11.53-64.55c8.02-18.67,19.19-28.95,31.47-28.95s23.44,10.28,31.46,28.95c7.44,17.33,11.53,40.25,11.53,64.55s-4.1,47.23-11.53,64.55c-8.01,18.67-19.18,28.95-31.46,28.95ZM3677.34,848.23c-7.91,0-16.03,8.35-22.28,22.9-6.91,16.11-10.72,37.63-10.72,60.6s3.81,44.5,10.72,60.61c6.25,14.55,14.37,22.89,22.28,22.89s16.02-8.34,22.27-22.89c6.91-16.11,10.72-37.63,10.72-60.61s-3.81-44.5-10.72-60.6c-6.25-14.55-14.36-22.9-22.27-22.9Z"/>
      <path d="M4057.79,1025.23h-380.45c-2.76,0-5-2.24-5-5s2.24-5,5-5c7.91,0,16.02-8.34,22.27-22.89,6.91-16.11,10.72-37.63,10.72-60.61s-3.81-44.5-10.72-60.6c-6.25-14.55-14.36-22.9-22.27-22.9-2.76,0-5-2.24-5-5s2.24-5,5-5h380.45c1.06,0,2.12.08,3.14.24,11.42,1.64,21.79,12.54,29.13,30.67,6.91,17.07,10.72,39.29,10.72,62.59s-3.81,45.53-10.72,62.59c-7.34,18.13-17.71,29.02-29.18,30.68-.98.15-2.04.23-3.09.23ZM3697.18,1015.23h360.61c.55,0,1.09-.04,1.62-.12,15.11-2.18,31.37-34.67,31.37-83.38s-16.26-81.2-31.32-83.37c-.57-.09-1.12-.13-1.67-.13h-360.61c4.33,4.74,8.25,11.11,11.62,18.95,7.44,17.33,11.53,40.25,11.53,64.55s-4.1,47.23-11.53,64.55c-3.37,7.84-7.29,14.21-11.62,18.95Z"/>
      <path d="M4062.67,846.33l-2.88-.44c-.65-.1-1.32-.15-2-.15v-2.32h-.12v-.18h.12v-2.5h4.88v5.59Z"/>
      <path d="M4062.67,1022.73h-4.88v-2.5h-.12v-.18h.12v-2.32c.67,0,1.35-.05,2-.15l2.88-.44v5.59Z"/>
      <rect x="724.51" y="494.3" width="77.73" height="30.05"/>
      <polygon class="cls-8" points="2709.03 1321.88 2977.68 1590.53 2977.68 1562.19 2737.37 1321.88 2709.03 1321.88"/>
      <polygon class="cls-8" points="2666.55 1321.88 2977.68 1633.01 2977.68 1604.67 2694.89 1321.88 2666.55 1321.88"/>
      <polygon class="cls-8" points="2751.51 1321.88 2977.68 1548.05 2977.68 1519.71 2779.85 1321.88 2751.51 1321.88"/>
      <path class="cls-8" d="M2804.73,1644.12l-149.28-149.28c33.99,63.22,86.06,115.28,149.28,149.28Z"/>
      <polygon class="cls-8" points="2793.99 1321.88 2977.68 1505.57 2977.68 1477.23 2822.33 1321.88 2793.99 1321.88"/>
      <path class="cls-8" d="M2642.14,1467.39l190.04,190.04c14.29,6.21,29.06,11.53,44.23,15.89l-250.17-250.17c4.36,15.18,9.68,29.95,15.9,44.24Z"/>
      <path class="cls-8" d="M2621.3,1404.07l274.19,274.19c11.32,2.6,22.83,4.67,34.52,6.18l-314.89-314.89c1.51,11.69,3.59,23.2,6.18,34.52Z"/>
      <path class="cls-8" d="M2613.4,1353.69l332.47,332.47c9.79.85,19.7,1.31,29.7,1.36l-363.53-363.53c.05,10,.51,19.91,1.36,29.7Z"/>
      <polygon class="cls-8" points="2624.07 1321.88 2977.68 1675.49 2977.68 1647.15 2652.41 1321.88 2624.07 1321.88"/>
      <polygon class="cls-8" points="2878.95 1321.88 2977.68 1420.61 2977.68 1392.27 2907.29 1321.88 2878.95 1321.88"/>
      <polygon class="cls-8" points="2921.43 1321.88 2977.68 1378.13 2977.68 1349.79 2949.77 1321.88 2921.43 1321.88"/>
      <polygon class="cls-8" points="2836.47 1321.88 2977.68 1463.09 2977.68 1434.75 2864.81 1321.88 2836.47 1321.88"/>
      <polygon class="cls-8" points="2963.91 1321.88 2977.68 1335.65 2977.68 1321.88 2963.91 1321.88"/>
      <path class="cls-5" d="M4575.94,1928.2c-42.02,0-84.28-18.49-112.57-52.6l7.7-6.38c40.44,48.76,111.49,63.29,165.27,33.8,25.98-13.86,45.8-36.88,55.86-64.87,10.09-28.07,9.27-58.17-2.32-84.77-12.88-30.06-39.13-53.06-72.04-63.13-27.81-7.68-59.19-1.53-83.95,16.46-24,17.43-38.46,43.27-39.68,70.9-1.26,21.05,6.14,42.7,20.3,59.47,14.44,17.1,33.96,27.44,54.97,29.12,28.62,2.6,55.6-12.09,70.47-38.34,11.52-19.75,9.88-43.75-4.35-64.26-15.86-21.09-41.4-28.64-63.57-18.79l-.1.04c-13,5.45-22.51,18.12-24.81,33.06-2.01,13.07,2.07,25.01,11.19,32.76,6.26,4.97,15.84,6.44,23.86,3.63,3.86-1.35,10.64-4.95,12.67-13.88l.04-.18c1.78-6.67-1.52-11.24-7.05-18.15-2.67-3.33-5.42-6.77-7.45-10.83l-2.88-5.75,6.29-1.37c10.15-2.21,20.27.85,28.48,8.6,9.48,8.95,14.62,22.7,12.81,34.21-2.25,13.05-10.16,24.1-22.27,31.18-13.94,8.14-31.35,9.76-46.57,4.33-31.53-10.84-49.55-47.71-39.31-80.5,5.35-18.18,15.96-33.33,29.86-42.6l.29-.18c21.51-12.29,45.34-15.42,67.09-8.8,33.23,10.07,57.09,36.14,63.81,69.74,4.88,26.33-.06,50.99-14.65,73.36-25.17,38.22-71.42,55.08-117.82,42.97-40.04-10.24-70.54-42.14-81.59-85.32-6.57-24.87-5.1-50.63,4.25-74.46,9.14-23.28,25.36-43.69,46.91-59.01,50.55-35.57,117.19-32.11,165.84,8.6,21.16,17.4,36.87,40.02,45.41,65.39,8.51,25.28,9.76,52.87,3.62,79.79-9.33,39.2-31.76,72.28-64.88,95.71l-5.78-8.16c31.1-22,52.17-53.06,60.92-89.81,11.74-51.48-5.33-102.04-45.67-135.21-45.16-37.79-106.91-41.05-153.68-8.13-19.94,14.18-34.95,33.03-43.38,54.5-8.57,21.83-9.92,45.45-3.88,68.29,10.14,39.63,37.95,68.83,74.42,78.16,20.46,5.34,41.17,4.7,59.91-1.85,19.31-6.74,35.58-19.51,47.04-36.92,13.13-20.13,17.57-42.34,13.19-65.99-5.97-29.85-27.25-53.08-56.9-62.06-19.04-5.79-40.01-3.01-59.07,7.83-11.88,7.98-21.01,21.14-25.7,37.09-8.7,27.84,6.45,59.01,33.05,68.16,12.53,4.47,26.79,3.15,38.22-3.53,9.52-5.56,15.72-14.15,17.45-24.17,1.29-8.2-2.73-18.63-9.8-25.31-2.26-2.13-6.19-5.1-11.36-6.17.52.66,1.05,1.33,1.59,2,5.64,7.05,12.04,15.04,8.93,26.88-2.28,9.91-9.24,17.57-19.1,21.01-11.34,3.96-24.47,1.88-33.45-5.31l-.11-.09c-11.88-10.05-17.22-25.34-14.67-41.96,2.82-18.33,14.61-33.94,30.77-40.74,26.54-11.77,56.93-2.92,75.63,22.02l.1.14c16.56,23.8,18.38,51.85,4.86,75.03-15.52,27.39-42.86,43.66-72.57,43.66-2.46,0-4.94-.11-7.43-.34-48.72-3.9-87.39-49.27-84.41-99.08,1.35-30.6,17.31-59.23,43.79-78.47,27.22-19.78,61.82-26.5,92.56-17.99l.13.04c35.76,10.92,64.32,35.98,78.36,68.75,12.59,28.92,13.5,61.64,2.55,92.12-10.9,30.33-32.39,55.29-60.51,70.28-20.19,11.07-42.64,16.38-65.16,16.38Z"/>
      <path class="cls-8" d="M5132.8,1538.22h-100c0-39.2-12.51-70.19-37.17-92.11-21.83-19.4-52.98-30.53-85.48-30.53s-63.65,11.13-85.48,30.53c-24.66,21.92-37.17,52.92-37.17,92.11h-100c0-34.56,6.4-66.71,19.03-95.57,12.03-27.49,29.42-51.48,51.7-71.28,40.47-35.98,94.43-55.79,151.91-55.79s111.44,19.81,151.91,55.79c22.28,19.8,39.68,43.79,51.7,71.28,12.63,28.86,19.03,61.02,19.03,95.57Z"/>
    </g>
  </g>
</svg>