<?xml version="1.0" encoding="UTF-8"?>
<svg id="Layer_2" data-name="Layer 2" xmlns="http://www.w3.org/2000/svg" viewBox="0 0 4585.06 2500.94">
  <defs>
    <style>
      .cls-1 {
        fill: #5f1817;
      }

      .cls-2 {
        fill: #bb3831;
      }

      .cls-3 {
        fill: #3f3f41;
      }

      .cls-4 {
        fill: #ede3c6;
      }

      .cls-5 {
        fill: #cbbba4;
      }

      .cls-6 {
        fill: #7e5330;
      }

      .cls-7 {
        fill: #b7956c;
      }

      .cls-8 {
        fill: #8e2322;
      }

      .cls-9 {
        fill: #fdfdfc;
      }

      .cls-10 {
        fill: #5d4b37;
      }

      .cls-11 {
        fill: #a67b52;
      }
    </style>
  </defs>
  <g id="Layer_1-2" data-name="Layer 1">
    <g>
      <path class="cls-9" d="M0,1527.27V0h4585.06v1325.37c-15.66.91-31.32,2.07-46.99,2.67-53.84,2.08-106.49,10.94-158.16,26.29-89.63,26.61-170.59,69.32-240.37,131.63-34.72,31-67.51,64.25-100.15,97.48-40.34,41.08-81.14,81.23-132.28,109.29-43.53,23.88-89.55,38.15-139.34,38.97-41.44.69-81.96-6.36-121.99-16.37-3.28-.82-5.97-4-8.93-6.08.34-3.18.67-6.36,1.01-9.55,1.23-4.21,2.45-8.42,3.68-12.63,12.22-5.28,24.77-9.95,36.52-16.11,4.92-2.58,2.4-7.31-2.69-11.17-7.24,3.58-15.32,6.76-22.5,11.34-10.13,6.45-19.32,6.6-30.45,1.65-10.64-4.74-22.64-6.43-34.04-9.47-5.33-.54-10.66-1.08-15.99-1.62-9.94-1.89-19.49-.92-28.51,3.89-1.35.52-2.71,1.04-4.06,1.56,0,0-1.23-.62-1.23-.62l-.71,1.16c-1.64.84-3.28,1.68-4.92,2.51-1.62.82-3.23,1.63-4.85,2.45-.79-.18-1.31.11-1.55.89-1.5.9-3,1.8-4.51,2.7-4.93,2.38-9.85,4.76-14.78,7.14-3.8-1.71-7.44-4.26-11.43-5.01-36.17-6.85-72.51-12.78-109.39-13.94-43.41-1.37-86.49,2.21-129.48,8.5-70.34,10.3-139.29,26.45-207.19,47.18-39.81,12.15-79.3,25.37-118.94,38.1.65-11.29.9-22.61,2.03-33.85,2.37-23.57,5.19-47.1,7.83-70.65,2.88-25.67,6.12-51.3,8.52-77.01,1.85-19.82,2.66-39.73,3.93-59.6,6.88-7.38,13.77-14.75,20.65-22.13.1-1.3.2-2.6.3-3.9-8.93-.43-17.85-.87-26.78-1.3-.83-5.27-1.1-10.7-2.58-15.78-4.81-16.53-10.28-32.87-15.09-49.41-7.8-26.84-15.28-53.77-22.9-80.66,7.78-12.91,15.57-25.81,23.35-38.72,8.05.39,8.84,7.02,10.33,12.57,4.5,16.69,8.22,33.6,13.03,50.19,10.09,34.81,20.56,69.51,31.12,104.18,5.31,17.43,6.36,34.64,2.72,52.78-2.06,10.24-.93,21.62,1.07,32.04,2.74,14.28,7.5,28.19,11.77,42.15.97,3.18,3.48,5.89,6.51,10.83,10.38-17.21,19.44-32.53,28.81-47.66,7.35-11.87,7.54-24.72,5.38-37.75-9.36-56.45-19.07-112.84-28.39-169.3-11.08-67.11-21.78-134.28-32.88-201.39-4.2-25.4-17.65-42.62-44.27-47.25-.22-7.58-.63-15.16-.64-22.73-.06-41.73.36-83.47-.15-125.19-.5-41.16-28.65-81.37-65.34-94.87-40.96-15.08-91.88-2.64-119.03,29.45-2.42,2.86-2.75,7.47-4.06,11.27-1.27,2.94-2.82,5.79-3.77,8.84-12.56,40.22-10.01,81.7-10.08,122.95-.01,8.75,4.41,14.05,13.15,15.57-.08,17.36-.15,34.72-.23,52.07-10.17,3.6-20.51,6.78-30.46,10.89-16.27,6.71-28.06,18.31-34.23,34.92-12.44,33.44-24.51,67.01-36.94,100.45-.97,2.62-3.59,4.62-6.74,8.51-27.49-29.54-53.87-58.1-80.57-86.37-5.46-5.78-11.38-11.93-18.34-15.35-18.92-9.29-38.41-17.48-57.92-25.49-4.96-2.04-10.39-6.18-17.79-1.84,3.74,14.25,7.03,28.39,11.24,42.26,2.72,8.97,7.95,16.62,16.63,21.23,10.98,5.84,22.19,11.29,32.89,17.6,5.84,3.44,12.18,7.35,16,12.7,14.13,19.8,26.96,40.52,40.93,60.45,11.15,15.91,22.22,32.07,35.14,46.49,20.12,22.46,49.13,19.65,65.35-5.98,8.64-13.65,15.05-28.71,22.58-43.08,3.32-6.34,6.9-12.54,11.87-21.53,6.4,28.93,11.4,54.39,17.86,79.46,3.15,12.21,1.87,23.1-1.79,34.83-11.91,38.18-23.04,76.6-34.46,114.92-8.46.62-16.92,1.24-27.32,2,8.08,9.6,14.86,17.65,21.63,25.7-.22,11.3-1.6,22.71-.45,33.87,4.87,47.08,10.41,94.09,15.88,141.1,4.04,34.72,8.59,69.39,12.42,104.14,1.7,15.46,2.18,31.05,3.21,46.57-5.58,2.06-11.31,3.77-16.71,6.23-36,16.39-72.35,32.07-107.78,49.61-69.46,34.37-138.36,69.87-207.59,104.69-5.56,2.8-11.92,4-17.91,5.94-.19-106.14-.37-212.27-.56-318.41,6.48-.27,12.97-.76,19.45-.77,88.82-.04,177.65,0,266.47-.04,4.61,0,9.22-.51,15.53-.89-2.63-5.92-4.21-10.43-6.53-14.52-11.73-20.72-23.82-41.25-35.48-62.02-20.65-36.8-41.09-73.72-61.61-110.59-2.87-11.26-4.74-22.91-8.9-33.67-3.45-8.91-9.81-16.55-20.31-18.74-4.64-8.18-9.28-16.36-13.92-24.54-.88-1.54-1.76-3.08-2.64-4.63-22.67-40.03-45.26-80.11-68.04-120.09-18.75-32.91-37.72-65.69-56.6-98.53-2.88-5.72-5.6-11.53-8.68-17.15-14.07-25.71-28.24-51.37-42.38-77.05,10.29-.3,20.59-.85,30.88-.87,77.61-.15,155.22-.14,232.82-.39,5.5-.02,11.83,2.11,17.19-3.75-4.37-8.27-8.47-16.48-12.98-24.46-50.46-89.24-100.91-178.49-151.56-267.62-13.09-23.03-26.89-45.66-40.37-68.47-11.24-19.88-22.54-39.72-33.66-59.67-1.72-3.09-2.62-6.65-3.89-9.99,3.61-8.1,10.77-7.73,17.95-7.72,42.22.05,84.43,0,126.65,0,5.73,0,11.47,0,19.63,0-3.2-7.45-4.84-12.45-7.37-16.96-10.57-18.83-21.76-37.31-32.03-56.3-11.54-21.32-22.32-43.06-33.43-64.61,3.11-3.72,6.45-7.26,9.28-11.18,17.03-23.56,19.86-49.04,7.03-74.9-12.65-25.52-34.38-38.05-63.11-37.4-6.45.15-12.88,1.32-19.32,2.02-5.9-6.86-13.01-13.01-17.51-20.69-29.47-50.27-58.32-100.9-87.59-151.29-2.01-3.46-5.78-5.89-8.74-8.8-1.02-1.73-2.03-3.46-3.24-5.52-25.68,36.84-248.45,431.6-250.95,445.64,55.41,0,110.56,0,165.7,0-4.67,10.89-9.34,21.77-14,32.66-2.95,3.74-6.44,7.18-8.78,11.27-23.61,41.38-46.99,82.89-70.53,124.32-44.4,78.15-88.88,156.25-133.24,234.43-6.8,11.99-13.13,24.26-20.73,38.34,7.47.54,12.12,1.17,16.78,1.17,71.52.07,143.05.02,214.57.11,17.33.02,34.65.46,51.98.71-4.48,8.04-9.04,16.04-13.44,24.13-12.68,23.29-25.29,46.61-37.94,69.92-1.67,2.05-3.69,3.9-4.96,6.17-49.02,87.4-97.89,174.89-146.94,262.27-38.18,68.01-76.6,135.88-114.85,203.86-2.49,4.43-4.43,9.17-7.73,16.07,8.82,0,14.65,0,20.48,0,44.45-.03,88.89-.17,133.34-.08,47.15.09,94.29.38,141.44.59,1.78,1.13,3.56,2.25,5.34,3.38.24,4.85.69,9.7.68,14.55-.02,116.79-.13,233.59-.1,350.38,0,12.94.69,25.88,1.06,38.82l-.6-.65-.86.23c-5.02-1.39-10.65-1.8-14.94-4.4-7.8-4.73-14.61-11.06-22.2-16.19-31.32-21.2-62.74-42.26-94.21-63.25-20.22-13.49-40.25-27.32-60.95-40.05-52.97-32.57-106.11-64.88-159.51-96.74-21.79-13-44.42-24.59-66.67-36.81.71-26.5,1.86-52.99,2.05-79.5.44-62.36.42-124.73.58-187.1,9.1,5.21,18.2,10.41,27.78,15.89.6-2.17,1.53-3.69,1.31-5.02-11.01-66.45-22.11-132.89-33.21-199.33,4.69-54.26,9.37-108.52,14.06-162.78,9.72,19.84,16.11,39.86,22.95,59.72,5.1,14.82,10.73,29.47,16.21,44.16,3.91,10.48,12.2,16.25,22.25,19.83,20.9,7.44,39.32,3.34,55.36-12.02,27-25.86,54.31-51.38,81.05-77.5,21.34-20.84,43-40.41,71.1-52.71,26.64-11.65,42.65-47.36,38.22-78.7-5.21,1.56-10.44,2.67-15.29,4.67-21.01,8.68-42.25,16.91-62.68,26.8-8.96,4.34-17.8,11.03-23.79,18.88-8.62,11.29-19.43,18.51-31.55,24.77-8.65,4.47-17.06,9.41-25.63,14.04-16.5,8.93-33.03,17.79-50.68,27.28-2.22-6.13-4.2-10.5-5.37-15.07-4.85-18.86-9.12-37.87-14.22-56.66-8.35-30.8-17.12-61.47-25.8-92.18-3.97-14.07-13.31-23.38-26.68-28.62-6.53-2.56-13.3-4.55-20.08-6.4-22.96-6.25-45.89-12.68-69.02-18.29-9.63-2.34-13.65-8.09-14.09-17.08-.25-5.18.42-10.41.75-17.02,12.31,0,23.08.5,33.79-.13,13.06-.76,17.58-5.35,17.24-18.29-1.06-40.59-2.62-81.17-3.99-121.75,22.77-16.39,33.35-31.95,24.13-74.17-1.99-.23-4.1-.67-6.21-.68-37.95-.14-75.92-.78-113.86-.02-13.36.27-26.9,3.05-39.91,6.42-14.61,3.78-26.48,12.63-33.85,26.16-12.13,22.26-17.01,47.23-10.89,70.89,7.94,30.67,21.61,59.86,32.87,89.67.15.4.89.57,1.36.84-.93,12.92-1.97,25.83-2.76,38.76-.75,12.33-.59,12.52-13.56,15.74-26.75,6.65-53.6,12.92-80.32,19.66-23.43,5.91-39.57,19.19-43.7,44.38-1.57,9.58-4.25,18.98-5.84,28.56-6.56,39.41-13.31,78.79-19.2,118.3-5.88,39.5-12.42,79.01-15.76,118.76-4.12,49.01-5.25,98.28-7.66,147.43-.24,4.87.36,9.93-.78,14.57-4.38,17.72-2.25,34.39,6.84,50.15,8.54,14.81,15.74,30.55,30.15,45.27,6.83-18.07,12.62-34.18,19.01-50.06,5.65-14.04,5.58-27.8,2.48-42.59-3.18-15.21-5.43-31.16-4.45-46.56,1.05-16.53,6.14-32.84,9.78-49.17,8.33-37.44,16.66-74.89,25.35-112.25,6.44-27.7,13.45-55.26,20.2-82.89,3.5,2.85,5.01,5.67,5.24,8.6,2.4,30.69,4.37,61.42,6.93,92.1,1.57,18.81,3.97,37.55,5.99,56.32-.68,1.29-1.36,2.58-2.04,3.87-.5,7.54-.46,15.16-1.59,22.6-11.3,74.29-22.84,148.55-34.21,222.83-2.66,17.4-4.91,34.87-7.71,54.87h42.2c-.02,10.41-.03,20.82-.05,31.23-5.58-1.67-11.39-2.79-16.7-5.09-37.62-16.32-74.77-33.75-112.75-49.16-61.96-25.13-124.72-48.24-189.2-66.25-25.88-7.23-51.83-14.3-77.98-20.46-11.92-2.81-24.4-3.24-36.62-4.75-1.27-.99-2.8-1.78-3.78-3.01-22.14-27.82-51.77-39.4-86.47-40.54-6.35-.21-12.64-2-18.96-3.06-6.2-12.41-15.44-22.35-24.09-32.53-7.97,3.95-8.69,8.3-4.36,13.7,6.98,8.71,14.01,17.38,21.01,26.07-.31,5.32-.62,10.65-.93,15.97-10.28-.1-20.6.3-30.84-.41-23.63-1.65-47.2-5.17-70.82-5.48-29.12-.38-58.28,1.54-87.41,2.82-19.39.85-38.78,2.1-58.14,3.56-10.73.81-21.48,1.95-32.08,3.75-22.28,3.79-44.38,8.69-66.71,12.09-49.74,7.58-97.84,21.63-145.9,35.9-52.91,15.7-103.71,36.91-153.73,60.03-3.31,1.53-5.31,5.9-7.92,8.95-15.64-11.45-31.51-22.6-46.89-34.39-54.74-41.96-114.77-73.36-181.49-91.42-45.65-12.35-92.06-19.3-139.5-18.01ZM1200.51,883.84c1.02,1.02,2.04,2.04,3.06,3.06l.2.21c1.12.97,2.24,1.93,3.36,2.9l.94-.84-.89.9c3.55,2.84,7.1,5.69,10.64,8.53.32.85.94,1.23,1.84,1.12,1.53.88,3.06,1.75,4.59,2.63.22.78.72,1.1,1.52.96,1.59.83,3.18,1.65,4.78,2.48l-.03-.02c7.66,3.25,15.32,6.5,22.98,9.74,2.25.81,4.51,1.62,6.76,2.43,1.01.25,2.01.5,3.02.75,2.25.77,4.5,1.54,6.75,2.3,1.05.21,2.1.41,3.15.62,3.33.89,6.67,1.77,10,2.66,7.11,1.62,14.23,3.24,22.49,5.12,4.64-34.53,8.77-66.55-5.22-97.71.33-.69.14-1.17-.57-1.44-.9-2.4-1.81-4.79-2.7-7.19l-3.49-7.13c-2.28-3.97-4.56-7.95-6.84-11.92-1.01-1.25-2.02-2.51-3.04-3.76l-.67.66.75-.57c-1.17-1.23-2.34-2.47-3.5-3.7-.96-.87-1.92-1.75-2.88-2.62-1.27-1.1-2.53-2.19-3.8-3.29l.11.08c-2.35-1.87-4.7-3.73-7.06-5.6-.29-.9-.91-1.31-1.85-1.24-1.46-.94-2.91-1.89-4.37-2.83,0,0,.06.03.06.03-2.13-1.18-4.27-2.35-6.4-3.53,0,0,.05.03.05.03-2.28-1.08-4.56-2.17-6.85-3.25-.21-.74-.69-1.01-1.43-.81-1.7-.67-3.41-1.33-5.11-2-.41-.81-1.05-1.06-1.91-.76-2.63-.88-5.26-1.77-7.89-2.65-1.43-.49-2.86-.97-4.3-1.46-7.27-1.78-14.51-4.84-21.83-5.06-11.59-.36-18.87-5.53-24.53-15.13-4.52-7.67-10.22-14.66-15.88-22.62-3.92,3.36-6.18,5.28-9.28,7.94,8.48,11.53,16.43,22.35,24.38,33.17.12,2.28.25,4.57.37,6.85-6.36,14.54-9.47,29.58-7.1,45.48.1,2.13.2,4.26.3,6.39.25,14.3,3.12,27.82,11.71,39.66l-.06-.1c.96,1.54,1.92,3.07,2.88,4.61,2.07,2.91,4.14,5.81,6.21,8.72,1.08,1.25,2.16,2.5,3.24,3.75l.88-.59-.79.71,3.05,3.13.19.2ZM1025.34,1090.42c1.78-.67,3.55-1.35,5.33-2.02-1.08-1.47-2.16-2.93-3.25-4.4-2.61-1.89-5.23-3.77-7.84-5.66-3.38-4.83-7.66-4.22-10.9-.6-9.76,10.9-23.38,14.77-35.91,20.66-2.5-1.02-4.98-2.13-7.52-3.06-38.63-14.2-68.63.27-81.4,39.25-.34,1.03-.72,2.05-.97,3.1-7.39,31.04-14.89,62.06-21.99,93.16-1.03,4.49-.14,9.42-.14,15.2,3.86-.5,6.94-.69,9.93-1.32,24.87-5.27,49.86-10.04,74.51-16.19,14.6-3.64,28.95-8.79,42.77-14.74,6.04-2.6,11.49-8.18,15.46-13.66,16.34-22.53,16.72-46.06,2.55-69.92,1.03-7.85,2.05-15.69,3.08-23.54,2.17-2.15,4.33-4.29,6.5-6.44,7.5,1.03,10.93-2.02,9.73-9.71l.06-.12ZM3412.9,1427.3c-16.11-6.08-32.23-12.16-48.34-18.24-18.95-15.02-31.86-33-28.72-58.8,2.93-15.46,13.82-19.63,27.71-19.56,19.73,0,39.45-.02,59.18-.03,32.29-.16,64.57-.32,96.86-.49,10.15.17,20.3.35,30.45.52,59.51.58,100.21-41.58,113.05-81.7,4.06-12.68,8.59-25.73,4.89-39.56.35-2.63,1.12-5.27.99-7.88-3.06-62.27-53-113.45-117.16-111.58-9.52.03-19.03.06-28.55.09-34.61.06-69.22.11-103.83.17-5.85-.46-11.69-1.23-17.55-1.32-26.4-.38-52.81-.57-79.22-.83-6.11-7.09-9.03-14.72-3.93-23.67,5.6-4.98,12.21-5.89,19.52-5.84,23.77.16,47.53-.2,71.3-.37,49.33,1.77,94.89-10.94,137.31-35.75,12.16-7.93,25.01-15,36.34-23.98,26.47-20.96,48.92-45.64,64.71-75.85,12.99-16.87,20.23-36.49,26.46-56.47,8.34-26.74,14.79-53.84,12.41-82.24,1.86-49.15-11.53-94.25-36.2-136.35-24.3-44.72-59.56-78.32-104.05-102.56-30.71-18.95-64.67-28.58-99.93-33.86-12.07-1.81-24.5-1.23-36.77-1.75-30.2,1.81-60.38,3.96-90.59,5.27-13.6.59-25.05,5.2-35.76,13.24-31.96,24.03-64.16,47.75-96.19,71.68-5.5,4.11-10.64,8.68-15.39,12.58,2.85,7.7,5.1,13.76,7.34,19.82-26.82,2.48-53.6,2.02-81.65-1.85,4.99,10.6,10.92,18.15,22.82,18.01,21.57-.26,43.14-.76,64.71-1.16,1.73,1.27,3.83,2.25,5.15,3.86,10.83,13.3,24.75,17.41,41.68,17.04,37.33-.82,74.7-.43,112.04-.12,10.04.08,18.83-2.14,27.82-6.8,12.34-6.4,25.6-11.03,38.45-16.42,24.67,1.94,48.74,6.09,70.28,19.38,21.76,12.04,37.09,30.81,52.16,49.85,11.64,22.13,17.2,45.87,18.72,70.68-.7,24.37-7.66,47.1-18.01,68.95-11.05,12.38-21.72,25.13-33.3,36.98-5.53,5.65-12.8,9.6-19.29,14.31-22.38,11.61-46.2,17.61-71.39,18.27-32.4-.3-65.1-3.57-97.13-.3-71.35,7.29-126.3,64.05-126.2,138.45-.21,20.18,3.12,39.63,11.96,57.93,21.01,43.48,69.91,82.29,124.52,78.49,11.1,0,22.19-.02,33.32-.03,33.22-.12,66.44-.24,99.67-.36,31.15.37,62.31.74,93.46,1.1,2.94,4.41,5.87,8.81,8.81,13.22-2.83,5.16-5.67,10.32-8.5,15.48-6.97.31-13.95.83-20.92.9-24.71.26-49.42.37-74.13.53-20.14.18-40.28.36-60.42.54-10.2.02-20.4.04-30.6.07-3.15.3-6.3.61-9.46.91-3.05.41-6.1.81-9.16,1.22-64.01,7.95-102.79,68.65-100.12,116.47-3.91,66.4,54.51,125.68,119.19,122.95,16.36.1,32.72.19,49.09.29,20.43.12,40.87.72,61.29.2,13.11-.34,18.4-6.52,17.6-17.91-.67-9.59-5.15-14.54-16.65-16.45-20.66-3.43-41.42-6.31-62.13-9.42ZM3159.62,735.51c-17.18,12.11-27.06,29.49-32.66,48.94-12.77,44.33,8.12,94.07,47.62,115.78,40.4,22.21,91.92,14.58,122.52-18.13,32.75-35.01,38.31-86.55,11.08-125.63-21.68-31.12-51.63-48.63-91.42-43.64-4.48-3.62-9.27-6.93-13.39-10.92-15.22-14.78-33.58-19.14-54.08-18.67-1.27,14.89,2.03,27.11,7.68,39.04,1.87,3.94,1.83,8.79,2.66,13.22Z"/>
      <path class="cls-6" d="M2992.66,2500.94H0v-400.54c272.42-.01,544.84-.03,817.26-.04,1.5,21.27,8.24,41.13,18.32,61.04-4.15,3.47-7.59,6.08-10.73,9-8.73,8.14-17.39,16.34-25.96,24.65-4.43,4.29-6.8,8.8,1.82,14.05,14.05-13.2,28.46-26.74,42.39-39.83,51.52,21.33,89.15,21.72,109.73,1.12-10.55-9.73-21.09-19.46-34.18-31.54,9.38-1.28,15.18-1.87,20.9-2.89,12.26-2.19,24.57-4.21,36.68-7.05,8.55-2.01,15.64-6.62,19.32-15.51-3.44-2.92-6.29-5.33-9.14-7.75,3.92-7.93,11.34-4.96,17.29-4.98,61.66-.28,123.31-.25,184.97-.3,6.5.2,13.01.56,19.51.56,78.14,0,156.27-.04,234.41-.13,10.84-.01,21.68-.37,32.52-.57,21.51.25,43.02.74,64.53.71,34.97-.06,69.94-.45,104.91-.71,29.25-.03,58.51-.07,87.76-.1,33.36.34,66.72.88,100.08.96,22.05.06,44.1-.53,66.15-.83,5.96.2,11.91.56,17.87.56,72.14.03,144.28,0,216.42-.02,25.49,0,50.99.16,76.48-.16,3.55-.04,7.07-2.45,10.6-3.76l.86-.23s.6.65.6.65c0,0,1.33-.05,1.33-.05l1.31.26c5.08,1.06,10.17,3.04,15.25,3.04,147.01.16,294.02.12,441.04.08,6.5,0,13-.37,19.49-.56,4.65.94,9.31,2.79,13.93,2.68,28.86-.66,57.71-1.75,86.57-2.69,14.27-.02,28.55-.03,42.82-.05,30.04.92,60.07,1.9,90.11,2.67,2.53.06,5.09-1.26,7.64-1.94,141.72.01,283.45.03,425.17.04-7.87,20.45-20.57,39.24-22.18,62.48,23.5,8.07,47.1,10.2,71.03,9.43,42.87-1.37,74.59-20.13,92.75-59.93,2.22-4.86,5.42-9.26,8.16-13.88,6.94.59,13.89,1.67,20.83,1.68,85.85.07,171.69-.04,257.54-.02,6.45,0,12.9.64,19.35.98-8.8,13.45-22.81,21.09-35.71,29.06-24.27,14.99-49.51,28.56-75.14,41.1-18.75,9.18-38.41,16.92-58.32,23.21-21,6.63-43,10.04-64.17,16.19-39.25,11.4-79.83,12.23-119.99,15.87-30.63,2.78-61.55,2.35-92.33,3.63-19.41.8-38.86,1.46-58.17,3.36-31.14,3.07-62,8.39-91.28,19.81-19.59,7.64-39.21,15.73-57.58,25.87-16.89,9.32-33.42,19.5-48.3,32.38-20.89,18.08-41.04,37.01-57.55,58.88-15.51,20.53-29.22,42.84-40.69,65.88-10,20.1-19.42,41.11-21.65,64.16ZM1281.41,2318.61c3.87.56,4.98.56,5.97.91,1,.35,2.05.88,2.77,1.63,16.27,17,36.59,21.81,59.27,20.25,13.53-.93,17.44-5.08,14.51-18.55-3.93-18.09-12.96-33.09-28.85-43.44-5.64-3.68-11.05-7.72-20.61-14.44,5.95-3.52,9.32-5.27,12.43-7.4,6.23-4.26,12.59-8.4,18.39-13.2,9.87-8.17,7.98-17.78-4.3-21.81-4-1.31-8.49-1.45-12.77-1.5-14.63-.18-29.26-.02-43.89-.14-5.05-.04-10.09-.54-16.88-.94,11.71-15.01,25.42-25.76,32.85-42.76-19.71-5.98-37.02-9.56-55.8-5.54-17.75,3.8-34.28,9.6-48.48,20.88-14,11.12-14.77,11.61-29.21,1.63-9.76-6.74-18.9-14.39-28.72-21.03-5.81-3.93-12.51-7.28-18.92,5.64,2.76,1.6,6.13,3.36,9.3,5.43,9.93,6.5,19.81,13.06,29.65,19.7,15.42,10.4,15.54,11.82,10.82,29.11-8.82,32.32-1.65,62.07,16.12,89.64,2.39,3.71,6.82,6.11,9.99,8.85,15.48-9.22,13.57-29.63,28.81-37.72,7.33,17.27,13.95,33.7,21.35,49.77,2.41,5.24,6.42,10.01,10.56,14.11,4.8,4.75,10.32,3.95,13.34-2.17,3.08-6.25,5.07-13.05,7.27-19.7,1.82-5.49,3.27-11.1,5.03-17.2ZM2486.11,2170.6c-.57,2.29-1.45,3.9-1.26,5.37,4.27,32.78,15.13,63.09,36.29,88.76,13.3,16.14,30.83,26.53,51.04,32.73,20.92,6.42,41.6,5.89,62.17-.33,8.67-2.62,15.84-1.22,22.92,3.74,7.52,5.28,14.97,10.71,22.83,15.45,5.3,3.2,7.78-.1,8.81-6.57-8.02-5.52-16.25-11.52-24.82-16.97-6.31-4.02-9.71-8.69-10.82-16.69-1.93-13.8-4.89-27.68-9.38-40.86-9.36-27.5-28.23-47.7-54.59-59.04-33.39-14.37-68.4-11.01-103.18-5.6Z"/>
      <path class="cls-7" d="M4585.06,1862.68c-31.39-8.11-62.54-17.34-94.24-23.97-22.66-4.74-46.01-6.44-69.12-8.68-16.67-1.62-33.52-3.14-50.22-2.56-102.87,3.56-201.94,23.3-294.19,71.05-49.36,25.55-94.24,57.56-135.54,94.62-36.29,32.56-72.16,65.59-108.62,97.96-5.38,4.78-13,7.02-19.59,10.45-6.45-.33-12.9-.97-19.35-.97-85.85-.02-171.69.09-257.54.02-6.94,0-13.89-1.09-20.83-1.67.84-5.86,2-11.7,2.44-17.6.85-11.47,6.53-18.8,17.28-22.9,5.5-2.1,10.67-5.22,15.74-8.28,4.16-2.51,6.32-5.95,1.36-11.65-3.39,1.32-7.61,2.16-10.9,4.38-16.26,11.01-32.57,12.49-51.78,6.41-31.08-9.84-61.42-4.28-87.51,15.21-13.59,10.15-24.36,24.09-36.41,36.32-141.72-.01-283.45-.03-425.18-.05,2.32-14.68-3.6-24.44-16.45-31.92-8.72-5.07-15.9-12.83-23.67-19.5-4.44-3.81-5.75-8.15-4.39-14.4,2.4-10.99,3.65-22.28,4.82-33.5,3.57-34.26,6.57-68.58,10.35-102.82,3.95-35.81,8.37-71.58,12.99-107.31,1.44-11.13,4.18-22.08,6.32-33.12,39.63-12.74,79.12-25.95,118.94-38.1,67.9-20.73,136.86-36.88,207.19-47.18,42.99-6.29,86.07-9.86,129.48-8.5,36.88,1.16,73.21,7.09,109.39,13.94,3.98.75,7.63,3.3,11.43,5.01-5.92,7.59-11.99,15.07-17.72,22.81-14.19,19.15-25.15,39.88-32.04,63.64,34.27,14.35,68.39,19.84,102.98,12.94,39.63-7.91,64.3-33.42,73.88-72.98.79-.34,1.62-.51,2.49-.52,2.96,2.08,5.65,5.26,8.93,6.08,40.04,10.01,80.55,17.06,121.99,16.37,49.79-.82,95.8-15.09,139.34-38.97,51.14-28.06,91.93-68.21,132.28-109.29,32.64-33.23,65.43-66.48,100.15-97.48,69.78-62.31,150.74-105.01,240.37-131.63,51.67-15.34,104.32-24.2,158.16-26.29,15.68-.61,31.33-1.77,46.99-2.67v537.31Z"/>
      <path class="cls-1" d="M817.26,2100.36c-272.42.01-544.84.03-817.26.04v-573.13c47.44-1.29,93.85,5.66,139.5,18.01,66.72,18.05,126.75,49.46,181.49,91.42,15.38,11.79,31.25,22.95,46.89,34.39,14.79,10.86,29.34,22.05,44.4,32.52,55.19,38.4,114.49,68.21,179.75,85.57,53.78,14.31,108.44,21.23,164.08,21.8,28.72.3,57.7.05,86.09,3.71,115.07,14.83,209.72,66.73,280.73,159.51,29.23,38.2,52.17,79.77,65.76,126.17-61.66.05-123.31.01-184.97.3-5.95.03-13.37-2.94-17.29,4.98-10.41-4.91-20.81-9.81-34.32-16.18,30.77-17.13,42.85-40.2,36.84-73.58-9.75.54-19.4.32-28.79,1.77-19.02,2.93-29.04,19.28-43.42,31.95-7.28-13.63-13.97-26.14-20.29-37.96-10.52,1.39-14.47,7.02-16.77,13.96-1.69,5.11-2.6,10.49-3.87,15.74-2.98,12.3-5.97,24.6-9.75,40.19-10.5-12.43-18.6-22.01-28.13-33.3-4.57,6.75-8.96,11.09-10.74,16.31-3.99,11.7-6.68,23.84-9.9,35.81Z"/>
      <path class="cls-4" d="M1188.68,2100.38c-13.59-46.4-36.53-87.97-65.76-126.17-71.01-92.79-165.65-144.68-280.73-159.51-28.39-3.66-57.37-3.42-86.09-3.71-55.63-.57-110.3-7.5-164.08-21.8-65.26-17.36-124.56-47.17-179.75-85.57-15.06-10.47-29.61-21.66-44.4-32.52,2.61-3.05,4.61-7.42,7.92-8.95,50.01-23.13,100.82-44.33,153.73-60.03,48.06-14.26,96.16-28.32,145.9-35.9,22.33-3.4,44.43-8.31,66.71-12.09,10.6-1.8,21.35-2.94,32.08-3.75,19.36-1.46,38.74-2.71,58.14-3.56,29.13-1.27,58.29-3.2,87.41-2.82,23.63.31,47.2,3.83,70.82,5.48,10.24.71,20.56.31,30.84.41-.33,3.2-.62,6.4-1,9.59-4.96,41.03,8.01,74.8,41.83,99.16,28.49,20.52,61.91,26.34,97.17,30.98.91-7.07,1.98-12.78,2.34-18.53,2.19-34.85-4.57-67.67-22.77-97.8,12.22,1.51,24.7,1.95,36.62,4.75,26.15,6.16,52.1,13.23,77.98,20.46,64.48,18.01,127.23,41.12,189.2,66.25,37.98,15.41,75.14,32.84,112.75,49.16,5.3,2.3,11.12,3.42,16.7,5.09.21,105.92,6.81,211.8,3.02,317.62-27.85,13.05-54.45,26.44-81.85,37.95-12.48,5.24-16.52,14.06-18.31,25.68-10.84.2-21.68.56-32.52.57-78.14.09-156.27.13-234.41.13-6.5,0-13.01-.37-19.51-.56Z"/>
      <path class="cls-6" d="M2525.92,1424.67c4.64,8.18,9.28,16.36,13.92,24.54,9.74,17.47,19.47,34.94,29.21,52.41,20.53,36.87,40.96,73.79,61.61,110.59,11.66,20.77,23.75,41.29,35.48,62.02,2.32,4.09,3.9,8.6,6.53,14.52-6.31.37-10.92.88-15.53.89-88.82.04-177.65,0-266.47.04-6.48,0-12.97.5-19.45.76-50.26-.1-100.51-.21-150.77-.31-2.01.02-4.02.05-6.04.07-47.15-.2-94.29-.5-141.44-.59-44.45-.08-88.89.05-133.34.08-5.83,0-11.66,0-20.48,0,3.3-6.9,5.24-11.64,7.73-16.07,38.25-67.97,76.67-135.85,114.85-203.86,49.06-87.38,97.93-174.86,146.94-262.27,1.27-2.27,3.29-4.12,4.96-6.17,33.9-.95,67.8-2.68,101.7-2.65,34.44.02,68.87,1.77,103.31,2.75,18.87,32.84,37.85,65.62,56.6,98.53,22.78,39.97,45.37,80.05,68.04,120.09.88,1.54,1.76,3.08,2.64,4.63ZM2247.32,1553.48c4.12-40.47-34.4-68.83-66.64-68.56-31.26.26-71.28,24.23-69.86,68.48,1.31,40.72,28.93,70.4,71.63,70.66,38.86.23,69.92-37.64,64.87-70.58ZM2500.89,1484.87c0-38.85-30.09-68.25-69.75-68.15-36.71.09-66.68,30.51-66.82,67.84-.14,38.88,30.29,69.39,68.96,69.14,37.87-.25,67.61-30.53,67.6-68.82Z"/>
      <path class="cls-5" d="M1784.07,849.38c1.37,40.58,2.94,81.16,3.99,121.75.34,12.94-4.18,17.53-17.24,18.29-10.71.63-21.48.13-33.79.13-.32,6.6-1,11.83-.75,17.02.44,8.99,4.46,14.74,14.09,17.08,23.12,5.61,46.05,12.04,69.02,18.29,6.77,1.84,13.55,3.84,20.08,6.4,13.37,5.24,22.71,14.55,26.68,28.62,8.67,30.71,17.45,61.38,25.8,92.18,5.09,18.79,9.37,37.8,14.22,56.66,1.18,4.57,3.16,8.93,5.37,15.07,17.64-9.49,34.18-18.36,50.68-27.28,8.57-4.64,16.98-9.57,25.63-14.04,12.11-6.26,22.93-13.49,31.55-24.77,5.99-7.84,14.83-14.54,23.79-18.88,20.43-9.89,41.67-18.12,62.68-26.8,4.85-2.01,10.08-3.11,15.29-4.67,4.43,31.34-11.58,67.05-38.22,78.7-28.11,12.3-49.76,31.87-71.1,52.71-26.74,26.12-54.06,51.64-81.05,77.5-16.04,15.36-34.46,19.46-55.36,12.02-10.05-3.58-18.34-9.34-22.25-19.83-5.48-14.69-11.11-29.33-16.21-44.16-6.84-19.87-13.24-39.88-22.95-59.72-4.69,54.26-9.37,108.52-14.06,162.78-30.34-.17-60.68-.4-91.02-.5-44.43-.15-88.86-.21-133.28-.31-2.03-18.77-4.42-37.51-5.99-56.32-2.56-30.68-4.53-61.41-6.93-92.1-.23-2.92-1.74-5.74-5.24-8.6-6.76,27.62-13.76,55.19-20.2,82.89-8.69,37.36-17.02,74.81-25.35,112.25-3.63,16.34-8.73,32.64-9.78,49.17-.98,15.4,1.27,31.35,4.45,46.56,3.09,14.8,3.17,28.55-2.48,42.59-6.39,15.87-12.18,31.99-19.01,50.06-14.41-14.72-21.61-30.46-30.15-45.27-9.09-15.76-11.21-32.43-6.84-50.15,1.15-4.64.54-9.7.78-14.57,2.41-49.16,3.54-98.42,7.66-147.43,3.34-39.75,9.88-79.26,15.76-118.76,5.88-39.51,12.64-78.9,19.2-118.3,1.59-9.58,4.27-18.98,5.84-28.56,4.13-25.2,20.27-38.48,43.7-44.38,26.73-6.74,53.57-13.01,80.32-19.66,12.97-3.22,12.8-3.41,13.56-15.74.79-12.93,1.83-25.84,2.76-38.76,13.74-14.19,27.48-28.37,41.71-43.06-12.4-14.56-9.8-30.06-10.54-45.11,15.3-3.1,19.38,16.5,34.82,13.79v-41.54c14.43,0,27.3.42,40.12-.11,13.43-.55,26.83-2.02,40.24-3.08Z"/>
      <path class="cls-5" d="M2906.75,1343.9c7.62,26.89,15.1,53.82,22.9,80.66,4.81,16.53,10.28,32.87,15.09,49.41,1.48,5.08,1.75,10.51,2.58,15.79-3.73.43-7.45,1.24-11.18,1.24-76.3.03-152.59,0-228.89-.16-3.62,0-7.24-1.21-10.86-1.85,11.43-38.33,22.55-76.75,34.46-114.92,3.66-11.72,4.93-22.61,1.79-34.83-6.46-25.08-11.46-50.53-17.86-79.46-4.97,8.99-8.55,15.19-11.87,21.53-7.52,14.37-13.94,29.43-22.58,43.08-16.22,25.63-45.23,28.44-65.35,5.98-12.92-14.42-23.99-30.58-35.14-46.49-13.97-19.92-26.8-40.64-40.93-60.45-3.81-5.34-10.15-9.25-16-12.7-10.7-6.31-21.91-11.76-32.89-17.6-8.67-4.61-13.9-12.26-16.63-21.23-4.21-13.87-7.5-28.01-11.24-42.26,7.4-4.34,12.82-.2,17.79,1.84,19.51,8.02,39,16.2,57.92,25.49,6.96,3.42,12.88,9.56,18.34,15.35,26.7,28.27,53.08,56.83,80.57,86.37,3.15-3.89,5.77-5.9,6.74-8.51,12.43-33.44,24.5-67.02,36.94-100.45,6.18-16.6,17.97-28.21,34.23-34.92,9.96-4.11,20.3-7.29,30.46-10.89,12.5-4.77,25.13-9.21,37.39-14.53,2.93-1.27,6.32-5.27,6.57-8.27.98-11.49,2.04-23.17-1.52-35.11-14.69,2.03-28.45,3.93-42.22,5.83-8.74-1.51-13.16-6.82-13.15-15.57.06-41.25-2.48-82.73,10.08-122.95.95-3.04,2.5-5.89,3.77-8.84,3.09,2.06,6.46,3.81,9.23,6.24,20.65,18.22,40.84,36.98,61.92,54.7,7.89,6.63,10.59,13.59,10.52,23.64-.39,58.9-.08,117.8-.2,176.71-.02,11.86-.84,23.72-1.3,35.57-7.43-.79-14.86-2.27-22.29-2.21-9.09.08-18.16,1.98-27.26,2.17-19.44.4-38.9.15-58.35.31-4.6.04-9.2.66-15.77,1.16,25.09,42.22,51.61,80.76,81.68,119.18,4.57-6.56,8.22-11.75,11.81-16.98,10.29-14.98,20.55-29.99,30.83-44.98.14,24.88.07,49.77.51,74.65.23,12.8,1.36,25.57,2.16,39.86,8.42-.6,15.33-.7,22.12-1.66,21.76-3.06,39.1-14.74,55.07-28.95Z"/>
      <path class="cls-7" d="M2245.02,1107.28c-17.33-.25-34.65-.68-51.98-.71-71.52-.09-143.05-.04-214.57-.11-4.66,0-9.32-.63-16.78-1.17,7.6-14.08,13.92-26.35,20.73-38.34,44.36-78.17,88.85-156.28,133.24-234.43,23.53-41.43,46.91-82.94,70.53-124.32,2.34-4.09,5.82-7.53,8.78-11.28,13.64,3.2,27.26,6.54,40.94,9.58,19.99,4.43,40.03,8.64,60.05,12.94,0,128.25-.02,256.5-.03,384.76-5.2.69-10.39,1.74-15.61,2-11.75.57-23.52.74-35.29,1.08ZM2180.56,1035.62c32.86,1.5,67.61-22.75,68.04-69.62.37-40.26-23.37-68.65-67.48-69.91-40.12-1.14-70.24,31.66-70.4,71.89-.16,44.17,37.01,69.66,69.84,67.63Z"/>
      <path class="cls-11" d="M2295.92,1104.21c0-128.25.02-256.5.02-384.76,5.33.58,10.81.54,15.97,1.83,33.37,8.33,66.73,16.73,99.95,25.66,6.29,1.69,9.06-.76,11.72-5.28,13.48,22.81,27.28,45.44,40.37,68.47,50.65,89.13,101.1,178.38,151.56,267.62,4.51,7.98,8.6,16.19,12.98,24.46-5.36,5.86-11.69,3.73-17.19,3.75-77.61.25-155.22.24-232.82.39-10.3.02-20.59.57-30.88.87-17.22-1.01-34.45-2.01-51.67-3.02ZM2400.34,807.46c-42.73,0-67.03,25.21-69.38,66.29-2.16,37.59,29.23,70.15,72.3,70.44,31.79.21,66.94-35.32,64.57-67.31-2.66-35.83-24.65-73.29-67.48-69.42Z"/>
      <path class="cls-7" d="M2699.81,2100.1c-6.5.2-13,.56-19.49.56-147.01.04-294.02.07-441.04-.08-5.09,0-10.17-1.98-15.25-3.04,46.93-26.79,93.89-53.51,140.7-80.5,2.95-1.7,4.73-5.42,7.05-8.2,5.99-1.94,12.35-3.14,17.91-5.94,69.23-34.82,138.14-70.31,207.59-104.69,35.43-17.54,71.79-33.22,107.78-49.61,5.4-2.46,11.13-4.17,16.71-6.23,1.25,2.87,3.24,5.65,3.61,8.63,1.7,13.9,2.77,27.89,4.4,41.8,2.82,24.05,5.89,48.08,8.85,72.11,2.76,22.44,4.9,44.99,8.56,67.28,1.34,8.13-.21,13.72-6.11,18.61-9.55,7.92-18.68,16.49-28.93,23.4-9.69,6.54-14.22,14.39-12.35,25.89Z"/>
      <path class="cls-7" d="M2208.96,664.28h-165.7c2.5-14.04,225.27-408.8,250.95-445.64,1.21,2.06,2.23,3.79,3.23,5.52-.52,5.89-1.46,11.78-1.47,17.67-.04,72.05.02,144.1.12,216.15.1,68.26.28,136.51.42,204.77-5.9.52-11.8,1.43-17.7,1.48-23.29.16-46.58.05-69.86.05Z"/>
      <path class="cls-10" d="M2906.75,1343.9c-15.96,14.2-33.3,25.88-55.07,28.95-6.79.96-13.7,1.06-22.12,1.66-.81-14.29-1.94-27.07-2.16-39.86-.44-24.88-.37-49.76-.51-74.65-.22-19.55-.43-39.1-.64-58.65.45-11.86,1.27-23.72,1.3-35.57.12-58.9-.19-117.81.2-176.71.07-10.05-2.63-17-10.52-23.64-21.08-17.71-41.27-36.47-61.92-54.7-2.76-2.44-6.14-4.18-9.23-6.24,1.3-3.8,1.64-8.42,4.06-11.27,27.15-32.09,78.07-44.52,119.03-29.45,36.69,13.51,64.84,53.72,65.34,94.87.51,41.73.08,83.46.15,125.19.01,7.58.42,15.16.64,22.73-.25,42.64-.57,85.27-.73,127.91-.09,23.66,1.65,47.42-4.46,70.7-7.78,12.91-15.57,25.81-23.35,38.72Z"/>
      <path class="cls-3" d="M2371.77,2008.84c-2.32,2.78-4.1,6.5-7.05,8.2-46.81,26.98-93.77,53.71-140.7,80.5,0,0-1.31-.26-1.31-.26,0,0-1.33.05-1.33.05-.37-12.94-1.05-25.88-1.06-38.82-.02-116.79.08-233.59.1-350.38,0-4.85-.45-9.7-.68-14.55.23-1.15.47-2.3.7-3.45,50.26.1,100.51.2,150.77.31.19,106.14.37,212.27.56,318.41Z"/>
      <path class="cls-4" d="M2219.92,2096.9c-3.53,1.31-7.05,3.71-10.6,3.76-25.49.32-50.98.16-76.48.16-72.14.01-144.28.04-216.42.02-5.96,0-11.91-.37-17.87-.56,1.84-12.46-3.04-20.65-14.9-25.38-11.03-4.41-21.69-9.74-32.51-14.67-13.78-6.28-27.52-12.63-41.34-18.8-5.93-2.65-9.33-6.2-9.28-13.46.48-62.84.65-125.68.9-188.52,22.25,12.23,44.88,23.82,66.67,36.82,53.4,31.86,106.54,64.17,159.51,96.74,20.7,12.73,40.73,26.56,60.95,40.05,31.46,20.99,62.88,42.05,94.21,63.25,7.58,5.13,14.39,11.47,22.2,16.19,4.29,2.6,9.92,3,14.94,4.4Z"/>
      <path class="cls-4" d="M2296.53,662.76c-.14-68.26-.32-136.51-.42-204.77-.1-72.05-.17-144.1-.12-216.15,0-5.89.95-11.78,1.47-17.67,2.96,2.91,6.73,5.34,8.74,8.8,29.27,50.39,58.12,101.02,87.59,151.29,4.5,7.68,11.61,13.83,17.51,20.69-4.73,2.51-9.57,4.85-14.18,7.57-26.48,15.65-39.61,48.29-31.63,78.38,7.83,29.55,32.66,48.99,63.73,50.57,18.06.92,33.97-4.11,48.18-15.07,11.11,21.55,21.9,43.29,33.43,64.61,10.27,18.99,21.47,37.47,32.03,56.3,2.53,4.51,4.17,9.52,7.37,16.96-8.16,0-13.89,0-19.63,0-42.22,0-84.43.05-126.65,0-7.17,0-14.34-.38-17.94,7.72-4.5-6.91-10.76-8.73-18.96-8.62-23.5.31-47.02-.34-70.53-.62Z"/>
      <path class="cls-6" d="M1572.3,1687.75h-42.2c2.8-19.99,5.04-37.46,7.71-54.87,11.36-74.28,22.9-148.54,34.21-222.83,1.13-7.44,1.09-15.06,1.59-22.59,6.36,3.87,13.2,7.12,18.99,11.69,35.92,28.39,71.57,57.13,107.38,85.66,22.33,17.78,45.06,35.07,67.04,53.28,5.89,4.88,9.67,12.31,14.42,18.57-21.69,43.21-43.38,86.41-64.88,129.24-7.42.51-13.84.95-20.26,1.39-6.27.06-12.55.13-18.82.19-35.06.09-70.12.18-105.18.27Z"/>
      <path class="cls-5" d="M2699.81,2100.1c-1.87-11.49,2.66-19.35,12.35-25.89,10.24-6.91,19.37-15.48,28.93-23.4,5.91-4.9,7.45-10.48,6.11-18.61-3.66-22.29-5.8-44.84-8.56-67.28-2.95-24.04-6.03-48.06-8.85-72.11-1.63-13.91-2.7-27.9-4.4-41.8-.36-2.98-2.36-5.76-3.61-8.63-1.04-15.53-1.51-31.12-3.22-46.58-3.83-34.75-8.38-69.41-12.42-104.14-5.47-47.01-11.01-94.02-15.88-141.1-1.15-11.15.23-22.57.45-33.87,2.63,1.79,5.61,3.23,7.84,5.43,36.15,35.66,72.23,71.4,108.22,107.23,1.72,1.71,2.41,4.46,3.58,6.72.04,31.39.37,62.79,0,94.18-.17,14.55-2.27,29.07-2.4,43.62-.09,10.57,1.64,21.16,2.56,31.74-1.15,5.23-3.09,10.42-3.33,15.68-1.31,29.67-2.53,59.34-3.2,89.03-1.42,63.25-2.48,126.52-3.68,189.77-28.85.95-57.7,2.04-86.56,2.7-4.62.11-9.29-1.74-13.93-2.68Z"/>
      <path class="cls-5" d="M1696.3,1687.3c6.42-.44,12.84-.88,20.26-1.39,21.5-42.83,43.19-86.03,64.88-129.24,10.28,1.56,17.35,7.62,22.62,16.19-.16,62.37-.14,124.73-.58,187.1-.19,26.5-1.34,53-2.05,79.5-.25,62.84-.41,125.68-.9,188.51-.06,7.26,3.35,10.81,9.28,13.46,13.82,6.18,27.56,12.53,41.34,18.8,10.82,4.93,21.48,10.26,32.51,14.67,11.85,4.74,16.74,12.92,14.9,25.38-22.05.3-44.1.88-66.15.83-33.36-.09-66.72-.62-100.08-.96.07-17.33.67-34.68.09-52-.8-23.72-1.87-47.47-4.01-71.1-2.27-25.16-6.29-50.16-8.88-75.3-2.7-26.24-4.33-52.6-7-78.84-1.3-12.77-3.91-25.41-5.92-38.1-1.43-19.27-2.48-38.58-4.41-57.81-1.34-13.3-3.88-26.47-5.89-39.7Z"/>
      <path class="cls-5" d="M2930.85,1758.19c-2.14,11.04-4.89,21.99-6.32,33.12-4.62,35.74-9.03,71.5-12.99,107.31-3.78,34.24-6.78,68.56-10.35,102.82-1.17,11.22-2.41,22.51-4.82,33.5-1.37,6.25-.06,10.58,4.39,14.4,7.77,6.67,14.95,14.42,23.67,19.5,12.85,7.48,18.77,17.25,16.45,31.92-2.55.68-5.11,2.01-7.64,1.95-30.04-.77-60.08-1.75-90.11-2.67-1.1-39.5-2.36-79-3.28-118.5-1.27-54.69-2.3-109.39-3.42-164.08-.14-7.05-.21-14.11-.31-21.16-1.04-25.92-2.4-51.84-3.03-77.77-.52-21.66-.02-43.34-.37-65-.08-5.15-1.78-10.27-2.74-15.4,13.56-13.76,26.91-27.74,40.73-41.24,27.35-26.73,54.95-53.21,82.44-79.79-1.27,19.87-2.07,39.78-3.93,59.6-2.4,25.71-5.64,51.34-8.52,77.01-2.64,23.55-5.46,47.07-7.83,70.65-1.13,11.24-1.38,22.56-2.03,33.85Z"/>
      <path class="cls-5" d="M1572.3,1687.75c35.06-.09,70.12-.18,105.18-.27-.93,9.67-2.02,19.33-2.76,29.02-1.39,18.31-2.57,36.63-3.83,54.94-1.42,8.82-3.13,17.6-4.22,26.46-3.16,25.63-6.4,51.25-8.98,76.94-1.77,17.7-2.01,35.55-3.79,53.25-3.87,38.56-8.38,77.06-12.4,115.61-.61,5.89-.3,11.93.07,17.87.82,12.9,1.96,25.78,2.98,38.66-34.97.25-69.94.65-104.91.71-21.51.03-43.02-.45-64.53-.71,1.79-11.62,5.83-20.44,18.31-25.68,27.39-11.51,54-24.9,81.85-37.95,3.8-105.83-2.81-211.71-3.02-317.62.01-10.41.03-20.82.04-31.23Z"/>
      <path class="cls-2" d="M3216.75,712.84c39.79-4.99,69.74,12.52,91.42,43.64,27.23,39.08,21.67,90.62-11.08,125.63-30.6,32.71-82.12,40.33-122.52,18.13-39.5-21.71-60.39-71.45-47.62-115.78,5.6-19.46,15.49-36.83,32.66-48.94,4.65,2.22,9.57,4.01,13.9,6.74,14.18,8.92,28.62,16.04,46.73,11.25,0-6.97.44-12.84-.11-18.62-.71-7.39-2.22-14.7-3.39-22.04Z"/>
      <path class="cls-3" d="M3179.24,632c-2.24-6.06-4.49-12.12-7.34-19.82,4.75-3.9,9.89-8.48,15.39-12.58,32.03-23.94,64.23-47.66,96.19-71.68,10.7-8.04,22.15-12.65,35.76-13.24,30.22-1.31,60.4-3.46,90.59-5.27.14,45.05.3,90.11.45,135.16-12.86,5.39-26.12,10.03-38.46,16.42-8.99,4.66-17.78,6.88-27.82,6.8-37.35-.31-74.71-.7-112.04.12-16.93.37-30.85-3.74-41.68-17.04-1.31-1.61-3.41-2.59-5.14-3.86-1.96-5-3.92-10-5.88-15ZM3305.19,566.75c-9.04.22-15.55,6.62-15.2,14.95.31,7.32,6.4,12.83,13.87,12.55,10.77-.41,17.27-6.21,16.83-15.04-.39-7.88-6.36-12.68-15.5-12.46Z"/>
      <path class="cls-2" d="M3409.55,1058.23c-23.77.16-47.54.52-71.3.37-7.31-.05-13.91.86-19.52,5.84-5.74-.91-11.48-2.57-17.22-2.63-38.47-.41-76.94-.48-115.41-.66-.11-74.4,54.85-131.16,126.2-138.45,32.03-3.27,64.73,0,97.13.3.04,45.08.08,90.15.12,135.23Z"/>
      <path class="cls-5" d="M2930.1,1305.18c6.11-23.28,4.37-47.04,4.46-70.7.17-42.64.48-85.27.73-127.91,26.62,4.63,40.07,21.86,44.27,47.25,11.1,67.11,21.8,134.28,32.88,201.39,9.32,56.46,19.04,112.85,28.39,169.3,2.16,13.03,1.97,25.87-5.38,37.75-9.37,15.13-18.43,30.46-28.81,47.66-3.04-4.94-5.54-7.65-6.51-10.83-4.27-13.96-9.04-27.87-11.77-42.15-2-10.42-3.12-21.8-1.07-32.04,3.64-18.14,2.59-35.35-2.72-52.78-10.55-34.67-21.03-69.37-31.12-104.18-4.81-16.59-8.53-33.5-13.03-50.19-1.5-5.56-2.29-12.18-10.33-12.57Z"/>
      <path class="cls-6" d="M2953.16,1517.09c-27.5,26.58-55.1,53.06-82.44,79.79-13.81,13.5-27.17,27.48-40.73,41.24-7.55,8.95-13.16-.76-19.64-2.05-1.17-2.26-1.86-5.01-3.58-6.72-35.99-35.83-72.07-71.57-108.22-107.23-2.23-2.2-5.21-3.63-7.84-5.43-6.78-8.05-13.56-16.11-21.63-25.7,10.41-.76,18.86-1.38,27.32-2,3.62.64,7.24,1.84,10.86,1.85,76.3.15,152.59.19,228.89.16,3.73,0,7.45-.81,11.18-1.24,8.93.43,17.85.87,26.78,1.3-.1,1.3-.2,2.6-.29,3.9-6.88,7.38-13.77,14.75-20.65,22.13Z"/>
      <path class="cls-7" d="M1804.06,1572.86c-5.27-8.57-12.34-14.62-22.62-16.19-4.75-6.26-8.53-13.69-14.42-18.57-21.98-18.21-44.71-35.5-67.04-53.28-35.82-28.52-71.46-57.27-107.38-85.66-5.79-4.58-12.63-7.83-18.99-11.69.68-1.29,1.36-2.58,2.04-3.88,44.43.1,88.85.16,133.28.31,30.34.1,60.68.33,91.02.5,11.09,66.44,22.2,132.88,33.21,199.33.22,1.33-.71,2.85-1.31,5.02-9.58-5.48-18.68-10.69-27.78-15.89Z"/>
      <path class="cls-10" d="M1784.07,849.38c-13.41,1.07-26.81,2.53-40.24,3.08-12.83.53-25.69.11-40.12.11v41.54c-15.44,2.72-19.52-16.89-34.82-13.79.73,15.04-1.86,30.54,10.54,45.11-14.23,14.69-27.97,28.88-41.71,43.06-.47-.28-1.21-.45-1.36-.84-11.25-29.81-24.92-59-32.87-89.67-6.13-23.66-1.24-48.63,10.89-70.89,7.37-13.53,19.23-22.38,33.85-26.16,13.01-3.37,26.55-6.15,39.91-6.42,37.94-.76,75.9-.12,113.86.02,2.11,0,4.22.45,6.21.68,9.23,42.22-1.36,57.78-24.13,74.17Z"/>
      <path class="cls-7" d="M1005.98,1130.24c14.18,23.85,13.79,47.39-2.55,69.92-3.98,5.49-9.43,11.06-15.46,13.66-13.82,5.95-28.18,11.09-42.77,14.74-24.65,6.15-49.65,10.91-74.51,16.19-2.99.63-6.07.82-9.93,1.32,0-5.78-.88-10.71.14-15.2,7.11-31.1,14.61-62.12,21.99-93.16.25-1.05.63-2.07.97-3.1,12.77-38.98,42.77-53.45,81.4-39.25,2.54.93,5.01,2.04,7.52,3.05,4.65,4.05,9.29,8.11,13.73,11.99,11.84-11.47,22.46-21.76,33.08-32.05,2.61,1.89,5.23,3.77,7.84,5.66-.7,2.14-1.39,4.28-2.08,6.42,0,0-.06.12-.06.13-3.24,3.24-6.49,6.47-9.73,9.71-2.17,2.15-4.33,4.29-6.49,6.44-12.44,11.44-12.55,12.21-3.08,23.53Z"/>
      <path class="cls-6" d="M1139,1573.27c18.2,30.13,24.96,62.94,22.77,97.8-.36,5.76-1.43,11.47-2.34,18.53-35.26-4.64-68.67-10.46-97.17-30.98-33.83-24.36-46.79-58.13-41.83-99.16.39-3.19.67-6.39,1-9.59.31-5.32.62-10.65.93-15.97,2.48-2.41,4.96-4.83,7.43-7.24,6.32,1.06,12.62,2.85,18.96,3.06,34.7,1.14,64.34,12.72,86.47,40.54.98,1.23,2.51,2.02,3.78,3.01Z"/>
      <path class="cls-1" d="M3634.37,1709.77c-9.58,39.56-34.25,65.07-73.88,72.98-34.59,6.91-68.71,1.41-102.98-12.94,6.89-23.76,17.85-44.49,32.04-63.64,5.73-7.73,11.8-15.21,17.72-22.81,4.93-2.38,9.86-4.76,14.78-7.14,1.5-.9,3-1.8,4.51-2.7.25-.77.76-1.07,1.55-.88,1.62-.82,3.23-1.63,4.85-2.45,1.64-.84,3.28-1.68,4.92-2.51,0,0,1.06.06,1.06.06,0,0,.88-.59.88-.59,1.35-.52,2.71-1.04,4.07-1.56,6.72.45,13.47,1.48,20.14,1.09,2.87-.16,5.58-3.24,8.37-4.99,5.33.54,10.66,1.08,15.99,1.62,4.65,2.24,9.24,4.6,13.96,6.68,13.04,5.76,26.12,11.4,39.19,17.09-1.23,4.21-2.45,8.42-3.68,12.63-1.17,3.36-2.33,6.71-3.5,10.07Z"/>
      <path class="cls-1" d="M2477.41,526.4c-14.2,10.96-30.12,15.98-48.18,15.07-31.08-1.58-55.9-21.02-63.73-50.57-7.98-30.1,5.15-62.74,31.63-78.38,4.61-2.72,9.44-5.06,14.18-7.57,6.44-.7,12.87-1.87,19.32-2.02,28.73-.65,50.45,11.88,63.11,37.4,12.82,25.86,9.99,51.34-7.03,74.9-2.83,3.92-6.18,7.46-9.28,11.18Z"/>
      <path class="cls-2" d="M3551.42,784.47c-1.53-24.81-7.08-48.55-18.72-70.67,33.35-19.8,66.62-39.73,100.12-59.28,5.42-3.17,11.82-4.67,17.77-6.94,24.67,42.11,38.06,87.21,36.2,136.36-45.12.18-90.24.36-135.36.53Z"/>
      <path class="cls-2" d="M3480.81,904.73c6.48-4.72,13.76-8.66,19.29-14.31,11.59-11.85,22.26-24.6,33.3-36.99,13.01,7.56,26.14,14.92,38.99,22.74,25.25,15.36,50.35,30.97,75.51,46.48-15.78,30.22-38.24,54.89-64.71,75.85-11.34,8.98-24.18,16.04-36.35,23.98-3.95-6.31-8.18-12.47-11.78-18.98-18.18-32.87-36.19-65.84-54.26-98.78Z"/>
      <path class="cls-1" d="M1270.03,921c-2.25-.77-4.5-1.54-6.75-2.3-1.01-.25-2.01-.5-3.02-.75-2.25-.81-4.51-1.62-6.76-2.43-6.33-6.39-13.73-10.24-22.98-9.74,0,0,.03.02.04.02-1.59-.83-3.18-1.65-4.78-2.48-.8.14-1.3-.18-1.52-.96-1.53-.87-3.06-1.75-4.59-2.63-.91.11-1.52-.27-1.84-1.12-.73-6.36-3.82-9.77-10.64-8.53l.89-.9s-.94.84-.94.84c-1.12-.97-2.24-1.93-3.36-2.9,0,0-.2-.21-.2-.21-1.02-1.02-2.04-2.04-3.06-3.06,0,0-.19-.2-.19-.2-1.02-1.04-2.04-2.09-3.05-3.13l.79-.71s-.88.59-.88.59c-1.08-1.25-2.16-2.5-3.24-3.75-2.07-2.91-4.14-5.81-6.21-8.72-.96-1.54-1.92-3.07-2.88-4.61,0,0,.06.1.06.1-2.54-12.45-5-24.91-7.77-37.3-.23-1.03-2.58-1.58-3.94-2.35-.1-2.13-.2-4.26-.3-6.39,1.74-5.43,4.3-10.75,5.04-16.32,1.28-9.64,1.43-19.43,2.06-29.16-.12-2.28-.25-4.57-.37-6.85,4.06-.52,8.17-1.69,12.18-1.44,11.67.74,23.31,2.05,34.97,3.13,1.43.49,2.86.97,4.29,1.46,2.63.88,5.26,1.77,7.89,2.65.86-.3,1.49-.04,1.9.76,1.7.67,3.41,1.33,5.11,2,.75-.2,1.22.07,1.43.81,2.28,1.08,4.56,2.17,6.85,3.25,0,0-.05-.03-.05-.03,2.13,1.18,4.27,2.35,6.41,3.53,0,0-.06-.03-.06-.03,1.46.94,2.91,1.89,4.37,2.83.94-.07,1.56.35,1.85,1.24,2.35,1.87,4.7,3.73,7.06,5.6,0,0-.11-.08-.11-.08,1.27,1.1,2.54,2.19,3.8,3.29.96.87,1.92,1.75,2.88,2.62,1.17,1.23,2.34,2.47,3.5,3.7,0,0-.75.57-.75.57,0,0,.67-.66.67-.66,1.01,1.25,2.02,2.51,3.04,3.76,2.28,3.97,4.56,7.95,6.84,11.92,1.16,2.38,2.33,4.75,3.49,7.13.9,2.4,1.8,4.79,2.71,7.19.72.27.91.75.57,1.44,1.02,12.78.24,26.03,3.49,38.22,4.73,17.74-1.89,33.72-2.6,50-6.94,1.67-12.55,3.02-18.16,4.37-3.33-.89-6.67-1.77-10-2.66-1.05-.21-2.1-.41-3.15-.62Z"/>
      <path class="cls-3" d="M3650.58,647.58c-5.95,2.27-12.34,3.77-17.77,6.94-33.49,19.55-66.77,39.48-100.12,59.28-15.07-19.04-30.4-37.81-52.15-49.85,10.98-19.82,21.94-39.65,32.93-59.46,11-19.83,22.03-39.65,33.05-59.48,44.49,24.24,79.75,57.84,104.05,102.56Z"/>
      <path class="cls-2" d="M3546.53,545.02c-11.02,19.82-22.05,39.64-33.05,59.48-10.99,19.81-21.95,39.64-32.93,59.46-21.55-13.3-45.61-17.45-70.28-19.38-.14-45.05-.29-90.11-.44-135.16,12.27.51,24.7-.06,36.77,1.75,35.26,5.28,69.22,14.91,99.93,33.86Z"/>
      <path class="cls-3" d="M3480.81,904.73c18.07,32.93,36.08,65.9,54.26,98.78,3.6,6.51,7.83,12.66,11.78,18.98-42.41,24.8-87.97,37.51-137.3,35.74-.04-45.08-.08-90.15-.12-135.23,25.18-.66,49-6.66,71.39-18.27Z"/>
      <path class="cls-1" d="M2295.92,1104.21c17.22,1.01,34.45,2.01,51.67,3.02,14.14,25.68,28.31,51.34,42.38,77.05,3.07,5.62,5.79,11.43,8.68,17.15-34.43-.99-68.87-2.73-103.3-2.75-33.9-.02-67.8,1.7-101.7,2.65,12.64-23.31,25.26-46.63,37.94-69.92,4.4-8.09,8.96-16.09,13.44-24.13,11.76-.33,23.53-.51,35.29-1.08,5.23-.25,10.41-1.31,15.61-2Z"/>
      <path class="cls-3" d="M3647.9,922.65c-25.16-15.51-50.26-31.12-75.51-46.48-12.85-7.82-25.99-15.17-38.99-22.74,10.35-21.85,17.31-44.58,18.01-68.95,45.12-.18,90.24-.36,135.36-.54,2.39,28.39-4.07,55.49-12.41,82.23-6.23,19.98-13.47,39.61-26.46,56.47Z"/>
      <path class="cls-3" d="M3186.1,1061.15c38.47.18,76.94.25,115.41.66,5.75.06,11.48,1.72,17.22,2.63-5.09,8.95-2.17,16.58,3.93,23.66-.03,36.49-.05,72.98-.08,109.47-54.61,3.81-103.5-35.01-124.52-78.49-8.85-18.31-12.18-37.76-11.96-57.93Z"/>
      <path class="cls-2" d="M3667.98,1209.45c3.71,13.83-.83,26.88-4.89,39.56-12.84,40.11-53.54,82.28-113.06,81.7-.24-34.57-.47-69.14-.71-103.71,2.83-5.16,5.67-10.32,8.5-15.49,12.99-.18,25.98-.28,38.97-.54,23.73-.46,47.46-1.01,71.18-1.52Z"/>
      <path class="cls-6" d="M2296.53,662.76c23.51.27,47.03.93,70.53.62,8.2-.11,14.46,1.72,18.96,8.62,1.28,3.34,2.17,6.9,3.89,9.99,11.12,19.95,22.42,39.79,33.66,59.67-2.65,4.52-5.42,6.97-11.71,5.28-33.22-8.92-66.58-17.33-99.95-25.66-5.15-1.29-10.64-1.25-15.97-1.83-20.02-4.3-40.05-8.51-60.04-12.94-13.68-3.03-27.3-6.37-40.94-9.58,4.67-10.89,9.34-21.77,14-32.66,23.29,0,46.58.12,69.86-.05,5.9-.04,11.8-.96,17.7-1.48Z"/>
      <path class="cls-3" d="M3667.98,1209.45c-23.73.51-47.46,1.06-71.18,1.52-12.99.25-25.98.36-38.97.54-2.94-4.4-5.87-8.81-8.81-13.21,1.17-4.1,3.33-8.19,3.34-12.3.05-32-.32-64-.56-96,64.16-1.87,114.1,49.31,117.16,111.58.13,2.6-.64,5.25-.99,7.88Z"/>
      <path class="cls-2" d="M3353.8,1229.94c3.15-.3,6.3-.61,9.47-.91.13,2.81.25,5.62.37,8.43-.91,1.9-2.59,3.78-2.61,5.69-.2,20.06-.22,40.13-.02,60.19.02,1.85,1.84,3.69,2.82,5.53-.09,7.28-.19,14.55-.28,21.83-13.89-.07-24.78,4.11-27.71,19.57-25.78.25-51.55.68-77.33.6-4.67-.01-9.33-2.1-13.99-3.23-2.67-47.82,36.11-108.52,100.12-116.47,3.59,3.68,6.71,3.7,9.16-1.22Z"/>
      <path class="cls-3" d="M3244.52,1347.63c4.66,1.13,9.32,3.21,13.99,3.23,25.77.08,51.55-.34,77.33-.6-3.13,25.8,9.78,43.78,28.73,58.8-.29,20.51-.57,41.02-.85,61.52-64.68,2.72-123.1-56.56-119.19-122.95Z"/>
      <path class="cls-2" d="M3322.58,1197.57c.02-36.49.04-72.99.08-109.47,26.42.27,52.82.46,79.23.84,5.85.09,11.7.86,17.55,1.32,2.55,50.3-21.17,83.74-66.65,103.01,1.22,1.69,2.15,2.99,3.08,4.28-11.1,0-22.19.02-33.29.03Z"/>
      <path class="cls-2" d="M3551.81,1090c.24,32,.61,64,.56,96,0,4.1-2.17,8.2-3.34,12.3-31.16-.37-62.31-.74-93.47-1.11.71-10.1.11-20.51,2.38-30.25,7.53-32.34,26.49-55.9,56.86-70.05,3.19-1.49,5.66-4.5,8.47-6.8,9.52-.03,19.03-.06,28.55-.09Z"/>
      <path class="cls-3" d="M3523.26,1090.08c-2.81,2.3-5.28,5.31-8.47,6.8-30.37,14.15-49.32,37.71-56.86,70.05-2.27,9.74-1.67,20.15-2.38,30.25-33.22.12-66.44.24-99.67.35-.95-1.3-1.88-2.59-3.1-4.28,45.48-19.27,69.2-52.7,66.65-103.01,34.61-.06,69.22-.11,103.83-.17Z"/>
      <path class="cls-3" d="M3549.33,1227c.23,34.57.47,69.14.71,103.71-10.14-.17-20.29-.35-30.43-.52-3.13-2.64-6.1-5.54-9.45-7.89-12.79-8.96-26.5-16.41-36.06-29.71-13.92-19.37-18.13-41.26-19.81-64.16,24.71-.17,49.42-.27,74.13-.53,6.98-.07,13.95-.59,20.92-.9Z"/>
      <path class="cls-2" d="M3454.28,1228.43c1.68,22.9,5.89,44.79,19.81,64.16,9.56,13.3,23.27,20.76,36.06,29.71,3.35,2.35,6.32,5.24,9.45,7.89-32.3.16-64.58.32-96.87.49-20.31-30.87-29.33-64.94-28.87-101.7,20.14-.18,40.28-.36,60.42-.54Z"/>
      <path class="cls-3" d="M3393.86,1228.97c-.46,36.76,8.56,70.84,28.87,101.7-19.72,0-39.45.02-59.18.03.09-7.28.18-14.55.27-21.83-.06-23.8-.13-47.6-.19-71.41-.12-2.81-.24-5.62-.37-8.43,10.19-.02,20.39-.04,30.6-.07Z"/>
      <path class="cls-3" d="M3216.75,712.84c1.17,7.34,2.68,14.65,3.39,22.04.55,5.78.11,11.65.11,18.62-18.11,4.79-32.55-2.33-46.73-11.25-4.33-2.73-9.25-4.52-13.9-6.74-.83-4.44-.79-9.28-2.66-13.22-5.65-11.92-8.95-24.15-7.68-39.04,20.49-.48,38.86,3.89,54.08,18.67,4.12,4,8.91,7.3,13.39,10.92Z"/>
      <path class="cls-3" d="M3412.9,1427.3c20.72,3.11,41.47,5.98,62.13,9.42,11.5,1.91,15.99,6.86,16.65,16.45.79,11.39-4.49,17.57-17.6,17.91-20.41.52-40.86-.07-61.29-.2.04-14.52.07-29.05.11-43.57Z"/>
      <path class="cls-10" d="M2745.38,1051.84c13.76-1.9,27.53-3.8,42.22-5.83,3.56,11.94,2.49,23.62,1.52,35.11-.25,2.99-3.64,7-6.57,8.27-12.26,5.31-24.9,9.76-37.39,14.53.08-17.36.15-34.72.23-52.07Z"/>
      <path class="cls-11" d="M3179.24,632c1.96,5,3.92,10,5.88,15-21.57.4-43.14.9-64.71,1.16-11.91.14-17.84-7.41-22.82-18.01,28.05,3.87,54.83,4.33,81.65,1.85Z"/>
      <path class="cls-6" d="M3412.9,1427.3c-.03,14.52-.07,29.05-.11,43.57-16.36-.1-32.72-.19-49.09-.29.28-20.51.57-41.02.85-61.52,16.11,6.08,32.23,12.16,48.34,18.24ZM3370.18,1465.68c9.75,0,17.17,0,24.59,0,8.1,0,11.78-4.23,11.71-12.13-.03-4.32.04-8.65-.02-12.97-.11-7.44-3.96-12.08-10.97-14.16-3.61-1.07-7.25-2.07-10.94-2.78-9.43-1.81-13.65.84-14.23,10.08-.61,9.62-.14,19.3-.14,31.94Z"/>
      <path class="cls-10" d="M3641.54,1687.07c-13.07-5.69-26.15-11.33-39.19-17.09-4.72-2.08-9.31-4.45-13.96-6.68,11.4,3.03,23.39,4.73,34.04,9.47,11.13,4.95,20.32,4.8,30.45-1.65,7.19-4.58,15.26-7.75,22.5-11.34,5.09,3.86,7.61,8.59,2.69,11.17-11.76,6.17-24.3,10.84-36.52,16.11Z"/>
      <path class="cls-10" d="M1226.76,766.72c-11.65-1.09-23.29-2.4-34.97-3.13-4.01-.25-8.12.92-12.18,1.44-7.95-10.82-15.9-21.64-24.38-33.17,3.11-2.66,5.36-4.59,9.28-7.94,5.66,7.97,11.35,14.95,15.88,22.62,5.66,9.6,12.94,14.77,24.53,15.13,7.32.22,14.56,3.28,21.83,5.06Z"/>
      <path class="cls-10" d="M1283.19,924.27c5.61-1.35,11.23-2.7,18.16-4.37.71-16.28,7.33-32.26,2.6-50-3.25-12.18-2.47-25.44-3.49-38.22,13.99,31.16,9.86,63.18,5.22,97.71-8.26-1.88-15.37-3.5-22.49-5.12Z"/>
      <path class="cls-4" d="M1019.58,1078.35c-10.62,10.29-21.24,20.58-33.08,32.05-4.44-3.88-9.09-7.94-13.73-11.99,12.53-5.89,26.15-9.76,35.91-20.66,3.25-3.62,7.52-4.23,10.9.6Z"/>
      <path class="cls-11" d="M1029.79,1526.66c-2.48,2.41-4.96,4.83-7.43,7.24-7.01-8.69-14.04-17.36-21.01-26.07-4.33-5.41-3.61-9.75,4.36-13.7,8.64,10.18,17.88,20.13,24.09,32.53Z"/>
      <path class="cls-4" d="M2569.05,1501.62c-9.74-17.47-19.47-34.94-29.21-52.41,10.5,2.19,16.86,9.83,20.31,18.74,4.16,10.76,6.04,22.41,8.9,33.67Z"/>
      <path class="cls-10" d="M1179.98,771.88c-.63,9.73-.78,19.52-2.06,29.16-.74,5.56-3.3,10.89-5.04,16.32-2.37-15.9.74-30.94,7.1-45.48Z"/>
      <path class="cls-10" d="M1173.18,823.74c1.36.77,3.71,1.33,3.94,2.35,2.77,12.39,5.23,24.86,7.77,37.3-8.59-11.83-11.46-25.36-11.71-39.66Z"/>
      <path class="cls-10" d="M3572.4,1661.68c-2.78,1.75-5.49,4.82-8.37,4.99-6.67.38-13.42-.64-20.14-1.09,9.02-4.82,18.57-5.79,28.51-3.89Z"/>
      <path class="cls-4" d="M1005.98,1130.24c-9.47-11.32-9.37-12.1,3.08-23.53-1.03,7.84-2.05,15.69-3.08,23.53Z"/>
      <path class="cls-10" d="M1230.53,905.77c9.25-.5,16.65,3.36,22.98,9.74-7.66-3.25-15.32-6.5-22.98-9.74Z"/>
      <path class="cls-10" d="M1207.19,890.07c6.82-1.24,9.91,2.17,10.64,8.53-3.55-2.84-7.1-5.69-10.64-8.53Z"/>
      <path class="cls-4" d="M1015.55,1100.26c3.24-3.24,6.49-6.47,9.73-9.71,1.2,7.69-2.23,10.74-9.73,9.71Z"/>
      <path class="cls-10" d="M3634.37,1709.77c1.17-3.36,2.33-6.71,3.5-10.07-.34,3.18-.67,6.37-1.01,9.55-.86.01-1.69.19-2.49.52Z"/>
      <path class="cls-4" d="M1025.34,1090.42c.69-2.14,1.38-4.28,2.08-6.42,1.09,1.47,2.17,2.93,3.25,4.4-1.78.67-3.55,1.35-5.33,2.02Z"/>
      <path class="cls-10" d="M1273.81,790.8c-2.35-1.87-4.71-3.73-7.06-5.6,2.35,1.87,4.7,3.73,7.06,5.6Z"/>
      <path class="cls-6" d="M3353.8,1229.94c-2.45,4.92-5.56,4.9-9.16,1.22,3.05-.41,6.11-.81,9.16-1.22Z"/>
      <path class="cls-10" d="M1299.88,830.24c-.91-2.4-1.81-4.79-2.72-7.19.91,2.4,1.81,4.79,2.72,7.19Z"/>
      <path class="cls-10" d="M1297.18,823.05c-1.17-2.38-2.33-4.75-3.5-7.13,1.17,2.38,2.33,4.75,3.5,7.13Z"/>
      <path class="cls-10" d="M1260.59,781.16c-2.14-1.18-4.27-2.35-6.41-3.53,2.14,1.18,4.27,2.35,6.41,3.53Z"/>
      <path class="cls-4" d="M2220.45,1690.12c-.23,1.15-.47,2.3-.7,3.45-1.78-1.13-3.56-2.25-5.34-3.38,2.01-.02,4.02-.05,6.04-.07Z"/>
      <path class="cls-10" d="M1254.24,777.66c-2.28-1.08-4.57-2.17-6.85-3.25,2.28,1.08,4.57,2.17,6.85,3.25Z"/>
      <path class="cls-10" d="M1238.94,770.84c-2.63-.88-5.26-1.77-7.89-2.65,2.63.88,5.26,1.77,7.89,2.65Z"/>
      <path class="cls-10" d="M1286.85,804c-1.01-1.25-2.03-2.51-3.04-3.76,1.01,1.25,2.03,2.51,3.04,3.76Z"/>
      <path class="cls-10" d="M1283.89,800.33c-1.17-1.23-2.34-2.47-3.5-3.7,1.17,1.23,2.34,2.47,3.5,3.7Z"/>
      <path class="cls-10" d="M1277.51,794.01c-1.27-1.1-2.54-2.19-3.8-3.29,1.27,1.1,2.54,2.19,3.8,3.29Z"/>
      <path class="cls-10" d="M1203.77,887.11c1.12.97,2.24,1.93,3.36,2.9-1.12-.97-2.24-1.93-3.36-2.9Z"/>
      <path class="cls-5" d="M2973.8,1494.96c.1-1.3.19-2.6.29-3.9-.1,1.3-.19,2.6-.29,3.9Z"/>
      <path class="cls-10" d="M1270.03,921c1.05.21,2.1.41,3.15.62-1.05-.21-2.1-.41-3.15-.62Z"/>
      <path class="cls-10" d="M1225.78,903.3c1.59.83,3.19,1.65,4.78,2.48-1.59-.83-3.19-1.65-4.78-2.48Z"/>
      <path class="cls-10" d="M1264.91,783.96c-1.46-.94-2.91-1.89-4.37-2.83,1.46.94,2.91,1.89,4.37,2.83Z"/>
      <path class="cls-4" d="M2525.92,1424.67c-.88-1.54-1.76-3.08-2.64-4.63.88,1.54,1.76,3.08,2.64,4.63Z"/>
      <polygon class="cls-10" points="3539.82 1667.14 3538.94 1667.73 3537.88 1667.67 3538.59 1666.52 3539.82 1667.14"/>
      <path class="cls-10" d="M3532.96,1670.19c-1.62.82-3.23,1.64-4.85,2.45,1.62-.82,3.23-1.64,4.85-2.45Z"/>
      <path class="cls-10" d="M3526.56,1673.52c-1.5.9-3.01,1.8-4.51,2.7,1.5-.9,3.01-1.8,4.51-2.7Z"/>
      <path class="cls-10" d="M1184.84,863.3c.96,1.54,1.92,3.07,2.88,4.61-.96-1.54-1.92-3.07-2.88-4.61Z"/>
      <path class="cls-10" d="M1245.96,773.6c-1.7-.67-3.41-1.33-5.11-2,1.7.67,3.41,1.33,5.11,2Z"/>
      <path class="cls-10" d="M1193.93,876.64c1.08,1.25,2.16,2.5,3.24,3.75-1.08-1.25-2.16-2.5-3.24-3.75Z"/>
      <path class="cls-10" d="M1219.67,899.72c1.53.88,3.06,1.75,4.59,2.63-1.53-.88-3.06-1.75-4.59-2.63Z"/>
      <path class="cls-10" d="M1260.27,917.95c1.01.25,2.01.5,3.02.75-1.01-.25-2.01-.5-3.02-.75Z"/>
      <path class="cls-10" d="M1197.26,880.51c1.02,1.04,2.04,2.08,3.05,3.13-1.02-1.04-2.04-2.08-3.05-3.13Z"/>
      <path class="cls-10" d="M1200.51,883.84c1.02,1.02,2.04,2.04,3.06,3.06-1.02-1.02-2.04-2.04-3.06-3.06Z"/>
      <path class="cls-3" d="M1281.41,2318.61c-1.77,6.1-3.21,11.71-5.03,17.2-2.21,6.65-4.19,13.45-7.27,19.7-3.02,6.12-8.54,6.92-13.34,2.17-4.15-4.1-8.15-8.87-10.56-14.11-7.41-16.07-14.02-32.5-21.35-49.77-15.24,8.09-13.33,28.5-28.81,37.72-3.18-2.74-7.6-5.14-9.99-8.85-17.77-27.57-24.94-57.32-16.12-89.64,4.72-17.28,4.6-18.71-10.82-29.11-9.84-6.63-19.72-13.2-29.65-19.7-3.16-2.07-6.54-3.83-9.3-5.43,6.41-12.92,13.11-9.57,18.92-5.64,9.82,6.64,18.96,14.29,28.72,21.03,14.44,9.98,15.21,9.49,29.21-1.63,14.2-11.28,30.73-17.09,48.48-20.88,18.79-4.02,36.1-.44,55.8,5.54-7.43,17-21.14,27.75-32.85,42.76,6.78.39,11.83.89,16.88.94,14.63.12,29.26-.04,43.89.14,4.28.05,8.77.19,12.77,1.5,12.27,4.03,14.16,13.64,4.3,21.81-5.8,4.8-12.16,8.93-18.39,13.2-3.11,2.13-6.48,3.88-12.43,7.4,9.56,6.72,14.97,10.76,20.61,14.44,15.89,10.35,24.92,25.35,28.85,43.44,2.93,13.47-.98,17.62-14.51,18.55-22.67,1.56-43-3.25-59.27-20.25-.72-.75-1.77-1.28-2.77-1.63-.99-.35-2.1-.35-5.97-.91Z"/>
      <path class="cls-4" d="M1644.56,2100.24c-1.01-12.89-2.15-25.77-2.98-38.66-.38-5.94-.69-11.98-.07-17.87,4.02-38.55,8.52-77.05,12.4-115.61,1.78-17.7,2.01-35.55,3.79-53.25,2.58-25.69,5.82-51.32,8.98-76.94,1.09-8.86,2.79-17.64,4.21-26.46,3.78,1.88,7.43,4.16,11.38,5.57,8.02,2.85,16.21,5.22,24.33,7.79,2.02,12.7,4.62,25.33,5.92,38.1,2.67,26.25,4.3,52.6,7,78.84,2.59,25.14,6.6,50.14,8.88,75.3,2.13,23.63,3.2,47.38,4.01,71.1.59,17.31-.01,34.66-.09,52-29.25.03-58.51.06-87.76.1Z"/>
      <path class="cls-4" d="M817.26,2100.36c3.22-11.96,5.91-24.11,9.9-35.81,1.78-5.22,6.17-9.56,10.74-16.31,9.54,11.29,17.63,20.87,28.13,33.3,3.78-15.59,6.77-27.89,9.75-40.19,1.27-5.25,2.18-10.63,3.87-15.74,2.3-6.94,6.24-12.56,16.77-13.96,6.32,11.82,13.01,24.33,20.29,37.96,14.38-12.66,24.4-29.01,43.42-31.95,9.39-1.45,19.04-1.22,28.79-1.77,6.01,33.38-6.08,56.45-36.84,73.58,13.5,6.37,23.91,11.27,34.32,16.18,2.85,2.42,5.7,4.84,9.14,7.75-3.68,8.89-10.77,13.5-19.32,15.51-12.11,2.84-24.42,4.86-36.68,7.05-5.72,1.02-11.52,1.61-20.9,2.89,13.09,12.08,23.64,21.81,34.18,31.54-20.58,20.6-58.22,20.21-109.73-1.12-13.93,13.09-28.34,26.62-42.39,39.83-8.62-5.26-6.25-9.77-1.82-14.05,8.57-8.3,17.23-16.51,25.96-24.65,3.14-2.93,6.57-5.54,10.73-9-10.08-19.91-16.82-39.77-18.32-61.04Z"/>
      <path class="cls-7" d="M2486.11,2170.6c34.78-5.4,69.79-8.76,103.18,5.6,26.36,11.34,45.22,31.54,54.59,59.04,4.49,13.18,7.46,27.05,9.38,40.86,1.12,8,4.51,12.67,10.82,16.69,8.58,5.45,16.81,11.45,24.82,16.97-1.03,6.47-3.51,9.77-8.81,6.57-7.86-4.74-15.31-10.17-22.83-15.45-7.08-4.97-14.25-6.36-22.92-3.74-20.57,6.21-41.25,6.74-62.17.33-20.22-6.2-37.74-16.59-51.04-32.73-21.15-25.68-32.01-55.99-36.29-88.76-.19-1.47.69-3.08,1.26-5.37Z"/>
      <path class="cls-4" d="M3366.05,2100.8c12.04-12.23,22.81-26.16,36.41-36.32,26.09-19.49,56.44-25.05,87.51-15.21,19.21,6.08,35.52,4.6,51.78-6.41,3.29-2.22,7.51-3.06,10.9-4.38,4.97,5.7,2.8,9.14-1.36,11.65-5.08,3.06-10.24,6.18-15.74,8.28-10.75,4.09-16.43,11.43-17.28,22.9-.44,5.9-1.6,11.74-2.44,17.6-2.75,4.61-5.95,9.02-8.17,13.87-18.16,39.8-49.88,58.56-92.75,59.93-23.94.77-47.53-1.36-71.03-9.43,1.6-23.25,14.31-42.03,22.18-62.48Z"/>
      <path class="cls-7" d="M2836.12,1796.29c.1,7.05.16,14.11.31,21.16,1.12,54.69,2.15,109.39,3.42,164.08.92,39.5,2.17,79,3.28,118.5-14.27.02-28.55.03-42.82.05,1.21-63.26,2.26-126.52,3.68-189.78.67-29.69,1.88-59.36,3.2-89.03.23-5.27,2.17-10.46,3.33-15.69,8.54-3.1,17.07-6.2,25.61-9.3Z"/>
      <path class="cls-8" d="M4490.82,1838.71c-22.66-4.74-46.01-6.44-69.12-8.68-16.67-1.62-33.52-3.14-50.22-2.56-102.87,3.56-201.94,23.3-294.19,71.05-49.36,25.55-94.24,57.56-135.54,94.62-36.29,32.56-72.16,65.59-108.62,97.96-5.38,4.78-13,7.02-19.59,10.45-8.8,13.46-22.81,21.1-35.71,29.07-24.27,14.99-49.51,28.56-75.14,41.1-18.75,9.18-38.41,16.92-58.32,23.21-21,6.63-43,10.04-64.17,16.19-39.25,11.4-79.83,12.23-119.99,15.87-30.63,2.78-61.55,2.35-92.33,3.63-19.41.8-38.86,1.46-58.17,3.36-31.14,3.07-62,8.39-91.28,19.81-19.59,7.64-39.21,15.73-57.58,25.87-16.89,9.32-33.42,19.5-48.3,32.38-20.89,18.08-41.04,37.01-57.55,58.88-15.51,20.53-29.22,42.84-40.69,65.88-10,20.1-19.42,41.11-21.65,64.16h1592.4v-638.26c-31.39-8.11-62.54-17.34-94.24-23.97Z"/>
      <path class="cls-7" d="M2247.32,1553.48c5.05,32.93-26.01,70.81-64.87,70.58-42.7-.26-70.32-29.93-71.63-70.66-1.43-44.25,38.6-68.22,69.86-68.48,32.25-.27,70.76,28.09,66.64,68.56Z"/>
      <path class="cls-4" d="M2500.89,1484.87c0,38.29-29.74,68.57-67.6,68.82-38.67.25-69.11-30.26-68.96-69.14.14-37.33,30.11-67.75,66.82-67.84,39.66-.09,69.74,29.3,69.75,68.15Z"/>
      <path class="cls-7" d="M2826.25,1201.34c.21,19.55.43,39.1.64,58.65-10.27,14.99-20.54,30-30.83,44.98-3.59,5.23-7.24,10.42-11.81,16.98-30.07-38.42-56.58-76.96-81.68-119.18,6.57-.5,11.17-1.12,15.77-1.16,19.45-.16,38.91.09,58.35-.31,9.1-.19,18.17-2.09,27.26-2.17,7.42-.07,14.86,1.41,22.29,2.21Z"/>
      <path class="cls-2" d="M2180.56,1035.62c-32.83,2.03-70-23.46-69.84-67.63.15-40.24,30.27-73.04,70.4-71.89,44.1,1.26,67.84,29.65,67.48,69.91-.43,46.86-35.18,71.12-68.04,69.62Z"/>
      <path class="cls-6" d="M2400.34,807.46c42.84-3.87,64.82,33.59,67.48,69.42,2.38,31.98-32.77,67.52-64.57,67.31-43.07-.29-74.46-32.85-72.3-70.44,2.36-41.08,26.65-66.3,69.38-66.29Z"/>
      <path class="cls-9" d="M1706.61,1784.8c-8.12-2.57-16.31-4.94-24.33-7.79-3.96-1.4-7.6-3.68-11.38-5.57,1.27-18.32,2.45-36.64,3.83-54.94.73-9.69,1.83-19.35,2.76-29.02,6.27-.06,12.55-.13,18.82-.19,2.01,13.23,4.55,26.4,5.89,39.7,1.93,19.22,2.99,38.53,4.41,57.81Z"/>
      <path class="cls-9" d="M2836.12,1796.29c-8.53,3.1-17.07,6.2-25.61,9.3-.92-10.57-2.65-21.16-2.56-31.73.12-14.54,2.23-29.07,2.4-43.62.37-31.39.04-62.78,0-94.18,6.48,1.29,12.09,11.01,19.64,2.05.96,5.13,2.65,10.25,2.74,15.4.35,21.66-.15,43.34.37,65,.63,25.93,1.98,51.85,3.03,77.77Z"/>
      <path class="cls-2" d="M3305.19,566.75c9.14-.22,15.12,4.58,15.5,12.46.43,8.82-6.06,14.63-16.83,15.04-7.47.29-13.56-5.22-13.87-12.55-.35-8.33,6.16-14.73,15.2-14.95Z"/>
      <path class="cls-6" d="M3363.63,1237.46c.06,23.8.13,47.61.19,71.41-.98-1.85-2.8-3.68-2.82-5.53-.2-20.06-.18-40.12.02-60.19.02-1.9,1.7-3.79,2.61-5.69Z"/>
      <path class="cls-2" d="M3370.18,1465.68c0-12.64-.47-22.33.14-31.94.58-9.24,4.8-11.89,14.23-10.08,3.69.71,7.34,1.71,10.94,2.78,7.01,2.07,10.86,6.71,10.97,14.16.06,4.32-.01,8.64.02,12.97.06,7.89-3.61,12.13-11.71,12.13-7.42,0-14.84,0-24.59,0Z"/>
    </g>
  </g>
</svg>